<?xml version="1.0" standalone="no"?>
<!DOCTYPE svg PUBLIC "-//W3C//DTD SVG 1.1//EN" "http://www.w3.org/Graphics/SVG/1.1/DTD/svg11.dtd" >
<svg xmlns="http://www.w3.org/2000/svg" xmlns:xlink="http://www.w3.org/1999/xlink" version="1.1">
<metadata>
Created by FontForge 20161017 at Wed Jan 22 14:53:42 2020
 By Gunjan

</metadata>
<defs>
<font id="ucglyphs" horiz-adv-x="512" >
  <font-face 
    font-family="ucglyphs"
    font-weight="400"
    font-stretch="normal"
    units-per-em="512"
    panose-1="2 0 5 9 0 0 0 0 0 0"
    ascent="480"
    descent="-32"
    x-height="504"
    cap-height="495"
    bbox="-12 -32 513.5 513.5"
    underline-thickness="0"
    underline-position="0"
    unicode-range="U+0021-E4E4"
  />
<missing-glyph 
 />
    <glyph glyph-name=".notdef" 
 />
    <glyph glyph-name=".notdef" 
 />
    <glyph glyph-name=".null" horiz-adv-x="0" 
 />
    <glyph glyph-name="nonmarkingreturn" 
 />
    <glyph glyph-name="yoga-at-studio" unicode="!" 
d="M256 359q32 0 54.5 22.5t22.5 53.5t-22.5 53.5t-54.5 22.5t-54 -22.5t-22 -53.5t22 -53.5t54 -22.5zM256 486q21 0 36 -15t15 -36t-15 -36t-36 -15t-36 15t-15 36t15 36t36 15zM134 177l122 34l122 -34q1 -1 4 -1q4 0 7 3q5 3 5 10q0 66 -40.5 112.5t-97.5 46.5
t-97.5 -46.5t-40.5 -112.5q0 -7 6 -10q3 -4 10 -2zM256 323q43 0 75 -33.5t37 -84.5l-99 29v28q0 13 -13 13q-12 0 -12 -13v-28l-100 -28q5 50 37 83.5t75 33.5zM432 25l-122 28l104 22q13 2 20.5 12.5t5.5 23.5q-1 13 -10.5 22t-22.5 9h-303q-29 0 -33 -30q-3 -30 26 -37
l96 -22l-108 -23q-12 -2 -10 -14q4 -13 15 -10l161 34l175 -39h3q11 0 12 9q4 13 -9 15zM102 99q-7 2 -7 10q4 8 9 8h302q9 0 9 -8t-7 -10l-157 -33z" />
    <glyph glyph-name="dog-trainer" unicode="&#x22;" 
d="M469 457l-58 11q-16 2 -25 -9q0 -1 -2 -2.5t-2 -2.5q-57 34 -126 34t-126 -34l-4 4q-9 12 -25 9l-58 -10q-19 -3 -31 -17.5t-12 -33.5v-109q0 -29 27 -42q5 -87 68 -149l2 -2q8 -24 26.5 -41t43.5 -21q3 -1 10 -1q6 0 16 2q24 -19 61 -19q40 0 62 20q18 -5 30 -2
q25 5 43 22t26 40q65 62 70 151q27 12 27 41v110q0 19 -12 33.5t-31 17.5zM130 423q53 39 126 39q74 0 126 -39l41 -140q10 -28 37 -31q-4 -57 -41 -106q-1 37 -27 62.5t-63 25.5h-146q-37 0 -63 -25.5t-27 -62.5q-36 47 -41 106q27 3 37 31zM25 406q0 23 22 26l58 11l2 -1
q1 -1 1 -3l-43 -148q-5 -14 -20 -14q-8 0 -14 6t-6 14v109zM222 55q24 15 35 32q10 -17 33 -30q-14 -7 -36 -7q-17 -1 -32 5zM261 152q-2 -3 -5 -3q-4 0 -5 3l-8 14v5q3 3 5 3h16q2 0 5 -3v-5zM394 131q0 -23 -14.5 -41t-37.5 -23q-12 -3 -22 3q-44 18 -50 53q0 3 -1 4
q10 5 14 13l8 13q8 16 0 31q-10 16 -27 16h-16q-17 0 -27 -16q-8 -15 0 -31l8 -13q6 -11 17 -14v-2q-11 -39 -54 -55q-9 -4 -20 -2q-23 4 -38.5 22.5t-15.5 41.5v13q0 27 19 46t47 19h145q27 0 46 -19t19 -46v-13zM487 297q0 -8 -6 -14.5t-14 -6.5q-15 0 -20 15l-43 149v2
l2 1h1l58 -11q22 -3 22 -26v-109zM314 263q12 0 12 12q0 16 16 16t16 -16q0 -12 12 -12q13 0 13 12q0 17 -12 29t-29 12t-29 -12t-12 -29q0 -12 13 -12zM142 263q12 0 12 12q0 16 16 16t16 -16q0 -12 12 -12q13 0 13 12q0 17 -12 29t-29 12t-29 -12t-12 -29q0 -12 13 -12z
M221 126q0 -8 -8 -8q-9 0 -9 8t9 8q8 0 8 -8zM226 100q0 -9 -9 -9q-8 0 -8 9q0 8 8 8q9 0 9 -8zM306 100q0 -9 -8 -9q-9 0 -9 9q0 8 9 8q8 0 8 -8zM200 91q0 -8 -8 -8t-8 8q0 9 8 9t8 -9zM333 91q0 -8 -9 -8q-8 0 -8 8q0 9 8 9q9 0 9 -9zM310 126q0 -8 -8 -8q-9 0 -9 8t9 8
q8 0 8 -8z" />
    <glyph glyph-name="urbanclap-logo-new" unicode="#" 
d="M0 512v-512h512v512h-512zM242 246q0 -32 -22.5 -55t-54.5 -23t-54.5 23t-22.5 55v93h41v-93q0 -15 10.5 -26t25.5 -11t25.5 11t10.5 26v93h41v-93zM331 224q13 -13 32 -13t32 13l29 -29q-25 -25 -61 -25q-37 0 -61 25q-26 26 -26 61q0 37 26 61q25 25 60.5 25t61.5 -25
l-29 -29q-13 14 -32 14t-32 -14q-13 -13 -13 -32q-1 -18 13 -32z" />
    <glyph glyph-name="front-arrow-stemless-thin" unicode="$" 
d="M144 0l-26 25l226 231l-226 231l26 25l250 -256z" />
    <glyph glyph-name="bollywood-dance-class" unicode="%" 
d="M412 209q0 42 -20 77v1q-32 56 -93 73v16q0 6 -7 6h-31v72q0 7 -7 7q-6 0 -6 -7v-71h-27q-7 0 -7 -7v-16q-63 -17 -94 -72l-2 -2q-20 -35 -20 -77q0 -65 45.5 -111t110.5 -47h1q65 0 111 46.5t46 111.5zM112 202h56q1 -30 11 -59h-51q-15 28 -16 59zM129 276h50
q-11 -33 -11 -61h-57q3 34 18 61zM398 216h-58q-1 31 -12 61h52q16 -28 18 -61zM327 216h-65v61h52q12 -31 13 -61zM262 290v55q30 -22 45 -55h-45zM248 347v-56h-47q18 36 47 56zM248 276v-61h-66q2 34 13 61h53zM182 202h66v-59h-53q-11 26 -13 59zM248 128v-57
q-31 23 -47 57h47zM262 71v57h47q-17 -35 -47 -57zM262 142v59h65q-2 -32 -12 -59h-53zM341 202h58q-1 -31 -16 -59h-52q9 31 10 59zM373 290h-49q-17 35 -44 59h2q57 -11 91 -59zM228 369h56v-6h-1q-14 3 -28 3q-10 0 -26 -2v5h-1zM229 349q-28 -25 -43 -59h-48
q33 48 91 59zM136 128h49q18 -38 45 -60q-58 9 -94 60zM280 68q30 27 44 60h50q-36 -51 -94 -60zM403 338q3 0 5 2l35 34q5 5 0 10t-10 0l-34 -34q-5 -5 0 -10q0 -2 4 -2zM437 286q1 -4 6 -4q1 0 3 1l46 17q6 2 4 9q-2 9 -9 4l-46 -17q-7 -4 -4 -10zM408 102q-2 2 -5 2
t-4 -2q-2 -2 -2 -5t2 -4l34 -34q2 -2 5 -2q4 0 5 2q2 1 2 4t-2 5zM505 231l-49 -1q-6 0 -6 -7t6 -7l49 1q7 0 7 7q-2 7 -7 7zM491 143l-46 17q-5 2 -9 -4q-2 -7 4 -9l46 -17h1q1 -1 2 -1q6 0 6 4q3 7 -4 10zM103 340q2 -2 5 -2q1 0 5 2q3 5 0 10l-35 34q-5 5 -10 0t0 -10z
M19 299l46 -17h1l2 -1q6 0 6 4q3 7 -4 9l-45 18q-7 5 -9 -4q-2 -6 3 -9zM103 102l-35 -34q-2 -2 -2 -5t2 -4q1 -2 5 -2t5 2l35 33q3 5 0 10q-5 5 -10 0zM56 216q6 0 6 7t-6 7l-49 1q-7 0 -7 -7t7 -7zM74 156q-2 7 -8 5l-46 -18q-9 -2 -4 -9q1 -4 6 -4q1 0 3 1l45 17q8 2 4 8
z" />
    <glyph glyph-name="contemporary-dance-class" unicode="&#x26;" 
d="M264 382q-25 0 -43 18t-18 43t18 43t43 18t43 -18t18 -43t-17.5 -43t-43.5 -18zM264 478q-14 0 -25 -10.5t-11 -25.5q0 -14 11 -24.5t25 -10.5q15 0 25.5 10.5t10.5 24.5q0 15 -10.5 25.5t-25.5 10.5zM146 18q-14 0 -24 9.5t-10 23.5v123q0 20 14 33.5t33 13.5h44v101
q0 25 17.5 42t41.5 17h175q13 0 22 -9.5t9 -22.5t-9 -22t-22 -9h-112v-103q0 -23 -15.5 -38.5t-38.5 -15.5h-92v-110q0 -13 -9.5 -23t-23.5 -10zM159 196q-9 0 -15.5 -6.5t-6.5 -15.5v-123q0 -8 9 -8q8 0 8 8v135h117q12 0 20.5 8.5t8.5 20.5v128h137q6 0 6 6q0 7 -6 7h-174
q-14 0 -24.5 -10t-10.5 -24v-126h-69zM433 0q-14 0 -24 10l-124 124l18 18l124 -124q6 -6 13 0q6 6 0 13l-125 124l18 18l124 -124q10 -11 10 -25t-10 -24t-24 -10zM175 337l-122 121q-9 9 -9 23q0 13 9 22t22 9t22 -9l123 -121l-18 -18l-123 121q-4 4 -8 0q-2 -1 -2 -4
t2 -5l122 -121z" />
    <glyph glyph-name="german" unicode="'" 
d="M499 431h-486q-13 0 -13 -13v-324q0 -13 13 -13h486q13 0 13 13v324q0 13 -13 13zM487 406v-85h-462v85h462zM487 304v-94h-462v94h462zM25 106v88h462v-88h-462z" />
    <glyph glyph-name="french" unicode="(" 
d="M498 432h-486q-13 0 -13 -13v-325q0 -5 4 -8.5t9 -3.5h486q5 0 9 3.5t4 8.5v325q0 13 -13 13zM326 407v-300h-144v300h144zM24 407h141v-300h-141v300zM486 107h-143v300h143v-300z" />
    <glyph glyph-name="folk-dance-class" unicode=")" 
d="M468 329l40 40q8 8 0 18l-121 121q-9 9 -18 0l-40 -40l-40 40q-9 9 -18 0q-9 -7 0 -18l40 -39l-55 -55l-40 39q-8 8 -18 0q-7 -9 0 -18l40 -39l-64 -64q-4 -6 -4 -9q0 -5 4 -9l15 -16l-185 -186q-9 -8 0 -17q7 -9 18 0l194 194q4 4 4 9q0 6 -4 9l-15 16l177 176l104 -104
l-177 -176l-16 15q-9 9 -18 0l-194 -194q-9 -9 0 -18q3 -4 9 -4q5 0 9 4l186 185l15 -15q9 -9 18 0l64 64l40 -40q3 -3 8 -3q6 0 9 3q9 9 0 18l-39 40l55 55l39 -40q4 -3 9 -3q6 0 9 3q9 9 0 18z" />
    <glyph glyph-name="family-photographer" unicode="*" 
d="M449 277h-36l-37 45l11 31h29q12 0 12 12v134q0 13 -12 13h-236q-12 0 -12 -13v-134q0 -12 12 -12h38l10 -32l-37 -44h-39v11q0 12 -8.5 20.5t-21.5 8.5h-21q-12 0 -20.5 -8.5t-8.5 -20.5v-11q-19 0 -37 -14.5t-18 -31.5v-186q0 -1 0.5 -3t0.5 -3q20 -39 52 -39h380
q18 0 31.5 13t13.5 31v187q0 19 -13.5 32.5t-32.5 13.5zM193 487h210v-109h-210v109zM369 353l-9 -26h-116l-9 26h134zM88 277v11q0 13 13 13h21q13 0 13 -13v-11h-47zM470 45q0 -8 -5.5 -14t-13.5 -6h-381q-16 0 -28 22v184q0 6 10 13.5t19 7.5h126q6 0 10 5l38 45h115
l37 -46q3 -4 10 -4h42q8 0 14.5 -6.5t6.5 -14.5v-186zM113 239q-17 0 -29.5 -12.5t-12.5 -29.5t12.5 -29.5t29.5 -12.5t29.5 12.5t12.5 29.5t-12.5 29.5t-29.5 12.5zM113 172q-11 0 -18 7t-7 18t7 18t18 7t18 -7t7 -18t-7 -18t-18 -7zM313 211q-25 0 -43 -17.5t-18 -43.5
t18 -43.5t43 -17.5t43 17.5t18 43.5t-18 43.5t-43 17.5zM313 106q-19 0 -32 13t-13 31q0 19 13 32t32 13t32 -13t13 -32q0 -18 -13 -31t-32 -13zM313 254q-43 0 -73.5 -30.5t-30.5 -73.5t30.5 -73.5t73.5 -30.5t73.5 30.5t30.5 73.5t-30.5 73.5t-73.5 30.5zM313 63
q-36 0 -61.5 25.5t-25.5 61.5t25.5 61.5t61.5 25.5t61.5 -25.5t25.5 -61.5t-25.5 -61.5t-61.5 -25.5zM365 474h-134q-9 0 -9 -8v-67q0 -9 9 -9h134q9 0 9 9v67q-2 8 -9 8zM357 407h-118v50h118v-50z" />
    <glyph glyph-name="drum-classes" unicode="+" 
d="M320 275q-53 0 -90.5 -37.5t-37.5 -90.5q0 -52 37 -91l-15 -17q-9 -9 1 -18q3 -3 8 -3q6 0 9 4l16 18q33 -22 72 -22t72 22l13 -17q5 -5 10 -5q2 0 8 2q9 9 2 18l-14 18q38 38 38 91t-38 90.5t-91 37.5zM217 147q0 43 30 73t73 30t73.5 -30t30.5 -73t-30.5 -73.5
t-73.5 -30.5t-73 30.5t-30 73.5zM320 230q-34 0 -58.5 -24t-24.5 -59t24 -59.5t59 -24.5t59.5 24.5t24.5 59.5t-24.5 59t-59.5 24zM320 80q-28 0 -47.5 19.5t-19.5 47.5t20 47.5t47 19.5q28 0 47.5 -20t19.5 -47q0 -29 -19.5 -48t-47.5 -19zM268 291q10 0 12 11l8 55
q0 6 -3 9q-3 5 -8 5l-126 17q-12 2 -14 -11l-7 -55q-2 -5 2 -9q3 -5 9 -5l125 -17h2zM257 318l-101 13l4 30l101 -13zM504 377q-2 13 -14 11l-126 -17q-12 -2 -10 -14l7 -55q2 -7 5 -9q4 -2 8 -2h1l126 17q5 0 8 5q3 3 3 9zM384 318l-4 30l101 14l4 -31zM124 43h-28v377
q20 -2 29 -2h14q33 3 36 22q6 33 -81 50q-87 12 -93 -18q-4 -18 19 -29.5t51 -17.5v-382h-28q-13 0 -13 -12q0 -13 13 -13h81q5 0 8.5 4t3.5 9q0 12 -12 12zM90 465q39 -8 57 -20q-20 -6 -61 2q-39 7 -57 20q22 4 61 -2z" />
    <glyph glyph-name="massage-at-home" unicode="," 
d="M249 304q-1 0 -1 1q-2 2 -4 8q-1 2 -1 6q-1 3 0 6q0 13 10 23l8 8h1l-1 1q-1 1 -1 2v1l-1 2q-4 7 -4 17q0 8 1 12q1 1 2.5 4.5t2.5 4.5q3 4 7 7q1 1 5 3q1 0 3 1t3 1q11 3 26 -3l9 -6l3 3l2 2q11 9 20 10q2 1 6 1h2q4 0 10 -2q5 -1 7 -4q4 -2 5 -4q3 -3 4 -5q7 -11 5 -25
q-2 -10 -3 -11l4 -2q1 -1 2 -1q8 -5 14 -12q4 -5 5 -11q2 -6 2 -10q0 -2 -0.5 -5t-0.5 -4l-3 -6l-4 -4q-4 -6 -13 -10q34 0 50 -1h2q6 0 12 -3q2 0 10 -6q1 -1 3 -3.5t3 -4.5q14 -21 1 -44q-2 -4 -5 -7q-2 -2 -3 -2q7 -6 11 -14q19 -28 7 -62q-3 -10 -8 -16q-6 -8 -10 -12
q-10 -8 -17 -11q-5 -2 -15 -4h-6q-19 -1 -57 -1q-190 0 -228 1q-18 0 -37 8q-15 8 -28 19q-11 11 -17 24q-7 15 -9 27q-5 28 6 53q7 16 14 24q14 15 30 24q13 7 29 9q4 1 12 1q78 2 118 2zM297 278h-2h-163q-19 -2 -30 -8q-12 -5 -23 -18q-8 -12 -11 -19q-12 -30 3 -57
q4 -9 13 -18t21 -15t28 -6h215h67q6 0 12 3q3 1 9 5q4 4 6 7q9 11 9.5 27t-8.5 28q-1 2 -5 6q-3 3 -7 5q-8 4 -12 4q-1 0 -2.5 0.5t-2.5 0.5h-276h-2q-3 0 -4 -1h-2q-4 -1 -8 -9q-4 -11 4 -17q2 -3 6 -3q1 -1 3 -1h1l123 2q123 1 123 -2q4 0 6 -2q7 -5 5 -12v-3q-1 -2 -3 -4
q-3 -3 -7 -3h-2h-245h-1h-4q-7 0 -12 3q-6 3 -10 7t-6 7q-14 22 -1 43q3 6 7 9q3 4 9 7t13 3h3h2h2l147 2q147 2 147 -2q1 1 2 1q6 2 8 9q4 10 -4 17q-2 3 -5 3q-2 0 -3 1h-1q-37 -1 -74 0h-1v-1l-1 -1l-3 -4q-4 -3 -6 -5q-6 -4 -9 -5q-1 0 -4 -0.5t-5 -0.5q-4 0 -7 1
q-1 0 -5 2q-9 3 -17 14zM346 403q-13 -2 -19 -11q-2 -2 -3 -4l-2 -2q0 -1 -1 -1l-2 -2q-5 -2 -8 1l-2 2q-1 0 -1 0.5t-1 0.5q0 2 -2 2q-1 1 -4 3l-4 2q-12 6 -20 -1l-2 -2q-2 -2 -2 -4q-2 -4 -2 -6q0 -9 6 -17q2 -4 4 -6v-1l1 -2q2 -5 -3 -8l-2 -2q-2 0 -2 -1h-1l-2 -1
q-1 -1 -4 -3l-3 -3q-9 -11 -5 -20l1 -2q1 -2 3 -4l6 -3q8 -3 18 0q2 0 6 2h1q1 2 3 0q4 0 7 -5v-3v-2q1 -1 1 -3q0 -1 1 -2t1 -2v-3l1 -1q8 -12 18 -11h3l4 2l4 4q6 8 6 17v7v1q0 2 1 3q1 4 7 4h3h2q2 0 3 -1q3 0 5 1h4q13 4 16 13v3v4l-3 6q-5 8 -14 11q-1 1 -3.5 1.5
t-3.5 0.5h-1l-2 2q-4 3 -2 8v1l1 2q1 1 1 2q1 0 1 2q1 1 1 2.5t1 2.5v4q2 14 -6 19q-1 1 -3 1q-2 1 -5 1zM324 372q10 -2 11 -3t3.5 -3t3.5 -3q4 -6 5 -9q1 -2 1 -8q0 -5 -1 -7q-3 -6 -4 -7q-7 -10 -19 -10q-4 0 -10 2q-6 3 -7 4q-4 4 -5 6q-7 10 -2 21q3 6 4 7l6 6
q4 2 12 4h2zM323 355q-3 0 -4 -1l-2 -2q-1 0 -1 -1t-1 -2q-2 -7 5 -10h3q8 -2 8 7v3q0 1 -1 3l-1 1q-1 1 -2 1q-1 1 -3 1h-1z" />
    <glyph glyph-name="hip-hop-dance-class" unicode="-" 
d="M499 357h-78v68q0 5 -3.5 9t-8.5 4h-306q-5 0 -8.5 -4t-3.5 -9v-68h-78q-13 0 -13 -13v-257q0 -13 13 -13h486q13 0 13 13v257q0 13 -13 13zM116 413h280v-56h-153v18h-17v-18h-17v18h-17v-18h-21v18h-17v-18h-38v56zM487 100h-462v232h462v-232zM127 275
q-31 0 -53 -22.5t-22 -53.5t22 -53t53 -22t53.5 22t22.5 53t-22.5 53.5t-53.5 22.5zM127 140q-24 0 -41 17.5t-17 41.5q0 25 17 42t41 17q25 0 42 -17t17 -42q0 -24 -17 -41.5t-42 -17.5zM390 275q-32 0 -54 -22.5t-22 -53.5t22.5 -53t53.5 -22t53 22t22 53t-22 53.5
t-53 22.5zM390 140q-25 0 -42 17.5t-17 41.5q0 25 17 42t42 17q24 0 41.5 -17t17.5 -42q0 -24 -17.5 -41.5t-41.5 -17.5zM57 305q0 -8 8 -8h382q8 0 8 8q0 9 -8 9h-382q-8 0 -8 -9zM390 233q-14 0 -24 -10t-10 -24t10 -23.5t24 -9.5t23.5 10t9.5 23q0 14 -9.5 24t-23.5 10z
M390 182q-7 0 -12 5t-5 12q0 17 17 17q7 0 12 -5t5 -12t-5 -12t-12 -5zM127 233q-14 0 -23.5 -10t-9.5 -24q0 -13 10 -23t23 -10q14 0 24 9.5t10 23.5t-10 24t-24 10zM127 182q-7 0 -11.5 5t-4.5 12q0 17 16 17q17 0 17 -17q0 -7 -5 -12t-12 -5zM271 196h-30q-9 0 -9 -8
q0 -9 9 -9h30q9 0 9 9q0 8 -9 8zM271 230h-30q-9 0 -9 -9q0 -8 9 -8h30q9 0 9 8q0 9 -9 9z" />
    <glyph glyph-name="kathak-dance-class" unicode="." 
d="M419 0q-14 0 -27 10l-235 197l-23 -19v-146q0 -17 -12.5 -29.5t-29.5 -12.5t-29.5 12.5t-12.5 29.5v428q0 17 12.5 29.5t29.5 12.5q18 0 30 -12.5t12 -29.5v-174l259 207q14 11 31 9q19 -3 28 -16q11 -14 9.5 -31t-15.5 -28l-221 -176l222 -187q12 -11 14 -28t-9 -31
q-12 -15 -33 -15zM158 236q4 0 8 -3l243 -204q13 -11 24 2q4 5 4 12q-1 7 -6 12l-234 196q-5 3 -5 10q0 6 5 9l233 186q14 11 3 24q-4 6 -11 6q-7 1 -13 -3l-279 -223q-6 -4 -14 -1q-7 3 -7 11v200q0 7 -5 12t-12 5t-12 -5t-5 -12v-428q0 -7 5 -12t12 -5t12 5t5 12v153
q0 6 5 9l36 29q3 3 8 3z" />
    <glyph glyph-name="online-dietician" unicode="/" 
d="M464 432q-3 21 -25 26l6 13q11 21 -8 35q-18 14 -36 -2l-11 -11q-11 17 -32 14t-26 -24v-3v-17q-13 8 -26 4q-21 -5 -23 -27v-4l10 -40q-47 -12 -77 -58q-57 -86 -94 -149t-52.5 -95t-19.5 -53t-2 -26t8 -10q8 -5 14 -5q51 0 280 251q32 37 27 84l41 5q3 0 4 1
q20 10 18 31q0 13 -10 21l16 5h1q1 1 2 1q18 12 15 33zM297 231l-14 10q-7 5 -12 -2q-2 -2 -1.5 -6t3.5 -5l12 -9q-80 -86 -138 -139l-21 15q-6 5 -12 -1q-5 -7 2 -12l18 -13q-42 -37 -61 -43q0 33 74 156l25 -18q2 -2 5 -2q4 0 7 4q3 7 -2 12l-27 19q36 59 80 125l26 -19
q4 -2 5 -2q4 0 7 4q2 2 1.5 6t-3.5 5l-26 19q28 33 60 39h6q15 0 26.5 -9.5t14.5 -24.5q2 -17 -1 -29v1l-21 15q-7 5 -12 -2t2 -12l21 -15q1 -1 4 -1h2q-7 -18 -17 -28q-11 -14 -33 -38zM437 422l-47 -15q-9 -3 -9 -12q0 -8 9 -12l21 -7l5 -5q0 -4 -3 -6l-41 -5
q-6 13 -16 21l33 45q5 7 -2 12q-6 6 -12 -2l-32 -45q-14 7 -25 7l-9 41q1 4 5 4q5 0 7 -2l14 -18q6 -7 14 -4q8 2 8 11l1 48q1 4 5 4q5 0 7 -3l7 -13q3 -5 9 -5q6 -2 11 3l22 22q1 1 3 0q1 -1 1 -4l-13 -27q-3 -6 0 -11q1 -5 8 -7l16 -4q1 0 6 -5q0 -4 -3 -6z" />
    <glyph glyph-name="maternity-photographers" unicode="0" 
d="M258 185q-2 0 -8 2l-73 52q-7 5 -5 12l15 106q2 13 14 11q13 -2 11 -14l-14 -99l67 -47q10 -7 3 -18q-5 -5 -10 -5zM268 0h-2q-12 3 -10 15l11 47q2 10 12 10h43l-9 41q-2 11 7 14l2 1q1 1 3 2.5t5 4t6 6.5t6 8.5t5.5 11t5 13.5t3.5 16.5t1 19.5q0 13 -5 24.5t-12.5 19.5
t-17 15t-19 11.5t-17.5 7.5t-13 4l-5 2q-8 2 -10 10l-7 44q-2 13 10 15q13 2 15 -10l6 -37q13 -4 27 -10t32 -18.5t29.5 -32.5t11.5 -45q0 -67 -42 -100l10 -48q1 -5 -2 -10q-5 -5 -10 -5h-49l-8 -37q-3 -10 -13 -10zM200 0q-13 0 -13 13v33h-26q-6 0 -10 4q-3 5 -3 10
l20 139q2 11 14 11q13 -2 11 -15l-18 -124h25q12 0 12 -13v-46q0 -12 -12 -12zM142 304h-2q-12 2 -10 15l19 130q0 26 18.5 44.5t44.5 18.5t45 -19t19 -45t-19 -44.5t-45 -18.5q-12 0 -12 12q0 13 12 13q16 0 27.5 11t11.5 27t-11.5 27t-27.5 11t-27 -11t-11 -27v-2
l-19 -131q-2 -11 -13 -11z" />
    <glyph glyph-name="party-caterers" unicode="1" 
d="M413 452q-34 14 -64 1q-9 25 -33.5 42t-59.5 17t-59.5 -17t-33.5 -42q-30 13 -64 -1q-57 -22 -57 -87q0 -33 24.5 -54t59.5 -25v-273q0 -13 13 -13h234q13 0 13 13v273q35 4 59.5 25t24.5 54q0 65 -57 87zM151 25v59h210v-59h-210zM373 310q-12 0 -12 -12v-189h-42v72
q0 5 -4 8.5t-9 3.5q-12 0 -12 -12v-72h-25v88q0 13 -13 13q-12 0 -12 -13v-88h-25v72q0 5 -4 8.5t-9 3.5q-12 0 -12 -12v-72h-43v189q0 12 -12 12q-28 0 -50 15.5t-22 39.5q0 46 41 64q34 15 55 -6q6 -6 14 -3t8 12q0 21 20 37.5t51 16.5t51 -16.5t20 -37.5q0 -9 8 -12t14 3
q20 20 55 6q41 -18 41 -64q0 -24 -22 -39.5t-50 -15.5z" />
    <glyph glyph-name="party-photographers" unicode="2" 
d="M512 425q0 34 -23.5 57.5t-57.5 23.5q-33 0 -56.5 -23.5t-23.5 -57.5q0 -7 2 -21h-208l-10 41q-6 25 -29.5 43t-50.5 18h-55v-26h55q18 0 34.5 -12.5t20.5 -28.5l9 -35h-47v-13q0 -57 52.5 -116t124.5 -65v-178h-71q-13 0 -13 -13q0 -5 4 -8.5t9 -3.5h169q5 0 9 3.5
t4 8.5q0 13 -13 13h-72v178q58 5 104 45t65 91q29 5 48.5 27t19.5 52zM262 235q-60 0 -108 46.5t-56 96.5h328q-7 -50 -55.5 -96.5t-108.5 -46.5zM451 374q2 12 2 17v13h-72q-4 14 -4 21q0 23 16 39t39 16q22 0 38 -16t16 -39q0 -38 -35 -51z" />
    <glyph glyph-name="pest-control" unicode="3" 
d="M430 189q-4 4 -7 4l-47 11q1 6 1 21v11l46 10q3 0 7 4l32 34q8 9 -1 18q-9 8 -18 -1l-29 -32l-39 -8q-3 22 -9 41l47 34q7 5 5 13l-17 80q-2 13 -14 9q-5 -1 -8.5 -5t-1.5 -9l15 -72l-35 -25q-25 55 -67 73q11 62 54 89q11 8 4 17q-5 11 -17 5q-52 -33 -65 -105
q-3 1 -9 1q-7 0 -11 -1q-10 70 -65 104q-9 7 -17 -4t4 -17q46 -29 54 -90q-41 -18 -66 -73l-36 25l15 72q4 13 -9 15q-5 1 -9.5 -2t-5.5 -8l-17 -80q-2 -9 5 -12l49 -35q-6 -20 -9 -41l-41 9l-29 32q-7 8 -18 1q-9 -9 0 -18l31 -34q4 -4 7 -4l48 -11q-1 -3 -1 -10
q0 -3 0.5 -10t0.5 -11l-48 -11q-4 0 -7 -4l-31 -34q-9 -9 0 -18q5 -3 9 -3q6 0 9 4l29 32l42 9q5 -25 10 -39l-51 -37q-7 -5 -5 -13l17 -80q2 -10 12 -10q2 0 2 1q5 1 8 5.5t2 9.5l-15 71l40 29q36 -74 96 -74q59 0 97 73l39 -28l-16 -71q-2 -13 10 -15q1 -1 3 -1
q10 0 12 10l17 80q2 8 -5 13l-51 36q4 11 11 39l40 -8l29 -32q4 -4 9 -4t9 3q9 9 1 18zM257 382q30 0 54 -28t35 -72h-178q11 44 35 72t54 28zM161 225q0 16 3 32h79v-187q-35 8 -58.5 52t-23.5 103zM267 69v188h83q2 -11 2 -32q0 -61 -24.5 -105.5t-60.5 -50.5z" />
    <glyph glyph-name="physiotherapist" unicode="4" 
d="M510 417q-5 5 -11 1q-11 -7 -36 -7q-31 0 -71 27q-22 15 -33 15q-20 0 -35 -20t-15 -46q0 -21 -41 -21v26q18 5 30 19.5t12 33.5q0 23 -16 39t-39 16t-39 -16t-16 -39q0 -19 12 -33.5t30 -19.5v-26q-39 0 -39 21q0 26 -15 46.5t-35 20.5q-7 0 -33 -15q-37 -27 -71 -27
q-7 0 -13.5 0.5t-10 1t-6 1.5t-3.5 1l-1 1q-5 5 -12 1q-6 -5 -1 -12q10 -13 23.5 -29t54.5 -45.5t79 -36.5v-4q17 -39 54 -54q-28 -15 -28 -47q0 -37 35 -49q-12 -12 -12 -30q0 -16 10 -31.5t25 -20.5v-34q0 -13 13 -13t13 13v33q16 5 26.5 20.5t10.5 32.5q0 19 -12 30
q33 13 33 49q0 32 -28 47q34 15 51 50q1 4 0 7q38 6 78.5 34.5t58.5 49t23 28.5q5 5 0 11zM226 445q0 13 8.5 21.5t20.5 8.5t20.5 -8.5t8.5 -21.5q0 -12 -8.5 -20.5t-20.5 -8.5t-20.5 8.5t-8.5 20.5zM178 292h5q41 1 61 9v-56q-45 6 -66 47zM202 190q0 15 11 25.5t25 10.5h6
v-72h-6q-14 0 -25 10.5t-11 25.5zM225 111q0 19 19 24v-57q-19 10 -19 33zM269 76v60q21 -6 21 -25q0 -23 -21 -35zM311 190q0 -15 -10.5 -25.5t-25.5 -10.5h-5v72h5q15 0 25.5 -10.5t10.5 -25.5zM269 246v55q20 -8 60 -9h5q-21 -40 -65 -46zM329 309q-44 1 -61 11
q-1 0 -2 1q-4 4 -9 4q-6 0 -10 -4q-1 0 -3 -2q-21 -9 -61 -10q-72 0 -150 86q5 -1 16 -1q38 0 80 30q20 12 24 12q12 0 22.5 -15.5t10.5 -34.5q0 -13 9 -22q17 -16 49 -16h2h21h1q33 0 49 16q9 9 9 22q0 19 10.5 34.5t22.5 15.5q4 0 24 -12q42 -30 81 -30q11 0 15 1
q-78 -86 -150 -86z" />
    <glyph glyph-name="plumbers" unicode="5" 
d="M394 150q-1 -1 -7.5 -11.5t-12 -20t-11.5 -21.5t-10 -23t-4 -18q0 -23 16 -39.5t39 -16.5t39.5 16.5t16.5 39.5q0 7 -4 18t-10 23t-11.5 21.5t-12 20t-7.5 11.5q-4 4 -10.5 4t-10.5 -4zM404 25q-12 0 -21 9t-9 22q0 17 30 63q31 -45 31 -63q0 -13 -9 -22t-22 -9zM384 355
h-87q-2 18 -15 30.5t-31 12.5h-15v58h76q5 0 8.5 4t3.5 9q0 12 -12 12h-76q-1 13 -11 22t-24 9h-12q-14 0 -24 -9t-11 -22h-71q-12 0 -12 -12q0 -13 12 -13h71v-58h-10q-19 0 -32 -12.5t-14 -30.5h-35q-5 0 -9 -3.5t-4 -8.5v-96q0 -13 13 -13h35v-6q0 -19 13.5 -32.5
t32.5 -13.5h107q19 0 32.5 13.5t13.5 32.5v6h44v-38q0 -13 12 -13h96q12 0 12 13v82q1 32 -22 54.5t-55 22.5zM179 477q0 10 9 10h13q10 0 10 -10v-79h-32v79zM272 228q0 -8 -6 -14.5t-15 -6.5h-107q-9 0 -15 6.5t-6 14.5v19q0 13 -13 13h-35v70h35q13 0 13 13v9q0 9 6 15
t15 6h20h2h58h2h25q9 0 15 -6t6 -15v-124zM436 208h-70v39q0 13 -12 13h-56v70h86q22 0 37 -15.5t15 -36.5v-70z" />
    <glyph glyph-name="pre-wedding-photographers" unicode="6" 
d="M160 450v-1v-4l1 -1q0 -2 1 -2l50 -68q5 -5 10 -5h67q7 0 10 5l51 67l1 2v1q1 2 1 4v1q0 3 -1 4v1q-1 1 -1 2l-33 50q-5 6 -11 6h-100q-6 0 -11 -6l-33 -50l-1 -1q0 -1 -1 -2v-3zM283 394h-54l-32 42h118zM212 487h88l17 -25h-121zM337 377q-12 5 -17 -6q-5 -12 6 -17
q46 -20 74 -63t28 -94q0 -71 -50.5 -121.5t-121.5 -50.5t-121.5 50.5t-50.5 121.5q0 51 27.5 93.5t74.5 63.5q11 5 6 17q-5 11 -17 6q-53 -23 -84.5 -72.5t-31.5 -107.5q0 -82 57.5 -139.5t139.5 -57.5q81 0 139 58t58 139q0 58 -31.5 107.5t-84.5 72.5zM109 197
q0 -61 43 -104t104 -43t104 43t43 104t-43 104t-104 43t-104 -43t-43 -104zM378 197q0 -50 -36 -85.5t-86 -35.5t-86 35.5t-36 85.5t36 86t86 36t86 -36t36 -86z" />
    <glyph glyph-name="salon-at-home" unicode="7" 
d="M512 335q0 56 -40 96t-96 40q-50 0 -148 -22q-39 -8 -95 -24q-9 -4 -9 -13v-154q0 -8 9 -12q35 -11 95 -25q42 -8 62 -12l-28 -87q-6 -26 4 -48q13 -22 37 -30q9 -3 18 -3q13 0 29 7q23 12 31 37l38 121q41 14 67 49.5t26 79.5zM150 403q50 14 68 18v-172q-44 11 -68 19
v135zM356 92q-5 -15 -18 -21q-12 -8 -28 -3q-14 4 -21 18t-3 28l29 91q37 -6 61 -6q9 0 14 1zM376 225q-47 0 -133 18v184q91 19 133 19q46 0 78 -32.5t32 -78.5t-32 -78t-78 -32zM347 184l-19 5q-8 2 -10 -6q-4 -8 6 -10l19 -6h2q6 0 8 6q2 8 -6 11zM338 156l-20 5
q-8 2 -10 -6t6 -10l19 -6h2q6 0 8 6q4 9 -5 11zM378 398q-26 0 -44 -18.5t-18 -44.5q0 -25 18 -43.5t44 -18.5t44.5 18t18.5 44t-18.5 44.5t-44.5 18.5zM378 289q-19 0 -32.5 13.5t-13.5 32.5t13.5 32.5t32.5 13.5q20 0 33 -13.5t13 -32.5t-13.5 -32.5t-32.5 -13.5zM93 398
h-44q-8 0 -8 -9q0 -8 8 -8h44q8 0 8 8q0 9 -8 9zM93 289h-44q-8 0 -8 -8t8 -8h44q8 0 8 8t-8 8zM93 344h-84q-9 0 -9 -9q0 -8 9 -8h84q8 0 8 8q0 9 -8 9z" />
    <glyph glyph-name="valet-services" unicode="8" 
d="M256 512q-106 0 -181 -75t-75 -181t75 -181t181 -75t181 75t75 181t-75 181t-181 75zM256 25q-95 0 -163 68t-68 163t68 163t163 68t163 -68t68 -163t-68 -163t-163 -68zM334 355q-10 8 -29 11q-14 3 -36 3h-88v-234h31v95h60q50 0 68 21q19 20 19 50q0 19 -7 32
q-5 13 -18 22zM315 269q-13 -12 -43 -12h-60v84h60q17 0 29 -2q11 -3 19 -14q7 -10 7 -25q0 -20 -12 -31z" />
    <glyph glyph-name="wedding-photographers" unicode="9" 
d="M351 231q-4 12 -15 9q-12 -2 -10 -15q3 -15 3 -32q0 -63 -44.5 -107.5t-107.5 -44.5t-107.5 44.5t-44.5 107.5t45 107.5t107 44.5q48 0 87 -27q12 -8 17 3q8 12 -3 17q-44 32 -101 32q-73 0 -125 -52t-52 -125t52 -125.5t125 -52.5t125.5 52.5t52.5 125.5q0 12 -4 38z
M369 302q-59 0 -101.5 -42t-42.5 -101q0 -33 15 -63q5 -11 17 -6q11 5 5 17q-11 25 -11 52q0 49 34.5 83.5t83.5 34.5t83.5 -34.5t34.5 -83.5t-34.5 -84t-83.5 -35q-21 0 -42 8q-11 4 -16 -8q-4 -11 8 -16q24 -9 50 -9q59 0 101.5 42t42.5 101q-1 60 -43 102t-101 42z
M266 400l73 -73q4 -4 9 -4t9 4l70 73q19 16 19 41q0 23 -16.5 39.5t-39.5 16.5q-27 0 -43 -21q-18 21 -44 21q-23 0 -39 -16.5t-16 -39.5q0 -26 18 -41zM303 472q13 0 22 -9t9 -22q0 -12 12 -12q13 0 13 12q0 13 9 22t21 9q13 0 22 -9t9 -22q0 -14 -11 -23l-62 -64l-65 65
q-10 8 -10 22q1 13 9.5 22t21.5 9z" />
    <glyph glyph-name="new-categories" unicode=":" 
d="M256 4q-5 0 -8 3l-64 58l-87 -3q-5 -1 -8.5 2.5t-3.5 8.5l-12 85l-68 53q-9 7 -3 16l46 73l-18 85q-2 11 9 14l82 26l40 77q6 10 15 5l80 -32l80 32q11 4 15 -5l41 -77l82 -26q10 -3 8 -14l-18 -85l46 -73q6 -9 -3 -16l-68 -53l-12 -86q-2 -12 -13 -10l-86 3l-64 -58
q-3 -3 -8 -3zM188 90q6 0 9 -3l59 -54l60 54q3 3 8 3l80 -3l11 79q2 6 5 8l63 49l-43 68q-3 4 -1 9l17 79l-77 24q-4 1 -7 6l-37 71l-74 -30q-5 -2 -10 0l-74 30l-37 -71q-3 -5 -7 -6l-77 -24l17 -79q1 -3 -1 -9l-43 -68l63 -49q5 -3 5 -8l11 -79zM439 235l-33 53l13 61
q2 8 -6 10l-60 19l-29 56q-3 6 -10 4l-58 -25l-58 24q-7 4 -11 -4l-29 -55l-60 -19q-7 -3 -5 -10l13 -61l-33 -54q-5 -5 2 -11l49 -38l9 -62q0 -7 8 -7l63 2l46 -42q2 -2 6 -2t6 2l46 42l63 -2q8 0 8 7l9 62l49 38q7 5 2 12zM315 188h-30l-58 101v-101h-28v143h31l57 -100
v100h28v-143z" />
    <glyph glyph-name="marketing-categories" unicode=";" 
d="M105 12q-3 0 -7 2q-6 5 -5 12l28 162l-117 114q-7 5 -3 12q1 7 9 9l163 23l72 147q3 7 11 7t11 -7l72 -147l163 -23q8 -2 9 -9q4 -7 -3 -12l-117 -114l28 -162q0 -8 -5 -12q-6 -4 -13 -1l-145 77l-145 -77q-2 -1 -6 -1zM38 302l104 -101q4 -4 4 -11l-25 -144l129 68
q6 3 12 0l129 -68l-25 144q0 7 4 11l104 101l-144 21q-7 2 -9 7l-65 131l-65 -131q-4 -6 -9 -7z" />
    <glyph glyph-name="piano-classes" unicode="&#x3c;" 
d="M392 262q-46 2 -72 30q-29 32 -29 91q0 53 -38 91t-91 38h-32q-54 0 -91.5 -38t-37.5 -91v-260q0 -13 12 -13h19v-97q0 -13 12 -13h423q12 0 12 13v97h19q13 0 13 13q0 29 -9 58t-38 55t-72 26zM455 25h-398v85h62v-42q0 -13 12 -13q13 0 13 13v42h38v-42q0 -13 12 -13
q13 0 13 13v42h37v-42q0 -13 13 -13t13 13v42h38v-42q0 -13 12 -13q13 0 13 13v42h38v-42q0 -13 12 -13q13 0 13 13v42h59v-85zM467 135h-441v248q0 43 30.5 73.5t73.5 30.5h32q43 0 73 -30.5t30 -73.5q0 -68 36 -108q33 -37 90 -38q27 0 46 -11t28.5 -29t14 -32.5
t5.5 -28.5h-18v-1z" />
    <glyph glyph-name="tiffin-services" unicode="=" 
d="M411 425l-2 -1q-18 13 -66 20v19q0 20 -14.5 34.5t-34.5 14.5h-77q-20 0 -34 -14.5t-14 -34.5v-19q-48 -7 -66 -20h-3q-19 1 -33.5 -13.5t-14.5 -34.5v-313q0 -12 8.5 -20t20.5 -8h13q19 -35 162 -35q144 0 161 35h14q12 0 20.5 8t8.5 20v313q0 20 -14.5 34.5t-34.5 14.5
zM394 282q-29 -18 -130 -19v100q95 3 130 17v-98zM247 263q-99 1 -130 19v98q35 -14 130 -17v-100zM117 264q33 -14 130 -18v-104q-99 1 -130 19v103zM264 246q97 4 130 18v-103q-29 -18 -130 -19v104zM186 463q0 13 9 22.5t22 9.5h77q14 0 23 -9.5t9 -22.5v-17q-28 3 -70 3
t-70 -3v17zM169 418v-2q0 -8 8 -8t8 8v4q30 3 71 3q40 0 70 -3v-4q0 -8 8 -8q9 0 9 8v2q36 -6 48 -12q-36 -17 -127 -17v17q0 8 -8 8q-9 0 -9 -8v-17q-92 0 -126 17q12 6 48 12zM69 63v313q0 23 23 30v-355h-11q-12 0 -12 12zM117 143q33 -14 130 -18v-99q-106 0 -130 19v98
zM264 26v99q97 4 130 18v-98q-7 -7 -42.5 -13t-87.5 -6zM443 63q0 -12 -12 -12h-11v355q23 -7 23 -30v-313z" />
    <glyph glyph-name="water-tanker-cleaner" unicode="&#x3e;" 
d="M467 384l-96 65v50q0 5 -4 9t-9 4h-204q-5 0 -9 -4t-4 -9l1 -50l-97 -65q-5 -5 -5 -11v-360q0 -13 12 -13h408q12 0 12 13v360q0 6 -5 11zM447 25h-382v341l96 66q6 3 6 11l-1 44h179v-44q0 -8 6 -11l96 -66v-341zM266 287l-26 -17q-48 -32 -99 -5l-32 17q-7 5 -11 -3
q-4 -7 3 -12l32 -17q25 -13 54 -13q34 0 62 19l27 18q22 15 50 16t51 -13l26 -15q7 -5 11 3t-3 11l-26 15q-27 16 -59.5 15t-59.5 -19zM411 194l-26 15q-28 17 -60 16t-59 -19l-26 -18q-49 -33 -99 -5l-32 18q-8 4 -11 -4q-5 -7 3 -11l32 -17q24 -14 54 -14q34 0 62 19
l26 18q49 34 102 3l25 -15q8 -4 12 3q4 8 -3 11zM411 113l-26 15q-28 16 -60 15t-59 -19l-26 -17q-49 -33 -99 -5l-32 17q-7 5 -11 -3q-5 -6 3 -12l32 -17q25 -13 54 -13q34 0 62 19l26 18q22 15 50 16t52 -13l25 -15q8 -6 12 3q5 7 -3 11z" />
    <glyph glyph-name="wedding-caterer" unicode="?" 
d="M467 162h-21v102q0 15 -11 25.5t-26 10.5h-10v102q0 15 -11 25.5t-26 10.5h-74v22l10 -8l10 12l-20 17v1q8 5 8 14q0 16 -16 16t-16 -16q0 -9 8 -14v-1l-16 -9l-16 9v1q8 5 8 14q0 16 -16 16t-16 -16q0 -9 8 -14v-1l-20 -17l11 -12l9 7v-21h-74q-15 0 -26 -10.5
t-11 -25.5v-102h-11q-15 0 -25.5 -10.5t-10.5 -25.5v-101h-21q-15 -1 -25.5 -11.5t-10.5 -25.5v-125h494v125q0 15 -10.5 25.5t-25.5 10.5zM240 462l16 -9l16 9v-24h-32v24zM150 414h212q13 0 13 -13v-23l-8 -5q-13 -8 -27 0l-13 9q-23 14 -45 0l-13 -9q-13 -8 -27 0l-13 9
q-22 15 -45 0l-12 -9q-14 -8 -27 0l-8 5v23q2 13 13 13zM138 359q22 -14 43 1l13 8q14 10 27 0l13 -8q10 -7 23 -7q12 0 22 7l13 8q13 10 27 0l13 -8q21 -15 43 -1v-59h-237v59zM103 276h307q12 0 12 -12v-29l-6 -5q-14 -8 -27 0l-13 9q-22 14 -45 0l-13 -9q-14 -8 -27 0
l-13 9q-22 15 -45 0l-13 -9q-13 -8 -27 0l-12 9q-23 15 -45 0l-13 -9q-13 -8 -27 0l-6 5v29q0 12 13 12zM90 216q21 -12 43 1l12 9q14 8 27 0l13 -9q23 -14 45 0l13 9q13 8 27 0l13 -9q22 -15 45 0l13 9q13 8 27 0l12 -9q12 -7 23 -7q9 0 20 6v-53h-333v53zM45 138h422
q12 0 12 -12v-31l-6 4q-22 15 -45 0l-13 -9q-13 -8 -27 0l-12 9q-23 15 -45 0l-13 -9q-14 -8 -27 0l-13 9q-22 14 -45 0l-13 -9q-13 -8 -27 0l-13 9q-22 15 -45 0l-12 -9q-14 -8 -27 0l-13 9q-22 14 -45 0l-5 -4v31q0 12 12 12zM33 25v51h1l2 1l12 9q14 8 27 0l13 -9
q22 -14 45 0l13 9q14 8 27 0l13 -9q22 -15 45 0l12 9q14 8 28 0l12 -9q23 -15 45 0l13 9q13 8 27 0l13 -9q12 -7 22 -7q11 0 23 7l13 9q13 8 27 0l13 -9q1 -1 2 -1v-51h-448z" />
    <glyph glyph-name="zumba-dance-class" unicode="@" 
d="M470 12h-428q-29 0 -39 27q-10 26 10 46l351 331h-322q-17 0 -29.5 12.5t-12.5 29.5t12.5 29.5t29.5 12.5h428q29 0 39 -27q11 -25 -10 -46l-351 -331h322q17 0 29.5 -12.5t12.5 -29.5t-12.5 -29.5t-29.5 -12.5zM42 475q-7 0 -12 -5t-5 -12t5 -12t12 -5h354q9 0 12 -8
q2 -8 -4 -14l-373 -352q-9 -9 -4 -19q3 -10 15 -10h428q7 0 12 4.5t5 11.5t-5 12t-12 5h-354q-8 0 -11 8t3 14l374 353q8 6 4 18q-6 11 -16 11h-428z" />
    <glyph glyph-name="fitness-trainer" unicode="A" 
d="M504 213h-162q-7 0 -8 -4l-24 -48l-37 140q-1 6 -8 6q-6 2 -8 -5l-45 -104l-34 54q-4 4 -7 4q-4 0 -7 -3l-31 -39h-124q-9 0 -9 -9q0 -8 9 -8h128q5 0 6 3l27 33l36 -58q3 -4 8 -4t7 5l42 97l36 -139q2 -6 7 -6h1q4 0 8 4l32 64h157q8 0 8 8q0 9 -8 9zM38 247q3 -8 12 -8
q3 0 5 1q12 4 6 16l-1 3q-22 56 -22 82q0 68 27.5 103t63.5 38q39 2 72 -28.5t42 -88.5q2 -11 13 -11t13 11q9 58 42 88.5t72 28.5q36 -3 63 -38t27 -103q0 -26 -20 -64l-3 -6t-3.5 -7.5t-3.5 -6.5q-5 -12 6 -17q12 -5 17 6q6 10 10 20q23 44 23 75q0 81 -34 122t-80 44
q-38 3 -74 -21t-55 -70q-19 47 -54.5 70.5t-74.5 21.5q-46 -3 -80 -44.5t-34 -122.5q0 -36 24 -91zM392 173q-57 -75 -137 -140q-96 74 -145 140q-8 10 -18 3q-10 -9 -3 -18q30 -40 70 -78t62 -54t28 -19q3 -3 7 -3q2 0 8 3q78 59 148 151q8 8 -2 18q-11 7 -18 -3z" />
    <glyph glyph-name="guitar-lessons" unicode="B" 
d="M187 265q-17 -15 -17 -39q0 -23 17 -40q16 -16 39 -16t39 16q17 17 17 40q0 24 -17 39q-17 17 -39.5 17t-38.5 -17zM247 205q-8 -9 -21 -9t-22 9t-9 21q0 13 9 22q11 9 22 9q10 0 21 -9q9 -9 9 -22q0 -14 -9 -21zM83 144q-9 7 -18 0q-9 -9 0 -18l60 -61q4 -4 9 -4t9 4
q9 9 0 18zM496 424l12 13q9 9 0 18l-54 53q-7 9 -18 0l-12 -12l-13 12q-7 9 -18 0q-7 -7 0 -18l13 -12l-14 -14l-13 12q-9 9 -18 0t0 -18l13 -12l-24 -24q-3 -3 -3 -9q0 -5 3 -9l2 -1l-69 -70q-51 29 -97 7q-42 -19 -51 -62q-86 11 -120 -53q-22 -40 -12 -89t47 -86
q50 -50 114 -50q33 0 60 15q65 35 54 120q45 11 62 51q22 46 -7 97l70 70l1 -2q9 -9 18 0l24 23l12 -12q4 -4 9 -4q6 0 9 4q9 9 0 18l-12 12l14 15l12 -13q4 -4 9 -4t9 4q9 9 0 18zM413 378l-1 1q-9 9 -18 0l-86 -86q-8 -6 -2 -16q29 -41 11 -81q-16 -34 -56 -39q-5 0 -8 -5
t-2 -10q16 -75 -39 -105q-32 -18 -72.5 -9.5t-71.5 40.5q-33 33 -40.5 75.5t9.5 68.5q23 42 76 42q16 0 29 -4q7 0 10 2q5 3 5 9q5 40 39 56q40 18 81 -11q8 -7 16 1l86 86q4 6 4 9q0 5 -4 9l-2 2l68 68l36 -36z" />
    <glyph glyph-name="guitar-lessons-at-home" unicode="C" 
d="M209 182q-11 -11 -11 -27q0 -15 11 -26q10 -11 26 -11q17 0 27 11q11 11 11 26.5t-11 26.5t-26.5 11t-26.5 -11zM251 140q-15 -14 -31 0q-6 6 -6 15q0 10 6 16t15 6q10 0 16 -6t6 -16q0 -9 -6 -15zM136 98q-6 6 -11 0t0 -11l42 -42q1 -2 5 -2q5 0 6 2q6 5 0 11zM430 313
l-38 37q-6 6 -11 0l-9 -10l-9 10q-5 6 -11 0q-8 -6 0 -12l9 -9l-11 -11l-9 9q-7 5 -12 0t0 -11l10 -9l-17 -17q-6 -6 0 -11l2 -2l-49 -49q-35 20 -67 5q-29 -13 -35 -43q-58 8 -83 -36q-14 -28 -7.5 -61.5t31.5 -58.5q36 -34 79 -34q22 0 41 10q45 26 36 83q31 6 44 35
q15 33 -6 66l49 49l2 -1q5 -6 11 0l17 16l9 -9q4 -2 6 -2t6 2q6 5 0 11l-10 10l11 11l10 -10q2 -2 5 -2q2 0 6 2q6 6 0 12l-9 9l9 9q4 6 0 12zM365 259l-2 2q-5 5 -11 0l-60 -60q-4 -6 -1 -10q21 -29 8 -57q-11 -24 -39 -27q-3 0 -6 -3q-1 -2 -1 -7q11 -52 -27 -73
q-22 -12 -50.5 -6.5t-50.5 27.5q-23 23 -28 53.5t7 47.5q15 29 53 29q6 0 20 -2q3 -1 7 1q3 2 3 6q3 28 27 39q28 13 57 -8q5 -4 10 1l60 60q2 2 2 5q0 2 -2 6l-2 2l16 16l23 23l9 9l26 -26zM429 402l-169 108q-6 5 -14 0l-163 -115q-8 -7 -3 -17q5 -5 10 -5q3 0 7 2
l157 111l162 -104q10 -8 16 3q6 10 -3 17z" />
    <glyph glyph-name="interior-designers" unicode="D" 
d="M175 438q-3 6 -11 6t-11 -6l-51 -101q0 -1 -0.5 -3t-0.5 -3v-276q0 -22 20.5 -38t44.5 -16q23 0 42 15.5t19 38.5v276q0 2 -2 6zM156 323v-201h-30v201h30zM201 323v-201h-29v201h29zM126 105h75v-17h-75v17zM164 404l32 -64h-64zM166 26q-13 0 -26.5 9t-13.5 20v17h75
v-17q0 -12 -11 -20.5t-24 -8.5zM398 511h-134q-12 0 -12 -12v-486q0 -12 12 -12h134q13 0 13 12v486q0 12 -13 12zM386 26h-109v62h38q8 0 8 9q0 8 -8 8h-38v67h38q8 0 8 9q0 8 -8 8h-38v67h38q8 0 8 8q0 9 -8 9h-38v67h38q8 0 8 8q0 9 -8 9h-38v67h38q8 0 8 8t-8 8h-38v46
h109v-460z" />
    <glyph glyph-name="jazz-dance" unicode="E" 
d="M483 257l-159 159q-6 5 -14 3q-8 -5 -8 -12v-201q0 -8 -6.5 -14.5t-14.5 -6.5q-7 0 -14 6.5t-7 14.5v12h13q12 0 12 13q0 12 -12 12h-13v26h13q12 0 12 12q0 13 -12 13h-13v25h13q12 0 12 12q0 13 -12 13h-13v27q3 40 -31 77q-26 28 -67 46t-79 18h-45q-12 0 -12 -13
q0 -12 12 -12h45q22 0 36.5 -13t14.5 -33v-301q0 -48 39 -89q51 -51 121 -51q61 0 105.5 41.5t44.5 98.5v74q0 6 10.5 13.5t19.5 7.5t11 7q3 9 -2 15zM419 214v-74q0 -46 -37.5 -80t-87.5 -34q-60 0 -103 43q-31 33 -31 71v301q0 13 -7 29q35 -16 58 -39q26 -29 24 -59v-28
h-4q-12 0 -12 -13q0 -12 12 -12h4v-25h-4q-12 0 -12 -13q0 -12 12 -12h4v-25h-4q-12 0 -12 -13q0 -12 12 -12h4v-13q0 -18 14 -32t32 -14q19 0 32.5 14t13.5 32v171l123 -123q-31 -15 -31 -40z" />
    <glyph glyph-name="keyboard-lessons" unicode="F" 
d="M499 436h-69v26q0 9 -8 9h-39q-9 0 -9 -9v-26h-41v26q0 9 -9 9h-39q-8 0 -8 -9v-26h-42v26q0 9 -8 9h-39q-9 0 -9 -9v-26h-41v26q0 9 -9 9h-39q-8 0 -8 -9v-26h-69q-5 0 -9 -3.5t-4 -8.5v-370q0 -13 13 -13h486q13 0 13 13v370q0 5 -4 8.5t-9 3.5zM374 411v-202
q0 -8 9 -8h7v-135h-73v135h7q9 0 9 8v202h41zM277 411v-202q0 -8 8 -8h7v-135h-72v135h7q8 0 8 8v202h42zM179 411v-202q0 -8 9 -8h7v-135h-72v135h7q8 0 8 8v202h41zM25 411h57v-202q0 -8 8 -8h7v-135h-72v345zM487 66h-72v135h7q8 0 8 9v201h57v-345z" />
    <glyph glyph-name="keyboard-lessons-at-home" unicode="G" 
d="M459 382l-199 128q-8 5 -14 0l-193 -136q-11 -7 -3 -17q3 -6 10 -6q5 0 8 3l185 130l192 -123q11 -7 18 4q6 12 -4 17zM424 273h-45v18q0 9 -8 9h-27q-9 0 -9 -9v-18h-23v18q0 9 -9 9h-27q-8 0 -8 -9v-18h-24v18q0 9 -8 9h-27q-9 0 -9 -9v-18h-23v18q0 9 -9 9h-26
q-9 0 -9 -9v-18h-45q-9 0 -9 -9v-256q0 -8 9 -8h336q9 0 9 8v256q0 9 -9 9zM335 256v-140q0 -8 9 -8h4v-91h-50v91h5q9 0 9 8v140h23zM268 256v-140q0 -8 8 -8h5v-91h-50v91h5q8 0 8 8v140h24zM200 256v-140q0 -8 9 -8h5v-91h-50v91h5q8 0 8 8v140h23zM96 256h37v-140
q0 -8 9 -8h5v-91h-51v239zM416 17h-51v91h5q9 0 9 8v140h36v-239h1z" />
    <glyph glyph-name="kitchen-cleaning" unicode="H" 
d="M97 120h320q8 0 8 7v198q0 8 -8 8h-320q-8 0 -8 -8v-198q0 -7 8 -7zM104 318h305v-183h-305v183zM371 272h-229q-7 0 -7 -8q0 -7 7 -7h229q8 0 8 7q0 8 -8 8zM97 348h167q8 0 8 8v46q0 7 -8 7h-167q-8 0 -8 -7v-46q0 -8 8 -8zM104 394h153v-30h-153v30zM499 436
q13 0 13 13v50q0 13 -13 13h-486q-13 0 -13 -13v-50q0 -13 13 -13h4v-344h-4q-13 0 -13 -12v-67q0 -13 13 -13h486q13 0 13 13v67q0 12 -13 12h-4v344h4zM25 487h462v-25h-462v25zM487 25h-462v42h461v-42h1zM470 92h-428v344h428v-344zM333 348q13 0 22 9t9 22t-9 21.5
t-22 8.5t-21.5 -8.5t-8.5 -21.5t8.5 -22t21.5 -9zM333 394q15 0 15 -15q0 -16 -15 -16q-6 0 -10.5 4.5t-4.5 11.5q0 6 4.5 10.5t10.5 4.5zM409 348q13 0 22 9t9 22t-9 21.5t-22 8.5t-21.5 -8.5t-8.5 -21.5t8.5 -22t21.5 -9zM409 394q7 0 11.5 -4.5t4.5 -10.5q0 -16 -16 -16
q-6 0 -10.5 4.5t-4.5 11.5q0 6 4.5 10.5t10.5 4.5z" />
    <glyph glyph-name="laptop-repair" unicode="I" 
d="M511 83v1l-50 132v233q0 19 -13.5 32.5t-32.5 13.5h-318q-19 0 -33 -13.5t-14 -32.5v-233l-49 -132v-1q-1 -1 -1 -3v-17q0 -19 13.5 -32.5t32.5 -13.5h420q19 0 32.5 13.5t13.5 32.5v17q0 2 -1 3zM76 449q0 9 6 15t15 6h318q9 0 15 -6t6 -15v-222h-360v222zM72 201h368
l41 -109h-450zM487 63q0 -9 -6.5 -15t-14.5 -6h-420q-8 0 -14.5 6t-6.5 15v4h462v-4zM97 245h318v207h-318v-207zM113 436h286v-175h-286v175zM197 166l-18 -54h153l-18 54h-117zM198 125l9 27h98l9 -27h-116z" />
    <glyph glyph-name="laundry" unicode="J" 
d="M507 370l-87 69q-37 29 -86 29v0h-1h-155q-49 0 -86 -29l-87 -69q-5 -3 -5 -9t4 -10l69 -69q9 -9 18 0l31 30v-256q0 -13 12 -13h244q12 0 12 13v257l31 -31q9 -9 18 0l70 69q4 6 3 10q0 6 -5 9zM320 443q-5 -19 -20 -31.5t-35 -12.5t-35.5 12.5t-20.5 31.5h111zM430 308
l-43 44q-6 5 -14 3q-8 -3 -8 -12v-274h-218v274q0 9 -8 11q-7 4 -14 -3l-43 -43l-51 51l76 60q30 24 71 24h6q5 -29 27.5 -49t53.5 -20q30 0 53 19.5t28 48.5q33 -3 59 -23l76 -60z" />
    <glyph glyph-name="lawyers" unicode="K" 
d="M499 252h-4l-57 142h19q13 0 13 13q0 12 -13 12h-165q-10 34 -44 34q-16 0 -28 -9.5t-17 -23.5h-148q-13 0 -13 -13q0 -12 13 -12h19l-57 -143h-4q-13 0 -13 -13q0 -36 26 -62t62 -26q37 0 62.5 26t25.5 62q0 13 -12 13h-5l-57 142h101q8 -25 32 -31v-279h-54
q-13 0 -13 -13q0 -5 4 -8.5t9 -3.5h150q5 0 9 3.5t4 8.5q0 13 -13 13h-71v279q24 6 32 31h118l-58 -142h-4q-12 0 -12 -13q0 -36 25.5 -62t62.5 -26q36 0 62 26t26 62q0 13 -13 13zM88 176q-22 0 -39.5 14.5t-21.5 36.5h123q-5 -22 -22 -36.5t-40 -14.5zM35 252l53 132
l53 -132h-106zM248 386q-9 0 -15 6.5t-6 14.5q0 9 6 15t15 6q8 0 14.5 -6t6.5 -15q0 -8 -6.5 -14.5t-14.5 -6.5zM424 384l53 -132h-106zM424 176q-23 0 -40 14.5t-22 36.5h123q-4 -22 -21.5 -36.5t-39.5 -14.5z" />
    <glyph glyph-name="make-up" unicode="L" 
d="M356 190l-15 8v117q0 12 -13 12h-6v125q0 10 -10 17l-62 40q-13 7 -24 -1q-24 -19 -34 -46q-2 -4 -2 -7v-128h-6q-13 0 -13 -12v-117l-15 -8q-7 -4 -7 -12v-147q0 -13 9 -22t21 -9h154q13 0 22 9t9 22v147q-1 7 -8 12zM213 272v-81q-4 1 -9.5 3.5t-7.5 2.5v105h1
q1 0 3 -0.5t3 -0.5h106q4 0 5 1h1v-105q-27 -12 -59 -12q-15 0 -27 3v84h-16zM215 453q9 21 24 33l57 -37v-122h-80zM338 30q0 -5 -5 -5h-154q-5 0 -5 5v140l10 5q33 -15 72 -15q37 0 73 15l9 -5v-140z" />
    <glyph glyph-name="mobile-repair" unicode="M" 
d="M348 511h-184q-26 0 -44.5 -18t-18.5 -44v-386q0 -26 18.5 -44t44.5 -18h184q26 0 44.5 18t18.5 44v386q0 26 -18.5 44t-44.5 18zM126 403h260v-294h-260v294zM164 486h184q16 0 27 -11t11 -26v-21h-260v21q0 15 11 26t27 11zM348 26h-184q-16 0 -27 11t-11 26v21h260
v-21q0 -15 -11 -26t-27 -11zM197 440h118q8 0 8 9q0 8 -8 8h-118q-8 0 -8 -8q0 -9 8 -9zM273 55q0 -7 -5 -12t-12 -5t-12 5t-5 12t5 12t12 5t12 -5t5 -12z" />
    <glyph glyph-name="nutritionist" unicode="N" 
d="M340 389q-45 0 -71 -19v23q0 23 -16 39.5t-39 16.5h-43q-13 0 -13 -13t13 -13h43q12 0 20.5 -8.5t8.5 -21.5v-23q-26 19 -72 19q-54 0 -92.5 -48.5t-38.5 -116.5q0 -44 18.5 -96t52 -90t69.5 -38q43 0 62 19q6 6 14 6t14 -6q19 -19 62 -19q36 0 69.5 38t52 90t18.5 96
q0 68 -38.5 116.5t-93.5 48.5zM332 25q-32 0 -45 13t-31 13q-16 0 -32 -13q-13 -13 -45 -13q-39 0 -76.5 68.5t-37.5 130.5q0 58 31 99t75 41q36 0 59 -16q15 -10 26 -10q8 0 26 10q23 16 58 16q44 0 75 -41t31 -99q0 -62 -37.5 -130.5t-76.5 -68.5zM290 393q42 0 71.5 32.5
t29.5 78.5q0 8 -8 8q-42 0 -72 -32t-30 -78q0 -9 9 -9zM374 495q-3 -33 -24.5 -56.5t-50.5 -27.5q3 32 24.5 56t50.5 28z" />
    <glyph glyph-name="packers-and-movers" unicode="O" 
d="M512 399q0 1 -0.5 2.5t-0.5 2.5q-1 0 -1 2q-2 2 -3 2l-1 1h-1q0 1 -1 1l-235 101q-5 1 -9 0l-252 -101h-1l-1 -1h-1l-3 -3v-1l-1 -1q0 -1 -0.5 -2.5t-0.5 -2.5v-269q0 -8 7 -11l252 -118h1l2 -1h2h3l2 1q1 0 1 1l235 117q7 3 7 11v269zM264 486l204 -88l-87 -40l-202 94z
M264 303l-219 95l113 45l203 -94zM25 379l227 -98v-249l-227 106v241zM487 138l-210 -105v249l210 97v-241zM200 255l-117 51q-4 1 -8 -1q-4 -4 -4 -7v-109q0 -5 5 -8l118 -50q1 -1 3 -1q1 0 2.5 0.5t2.5 0.5q4 4 4 7v109q0 7 -6 8zM189 151l-101 44v90l101 -43v-91z" />
    <glyph glyph-name="sofa-cleaners" unicode="P" 
d="M512 206q0 25 -14.5 45.5t-37.5 28.5q2 18 2 26q0 85 -60.5 145.5t-145.5 60.5t-145.5 -60.5t-60.5 -145.5q0 -8 2 -26q-23 -8 -37.5 -28.5t-14.5 -45.5t13.5 -45.5t36.5 -28.5v-2v-42q0 -23 14 -37.5t37 -16.5v-21q0 -13 12 -13q13 0 13 13v21h260v-21q0 -13 13 -13
q12 0 12 13v21q23 2 37 16.5t14 37.5v42v2q23 9 36.5 29t13.5 45zM76 306q0 75 52.5 128t127.5 53t127.5 -53t52.5 -128q0 -14 -1 -21h-3q-33 0 -56 -23t-23 -56v-4q-56 8 -97 8q-47 0 -97 -9v5q0 33 -23 56t-56 23h-3q-1 7 -1 21zM25 206q0 22 16 38t39 16q22 0 38 -16
t16 -38q0 -7 -1 -11q-9 -2 -23 -6t-17 -5q-28 -8 -36 -28q-32 15 -32 50zM436 88q0 -29 -29 -29h-302q-29 0 -29 29v42q0 23 24 30q85 25 156 25q83 0 164 -25q16 -5 16 -30v-42zM457 157q-7 20 -29 27q-24 8 -49 13q-1 3 -1 9q0 22 16 38t38 16q23 0 39 -15.5t16 -38.5
q0 -32 -30 -49zM217 275q2 -2 5 -2q5 0 6 2l17 17q8 -2 11 -2t11 2l17 -17q2 -2 6 -2t5 2q7 7 0 12l-16 17q2 6 2 11q0 4 -2 10l16 17q7 7 0 12q-5 6 -11 0l-17 -17q-6 3 -11 3t-11 -3l-17 17q-6 6 -11 0q-7 -7 0 -12l16 -17q-2 -6 -2 -10q0 -5 2 -11l-16 -17q-7 -5 0 -12z
M264 315q0 -2 -2 -6q-3 -3 -6 -3q-8 0 -8 9q0 2 2 6q2 2 6 2q8 0 8 -8z" />
    <glyph glyph-name="weight-loss" unicode="Q" 
d="M405 451h-34q-4 0 -10 -4q-15 29 -43 47t-62 18q-33 0 -61 -17t-43 -46q-2 1 -5 1h-40q-35 0 -60 -25t-25 -60v-279q0 -35 25 -60.5t60 -25.5h298q35 0 60 25.5t25 60.5v279q0 35 -25 60.5t-60 25.5zM256 495q42 0 71.5 -29.5t29.5 -71.5t-29.5 -71.5t-71.5 -29.5
t-71.5 29.5t-29.5 71.5t29.5 71.5t71.5 29.5zM47 85v279q0 25 17.5 43t42.5 18h35q-4 -13 -4 -31q0 -46 31.5 -80t77.5 -38v-251h-140q-25 0 -42.5 17.5t-17.5 42.5zM465 85q0 -25 -17.5 -42.5t-42.5 -17.5h-141v251q46 4 78 38t32 80q0 14 -5 31h2h34q25 0 42.5 -17.5
t17.5 -42.5v-280zM256 308q9 0 15.5 6.5t6.5 15.5q0 14 -14 21v72q0 9 -8 9q-9 0 -9 -9v-72q-13 -7 -13 -21q0 -9 6.5 -15.5t15.5 -6.5z" />
    <glyph glyph-name="yoga-at-home" unicode="R" 
d="M313 333q0 25 -18 42.5t-43 17.5t-43 -17.5t-18 -42.5t17.5 -43t43.5 -18q25 0 43 18t18 43zM216 333q0 14 10.5 24.5t25.5 10.5t25.5 -10.5t10.5 -24.5q0 -15 -10.5 -25.5t-25.5 -10.5t-25.5 10.5t-10.5 25.5zM144 146q0 -7 6 -10q4 -4 11 -2l91 25l92 -25q1 -1 3 -1
q5 0 8 3q5 3 5 10q0 51 -31.5 87.5t-76.5 36.5q-44 0 -76 -36.5t-32 -87.5zM252 244q30 0 53 -23t28 -58l-69 19v19q0 13 -12 13q-13 0 -13 -13v-19l-68 -19q5 35 27.5 58t53.5 23zM386 25l-79 17l65 14q25 5 22 32q-1 11 -9 18t-19 7h-229q-11 0 -19.5 -7t-9.5 -18t5 -20
t17 -11l59 -14l-68 -14q-12 -4 -9 -15q2 -12 14 -10l122 26l132 -30h3q10 0 12 10q3 11 -9 15zM136 81q-3 0 -3 4q1 3 4 3h229q3 0 4 -3q0 -4 -3 -4l-119 -25zM500 356l-241 154q-7 4 -15 0l-232 -164q-11 -7 -4 -18q5 -5 11 -5q3 0 7 2l226 159l234 -149q10 -7 18 3
q6 12 -4 18z" />
    <glyph glyph-name="ac-repair" unicode="S" 
d="M448 442h-384q-26 0 -44.5 -18.5t-18.5 -44.5v-102q0 -26 18.5 -44.5t44.5 -18.5h384q26 0 44.5 18.5t18.5 44.5v102q0 26 -18.5 44.5t-44.5 18.5zM64 417h384q16 0 27 -11t11 -27v-65h-460v65q0 15 11 26.5t27 11.5zM448 239h-384q-16 0 -27 11t-11 27v11h460v-11
q0 -16 -11 -27t-27 -11zM207 355h98q13 0 13 12q0 13 -13 13h-98q-12 0 -12 -13q0 -12 12 -12zM108 184q2 8 -6 10t-10 -6q-8 -30 15 -53q12 -14 12 -21q0 -9 -4 -16t-8 -10l-4 -2q-7 -3 -5 -11q3 -5 8 -5h2q1 1 2 1l2 1q1 1 3.5 2.5t5 4t5.5 6t5 7.5t3.5 10t1.5 12
q0 15 -17 32q-17 19 -11 38zM208 184q2 8 -6 10t-10 -6q-8 -28 15 -53q12 -14 12 -21q0 -9 -4 -16t-8 -10l-4 -2q-8 -4 -4 -11q2 -5 7 -5h2l2 1l2 1q1 1 3.5 2.5t5 4t5.5 6t5 7.5t3.5 10t1.5 12q0 14 -16 32q-17 17 -12 38zM309 184q2 8 -6 10t-10 -6q-8 -30 15 -53
q12 -14 12 -21q0 -9 -4 -16t-8 -9.5t-5 -2.5q-6 -3 -4 -11q3 -5 8 -5h1q2 1 3 1l1 1q2 1 4.5 2.5t5 4t5 6t4.5 7.5t3.5 10t1.5 12q0 16 -16 32q-17 17 -11 38zM409 184q2 8 -6 10t-10 -6q-8 -28 15 -53q12 -14 12 -21q0 -9 -4 -16t-8 -10l-4 -2q-8 -4 -4 -11q2 -5 7 -5h3
l1 1l1 1q2 1 4.5 2.5t5 4t5.5 6t5 7.5t3.5 10t1.5 12q0 14 -16 32q-17 17 -12 38zM431 342q11 0 18 7t7 18t-7.5 18.5t-17.5 7.5q-11 0 -18.5 -7.5t-7.5 -18.5q0 -10 7.5 -17.5t18.5 -7.5zM431 376q8 0 8 -9q0 -8 -8 -8q-9 0 -9 8q0 9 9 9z" />
    <glyph glyph-name="baby-kids-photographers" unicode="T" 
d="M512 234q0 19 -13 32.5t-33 15.5q-17 68 -70.5 114t-124.5 52q9 27 37 27q14 0 25 -8q9 -9 18 2q8 9 -2 17q-19 14 -41 14q-33 0 -53 -28q-14 14 -35 14q-14 0 -27 -8q-11 -7 -3 -17q6 -11 17 -4q5 4 13 4q16 0 22 -13q-73 -4 -129 -51.5t-72 -119.5q-17 -2 -29 -15.5
t-12 -31.5t12 -31.5t29 -15.5q17 -75 77 -123.5t136 -48.5q78 0 138.5 50t75.5 125q19 2 31.5 15.5t12.5 32.5zM464 211h-3h-1q-13 2 -15 -10q-10 -70 -65 -117t-126 -47q-69 0 -123 44t-67 112q-2 6 -5 8q-3 7 -11 7q-10 0 -16.5 6.5t-6.5 15.5q0 13 11 20v-2q0 -12 12 -14
h1q12 0 12 12q6 75 62 126.5t131 51.5t129.5 -50t62.5 -124q2 -13 14 -11q13 2 11 14v3q15 -5 15 -22q1 -10 -6 -16.5t-16 -6.5zM345 179q-4 2 -9 0t-7 -7q-8 -22 -27.5 -35.5t-43.5 -13.5q-23 0 -43 14t-28 36q-4 12 -16 7q-12 -4 -7 -16q10 -30 36 -48t58 -18t58 18t37 47
q4 13 -8 16zM181 258q0 -12 12 -12q13 0 13 12q0 21 -15 36t-36 15t-35.5 -15t-14.5 -36q0 -12 13 -12q12 0 12 12q0 10 7.5 17.5t17.5 7.5q11 0 18.5 -7.5t7.5 -17.5zM355 308q-21 0 -35.5 -14.5t-14.5 -35.5q0 -13 12 -13q13 0 13 13q0 10 7 17.5t18 7.5t18 -7.5t7 -17.5
q0 -13 13 -13q12 0 12 13q1 21 -14 35.5t-36 14.5z" />
    <glyph glyph-name="bathroom-cleaning" unicode="U" 
d="M382 355l-1 1v1q0 13 17 28q19 17 19 33q0 19 -22.5 28.5t-43.5 10.5h-111q-12 0 -12 -12v-39q0 -6 4 -9q3 -4 9 -4q17 1 38 -10l-1 -1q0 -20 -6 -33t-11.5 -16.5t-7.5 -3.5q-11 -4 -7 -16q3 -8 12 -8h3q35 17 41 59l10 -13l1 -1v-5q7 -20 7 -44q0 -13 -24 -54
q-49 -87 -49 -146q0 -13 2 -34.5t4 -38t2 -17.5q2 -10 12 -10h155q10 0 12 10v3q1 2 1.5 7t1 13t1 19.5t1 25t1 33t0.5 40.5q0 100 -57 201zM253 417v15h97q15 -1 28 -6t14 -9q0 -5 -12 -15q-19 -17 -22 -33h-29q-34 44 -76 48zM344 300q0 25 -6 45h22q0 -2 1 -3
q35 -59 49 -134h-107q10 18 15 26q26 45 26 66zM291 184h2h120q2 -22 2 -33q0 -37 -2 -79h-140q-1 11 -1 29q0 40 19 83zM278 25q-1 8 -3 23h137q0 -4 -0.5 -12t-1.5 -11h-132zM108 433h-28q-8 0 -8 -8t8 -8h28q8 0 8 8t-8 8zM76 497l21 -14q1 -1 4 -1q6 0 7 4q5 7 -2 11
l-21 14q-7 4 -12 -3t3 -11zM202 434l-20 14q-6 4 -12 -2q-4 -7 3 -12l11 -7l-7 -5q-3 -1 -3.5 -5t1.5 -6q1 -4 6 -4q3 0 5 2l14 10l3 3q1 0 1 0.5t1 0.5q4 8 -3 11zM150 451q4 0 6 3q5 7 -2 12l-21 13q-2 2 -6 1.5t-5 -3.5q-4 -7 2 -11l21 -14q1 -1 5 -1zM150 403l-21 -14
q-6 -4 -2 -12q3 -3 7 -3q3 0 4 1l21 14q6 4 2 12q-6 7 -11 2zM102 370l-20 -14q-7 -6 -2 -11q1 -4 7 -4q2 0 4 2l20 14q7 4 2 11q-4 7 -11 2z" />
    <glyph glyph-name="brithday-party-caterers" unicode="V" 
d="M499 25h-486q-5 0 -9 -3.5t-4 -8.5q0 -13 13 -13h486q13 0 13 13q0 5 -4 8.5t-9 3.5zM63 50h386q19 0 32.5 14t13.5 33v184q0 5 -3.5 9t-8.5 4h-55v88q0 12 -13 12h-50q-12 0 -12 -12v-88h-59v88q0 12 -13 12h-50q-13 0 -13 -12v-88h-59v88q0 12 -12 12h-50
q-13 0 -13 -12v-88h-55q-5 0 -8.5 -4t-3.5 -9v-184q0 -20 13.5 -33.5t32.5 -13.5zM449 76h-386q-9 0 -15 6t-6 15v92q23 -20 46 -20q31 0 50 31q25 -36 59 -36q35 0 59 36q24 -36 59 -36q34 0 59 36q19 -31 50 -31q23 0 46 20v-92q0 -9 -6 -15t-15 -6zM378 369h25v-75h-25
v75zM243 369h26v-75h-26v75zM109 369h25v-75h-25v75zM42 269h428v-30q0 -15 -15.5 -30t-30.5 -15q-14 0 -26 14.5t-12 30.5q0 13 -12 13q-13 0 -13 -13q0 -18 -15.5 -34t-30.5 -16t-30.5 16t-15.5 34q0 5 -3.5 9t-8.5 4q-13 0 -13 -13q0 -18 -15 -34t-31 -16t-31 16t-15 34
q0 13 -13 13q-12 0 -12 -13q0 -16 -12 -30.5t-26 -14.5q-15 0 -30.5 14.5t-15.5 30.5v30h-1zM390 403q19 0 32.5 13.5t13.5 32.5q0 26 -37 59q-9 9 -18 0q-37 -37 -37 -59q0 -19 13.5 -32.5t32.5 -13.5zM390 481q21 -23 21 -32q0 -8 -6 -14.5t-15 -6.5q-8 0 -14.5 6.5
t-6.5 14.5q0 9 21 32zM256 403q19 0 32.5 13.5t13.5 32.5q0 25 -38 59q-8 9 -17 0q-37 -37 -37 -59q0 -19 13.5 -32.5t32.5 -13.5zM256 481q21 -23 21 -32q0 -8 -6 -14.5t-15 -6.5t-15 6.5t-6 14.5q0 9 21 32zM122 403q19 0 32.5 13.5t13.5 32.5q0 25 -38 59q-8 8 -17 0
q-38 -34 -38 -59q1 -19 14.5 -32.5t32.5 -13.5zM122 481q21 -23 21 -32q0 -8 -6.5 -14.5t-14.5 -6.5q-9 0 -15 6.5t-6 14.5q0 9 21 32z" />
    <glyph glyph-name="carpet-cleaning" unicode="W" 
d="M134 99q0 18 -13 30.5t-30 12.5q-18 0 -31 -12.5t-13 -30.5t13 -30.5t31 -12.5q17 0 30 12.5t13 30.5zM64 99q0 11 8 19t19 8t18.5 -8t7.5 -19t-7.5 -18.5t-18.5 -7.5t-19 7.5t-8 18.5zM47 215q8 0 8 8v176q0 9 -8 9q-9 0 -9 -9v-176q0 -8 9 -8zM224 331h189q8 0 8 9
q0 8 -8 8h-189q-9 0 -9 -8q0 -9 9 -9zM503 306q9 0 9 9q0 8 -9 8h-22v26h22q9 0 9 9q0 8 -9 8h-22v19q0 12 -13 12h-287v16q0 37 -26.5 63.5t-63.5 26.5q-38 0 -64.5 -26.5t-26.5 -63.5v-314q0 -37 27 -63.5t64 -26.5h377q13 0 13 13v36h23q8 0 8 9q0 8 -8 8h-23v26h23
q8 0 8 8q0 9 -8 9h-23v23h23q8 0 8 8q0 9 -8 9h-23v26h23q8 0 8 8q0 9 -8 9h-23v23h23q8 0 8 8t-8 8h-23v26h23q8 0 8 9q0 8 -8 8h-23v23h22zM26 413q0 27 19 45.5t45 18.5q27 0 46 -19t19 -45v-251q-26 28 -65 28q-38 0 -64 -28v251zM26 99q0 27 19 46t45 19q27 0 46 -19
t19 -46q0 -26 -19 -45t-46 -19q-26 0 -45 18.5t-19 45.5zM455 34h-302q28 28 28 65v273h274v-338z" />
    <glyph glyph-name="corporate-party-caterers" unicode="X" 
d="M500 363q-19 12 -38 6l-146 -46q-13 13 -26 13h-68q-13 0 -26 -13l-146 46q-19 6 -38 -6q-12 -9 -12 -23v-168q0 -14 12 -23q11 -8 25 -8q5 0 13 2l146 46q13 -13 26 -13h68q13 0 26 13l146 -46q8 -2 13 -2q14 0 25 8q12 9 12 23v168q0 14 -12 23zM42 167q-7 -2 -15 2
l-2 3v168q0 1 2 3q8 4 15 2l143 -45v-2v-29h-38q-13 0 -13 -13t13 -13h38v-29v-2zM290 201h-68q-3 0 -7.5 4.5t-4.5 8.5v84q0 4 4.5 8.5t7.5 4.5h68q3 0 7.5 -4.5t4.5 -8.5v-84q0 -4 -4.5 -8.5t-7.5 -4.5zM487 172q0 -2 -2 -3q-7 -4 -15 -2l-143 45v2v29h38q13 0 13 13
t-13 13h-38v29v2l143 45q7 2 15 -2l2 -3v-168z" />
    <glyph glyph-name="house-cleaning" unicode="Y" 
d="M499 49h-18v355q0 35 -25 59.5t-60 24.5h-51q-31 0 -54.5 -20.5t-28.5 -50.5h-18q-5 0 -8.5 -4t-3.5 -9v-98q-3 0 -10.5 0.5t-10.5 0.5h-151q-12 0 -12 -13v-55q-48 -36 -48 -96q0 -49 35 -84t85 -35q43 0 74 26h200q13 0 13 12v49q0 51 -25 95t-67 71v127q0 12 -13 12
h-15q5 20 21 33.5t37 13.5h51q25 0 42 -17.5t17 -41.5v-355h-19q-12 0 -12 -13q0 -12 12 -12h63q13 0 13 12q0 13 -13 13zM25 143q0 40 28 67.5t67 27.5t67 -27.5t28 -67.5q0 -39 -28 -66.5t-67 -27.5t-67 27.5t-28 66.5zM381 111v-36h-163q22 30 22 69q0 49 -35 84t-85 35
q-24 0 -47 -9v27h138q71 0 120.5 -49.5t49.5 -120.5zM290 290q-11 5 -33 11v90h33v-101zM120 224q-33 0 -57 -23.5t-24 -57.5q0 -33 23.5 -56.5t57.5 -23.5q33 0 56.5 23.5t23.5 56.5q0 34 -23.5 57.5t-56.5 23.5zM120 80q-26 0 -45 18.5t-19 44.5t19 45t45 19t45 -19
t19 -45t-19 -44.5t-45 -18.5z" />
    <glyph glyph-name="house-party-chef" unicode="Z" 
d="M413 452q-34 14 -64 1q-9 25 -33.5 42t-59.5 17t-59.5 -17t-33.5 -42q-30 13 -64 -1q-57 -22 -57 -87q0 -33 24.5 -54t59.5 -25v-273q0 -13 13 -13h234q13 0 13 13v273q35 4 59.5 25t24.5 54q0 65 -57 87zM151 25v59h210v-59h-210zM373 310q-12 0 -12 -12v-189h-42v72
q0 5 -4 8.5t-9 3.5q-12 0 -12 -12v-72h-25v88q0 13 -13 13q-12 0 -12 -13v-88h-25v72q0 5 -4 8.5t-9 3.5q-12 0 -12 -12v-72h-43v189q0 12 -12 12q-28 0 -50 15.5t-22 39.5q0 46 41 64q34 15 55 -6q6 -6 14 -3t8 12q0 21 20 37.5t51 16.5t51 -16.5t20 -37.5q0 -9 8 -12t14 3
q20 20 55 6q41 -18 41 -64q0 -24 -22 -39.5t-50 -15.5z" />
    <glyph glyph-name="tick" unicode="[" 
d="M180 50l-180 177l54 54l123 -122l279 303l56 -52z" />
    <glyph glyph-name="calendar-date" unicode="\" 
d="M492 463h-69v37q0 5 -4 8.5t-9 3.5h-65q-12 0 -12 -12v-37h-154v37q0 4 -3.5 8t-8.5 4h-65q-13 0 -13 -12v-37h-69q-12 0 -12 -12v-439q0 -12 12 -12h472q12 0 12 12v439q0 12 -12 12zM358 488h40v-74h-40v74zM114 488h40v-74h-40v74zM89 439v-37q0 -5 4 -8.5t9 -3.5h65
q12 0 12 12v37h154v-37q0 -4 3.5 -8t8.5 -4h65q13 0 13 12v37h57v-90h-448v90h57zM32 24v301h447v-301h-447zM402 260h-292q-8 0 -8 -8v-162q0 -9 8 -9h292q8 0 8 9v162q0 8 -8 8zM394 179h-81v65h81v-65zM297 179h-82v65h82v-65zM118 244h81v-65h-81v65zM118 163h81v-65
h-81v65zM215 163h82v-65h-82v65zM394 98h-81v65h81v-65z" />
    <glyph glyph-name="current-location-ios" unicode="]" 
d="M263 0h-3q-10 3 -10 13v252h-232q-10 0 -13 10q-1 9 7 14l477 222q8 3 14 -3t3 -14l-232 -487q-4 -7 -11 -7zM74 290h189q5 0 8.5 -4t3.5 -9v-209l193 405z" />
    <glyph glyph-name="salsa" unicode="^" 
d="M257 -2q-50 0 -90.5 30t-53.5 79q-5 21 7 36q12 17 33 17q32 0 41 -31q8 -25 29.5 -38t46.5 -7q19 4 32.5 17.5t17.5 33.5q6 30 -13 52q-19 23 -48 25q-54 1 -94.5 32t-52.5 79q-17 72 27 130q46 57 118 57q49 0 89 -30.5t54 -78.5q6 -19 -7 -37q-13 -16 -33 -16
q-32 0 -41 31q-7 25 -29 37.5t-47 7.5q-18 -4 -31.5 -17.5t-18.5 -31.5q-6 -31 13 -55q21 -24 51 -24q62 0 107 -45q44 -47 42 -108q-2 -58 -44 -100.5t-101 -44.5h-4zM155 134q-11 0 -15 -6q-5 -6 -3 -15q12 -41 46.5 -66.5t76.5 -23.5q49 1 84 36.5t36 83.5q3 52 -35 90
q-36 38 -88 38q-43 0 -70 33q-27 34 -18 76q5 26 24 45t44 24q35 7 65 -10.5t41 -52.5q4 -13 16 -13q9 0 14 7q5 6 3 14q-11 40 -44.5 65.5t-74.5 25.5q-60 0 -98 -48q-38 -47 -22 -108q10 -40 44 -65t79 -27q40 -2 67 -33q26 -34 18 -74q-5 -26 -24 -46t-45 -25
q-35 -8 -65 10t-40 52q-5 13 -16 13z" />
    <glyph glyph-name="empty-chats" unicode="_" 
d="M62 28q-2 0 -3 1q-3 1 -3 5v97h-26q-13 0 -21.5 9t-8.5 21v288q0 35 30 35h452q30 0 30 -35v-287q0 -13 -9 -21.5t-21 -8.5h-310l-106 -102q-2 -2 -4 -2zM30 471q-17 0 -17 -22v-287q0 -18 17 -18h32q6 0 6 -6v-89l97 93q4 2 5 2h312q7 0 12 5.5t5 12.5v287q0 22 -17 22
h-452z" />
    <glyph glyph-name="empty-requests" unicode="`" 
d="M428 443h-86q-4 0 -5 -3l-6 32q-2 5 -6 5h-20q-5 34 -49 34t-49 -34h-20q-4 0 -6 -5l-6 -32q-2 2 -5 2h-86q-2 1 -4 -1t-2 -5v-429q0 -6 6 -6h344q6 0 6 6v429q0 7 -6 7zM342 379q4 0 5 2q1 1 1 5l-2 10h2h33v-274h-60q-6 0 -6 -6v-60h-184v340h35l-2 -10q0 -4 1 -5
q4 -2 5 -2h172zM372 109l-45 -44v44h45zM192 465h21q6 0 6 6q0 28 37 28t37 -28q0 -6 6 -6h21l14 -74h-156zM422 13h-331v417h79q2 0 3 1l-5 -23h-43q-6 0 -6 -6v-352q0 -6 6 -6h193h2h1q4 0 5 2l65 65q2 2 2 6v2v283q0 6 -6 6h-39q-3 0 -4 -1l-5 24q1 -1 3 -1h79v-417h1z
" />
    <glyph glyph-name="back-arrow-stemless" unicode="a" 
d="M360 0l-249 256l249 256l41 -40l-210 -216l210 -216z" />
    <glyph glyph-name="ic-search" unicode="b" 
d="M204 104q-84 0 -144 59.5t-60 144.5q0 84 60 144t144 60q85 0 145 -60t60 -144q0 -85 -60 -144.5t-145 -59.5zM204 467q-66 0 -112.5 -46.5t-46.5 -112.5t47 -112.5t112 -46.5q66 0 113 46.5t47 112.5t-47 112.5t-113 46.5zM489 0q-8 0 -15 7l-157 157q-14 16 0 32
q16 14 32 0l156 -157q16 -16 0 -32q-6 -7 -16 -7z" />
    <glyph glyph-name="check-box-tick-hollow" unicode="c" 
d="M466 0h-420q-19 0 -32.5 13.5t-13.5 32.5v420q0 19 13.5 32.5t32.5 13.5h420q19 0 32.5 -13.5t13.5 -32.5v-420q0 -19 -13.5 -32.5t-32.5 -13.5zM46 487q-8 0 -14.5 -6.5t-6.5 -14.5v-420q0 -8 6.5 -14.5t14.5 -6.5h420q8 0 14.5 6.5t6.5 14.5v420q0 8 -6.5 14.5
t-14.5 6.5h-420zM207 110l-119 117l36 36l81 -80l185 200l36 -34z" />
    <glyph glyph-name="checkbox-selected" unicode="d" 
d="M466 512h-420q-19 0 -32.5 -13.5t-13.5 -32.5v-420q0 -19 13.5 -32.5t32.5 -13.5h420q19 0 32.5 13.5t13.5 32.5v420q0 19 -13.5 32.5t-32.5 13.5zM207 110l-119 117l35 36l82 -81l184 200l37 -34z" />
    <glyph glyph-name="checkbox-unselected" unicode="e" 
d="M466 0h-420q-19 0 -32.5 13.5t-13.5 32.5v420q0 19 13.5 32.5t32.5 13.5h420q19 0 32.5 -13.5t13.5 -32.5v-420q0 -19 -13.5 -32.5t-32.5 -13.5zM46 487q-8 0 -14.5 -6.5t-6.5 -14.5v-420q0 -8 6.5 -14.5t14.5 -6.5h420q8 0 14.5 6.5t6.5 14.5v420q0 8 -6.5 14.5
t-14.5 6.5h-420z" />
    <glyph glyph-name="close-cross" unicode="f" 
d="M281 256l226 226q13 12 0 25t-25 0l-226 -226l-226 226q-12 13 -25 0t0 -25l226 -226l-226 -226q-13 -12 0 -25q5 -5 12 -5q6 0 13 5l226 226l226 -226q7 -5 13 -5q7 0 12 5q13 13 0 25z" />
    <glyph glyph-name="cross-in-circle" unicode="g" 
d="M365 363q-9 9 -18 0l-92 -92l-92 92q-9 9 -18 0t0 -18l92 -92l-92 -91q-9 -9 0 -18q4 -4 9 -4q6 0 9 4l92 92l92 -92q3 -4 9 -4q5 0 9 4q9 7 0 18l-92 91l92 92q7 9 0 18zM256 512q-106 0 -181 -75t-75 -181t75 -181t181 -75t181 75t75 181t-75 181t-181 75zM256 25
q-95 0 -163 68t-68 163t68 163t163 68t163 -68t68 -163t-68 -163t-163 -68z" />
    <glyph glyph-name="edit-profile" unicode="h" 
d="M498 444l-55 54q-13 14 -33 14t-33 -14l-71 -70l-259 -259q-3 -3 -3 -6l-43 -147q-3 -6 3 -12q4 -4 9 -4h1l2 1l147 43q4 2 5 3l260 259l70 71q14 14 14 33q0 20 -14 34zM419 333l-86 86l20 20l86 -86zM90 49l-42 41l14 45l4 -6q4 -4 7 -4h52v-52q0 -4 4 -7l6 -4z
M130 142h-52l-9 13l246 246l37 -37zM40 62l22 -21l-31 -10zM155 69l-13 9v52l222 222l37 -37zM481 395l-31 -30l-86 86l30 30q7 6 16 6t15 -6l55 -55q16 -16 1 -31z" />
    <glyph glyph-name="hired-professional-recent-history" unicode="i" 
d="M441 419q-68 64 -160 59q-97 -3 -162 -79q-49 -59 -54 -133l-42 63q-8 11 -17 4q-11 -7 -4 -18l66 -99l2 -2l2 -2q1 0 2 -1h3l1 -1h1v1h1h3l1 1q2 1 4 3h1v1l77 87q8 10 -1 18q-10 9 -18 -1l-57 -65q2 75 48 127q57 68 144 71q81 3 142 -52q60 -57 63 -138t-53 -142
q-57 -60 -138 -63q-5 0 -8.5 -4t-3.5 -9q2 -12 13 -12q91 3 156 71q62 68 59 160t-71 155zM290 379q-13 0 -13 -12v-135h123q12 0 12 12q0 13 -12 13h-98v110q0 12 -12 12z" />
    <glyph glyph-name="log-in" unicode="j" 
d="M499 495h-268q-13 0 -13 -12v-85q0 -13 13 -13q12 0 12 13v72h244v-428h-244v80q0 13 -12 13q-13 0 -13 -13v-93q0 -12 13 -12h268q13 0 13 12v454q0 12 -13 12zM284 172q-9 -9 0 -18q4 -3 9 -3q6 0 9 4l101 109q0 2 1 2v1l1 1q1 1 1 3v2q0 3 -1 5q-2 2 -3 4l-100 100
q-9 9 -18 0q-8 -8 0 -18l79 -79h-350q-13 0 -13 -12q0 -13 13 -13h352z" />
    <glyph glyph-name="log-out" unicode="k" 
d="M281 127q-12 0 -12 -12v-73h-244v428h244v-80q0 -13 12 -13q13 0 13 13v93q0 12 -13 12h-268q-13 0 -13 -12v-453q0 -13 13 -13h268q13 0 13 13v85q0 5 -4 8.5t-9 3.5zM512 248q0 3 -1 5q-2 2 -3 4l-100 100q-9 9 -18 0t0 -18l79 -79h-351q-13 0 -13 -12q0 -13 13 -13
h352l-81 -88q-8 -9 1 -18q3 -3 9 -3q5 0 9 4l100 109l1 2l2 2v4q1 0 1 1z" />
    <glyph glyph-name="phone-call" unicode="l" 
d="M400 0q-26 0 -49 15q-203 133 -336 336q-17 26 -14 58.5t25 54.5l30 29q19 19 45.5 19t44.5 -19l55 -54q19 -19 19 -45.5t-19 -45.5l-10 -9q66 -79 147 -148l10 10q18 18 45.5 18t45.5 -18l54 -55q19 -19 19 -45t-19 -45l-30 -30q-26 -26 -63 -26zM101 486q-14 0 -27 -11
l-29 -30q-16 -16 -18.5 -38.5t10.5 -41.5q130 -198 328 -328q19 -13 41.5 -10.5t38.5 18.5l30 29q11 11 11 27t-11 27l-54 54q-11 11 -27 11t-27 -11l-18 -18q-9 -9 -18 -1q-92 76 -168 168q-8 9 1 18l18 18q11 11 11 27t-11 27l-54 54q-11 11 -27 11z" />
    <glyph glyph-name="radio-button-selected" unicode="m" 
d="M256 512q-106 0 -181 -75t-75 -181t75 -181t181 -75t181 75t75 181t-75 181t-181 75zM256 25q-95 0 -163 68t-68 163t68 163t163 68t163 -68t68 -163t-68 -163t-163 -68zM256 400q-60 0 -102 -42t-42 -102t42 -102t102 -42t102 42t42 102t-42 102t-102 42z" />
    <glyph glyph-name="radio-button-unselected" unicode="n" 
d="M256 0q-106 0 -181 75t-75 181t75 181t181 75t181 -75t75 -181t-75 -181t-181 -75zM256 487q-95 0 -163 -68t-68 -163t68 -163t163 -68t163 68t68 163t-68 163t-163 68z" />
    <glyph glyph-name="share" unicode="o" 
d="M427 171q-41 0 -67 -33l-194 91q5 13 5 27q0 13 -5 28l189 98q25 -40 72 -40q35 0 60 25t25 60t-25 60t-60 25t-60 -25t-25 -60q0 -8 2 -20l-191 -99q-26 33 -67 33q-36 0 -61 -25t-25 -60t25 -60t60 -25q42 0 68 34l194 -90q-6 -15 -6 -29q0 -36 25 -61t60 -25
t60.5 25.5t25.5 60.5t-25 60t-60 25zM427 485q24 0 41 -17t17 -41q0 -25 -17 -42t-41 -17q-25 0 -42 17t-17 42q0 24 17 41t42 17zM85 198q-24 0 -41 17t-17 41t17 41t41 17q25 0 42 -17t17 -41t-17 -41t-42 -17zM427 27q-25 0 -42 17t-17 41q0 25 17 42t42 17q24 0 41 -17
t17 -42q0 -24 -17 -41t-41 -17z" />
    <glyph glyph-name="tick-in-circle" unicode="p" 
d="M256 512q-106 0 -181 -75t-75 -181t75 -181t181 -75t181 75t75 181t-75 181t-181 75zM215 132l-101 99l30 31l69 -68l156 169l31 -29z" />
    <glyph glyph-name="apple-products-repair" unicode="q" 
d="M467 153q-26 10 -43 32.5t-18 50.5q-5 60 48 89l13 7l-9 11q-43 54 -102 54q-25 0 -53 -10q19 12 28 26q33 43 27 88l-2 11l-11 -1q-47 -3 -83 -44q-34 -42 -26 -86q-4 2 -12 4q-30 12 -55 12q-31 0 -61.5 -18t-50.5 -49q-30 -46 -22.5 -119.5t50.5 -138.5q49 -71 94 -72
h1q19 0 39 11q24 10 44 10q23 -1 44 -10q20 -11 40 -11q45 1 94 76q19 30 33 61l5 11zM281 452q21 26 54 34q0 -31 -22 -59t-55 -33q0 30 23 58zM422 89q-43 -65 -76 -65q-14 0 -30 8q-26 13 -53 13q-22 -1 -54 -13q-16 -8 -30 -8q-33 0 -74 61q-28 42 -39.5 88.5t-7.5 83
t19 60.5q37 56 92 56q17 0 47 -10q33 -11 47 -11q17 0 41 10q33 11 52 11q40 0 75 -35q-52 -37 -49 -103q5 -70 66 -99q-14 -28 -26 -47z" />
    <glyph glyph-name="appliance-repair" unicode="r" 
d="M457 512h-377q-13 0 -13 -13v-218q0 -12 13 -12h21v-42h-4q-13 0 -13 -13v-4h-71q-13 0 -13 -12q0 -13 13 -13h71v-21q0 -12 13 -12h29v-5q0 -5 4 -8.5t8 -3.5q5 0 9 3.5t4 8.5v4h29q13 0 13 13v50q0 13 -13 13h-4v42h42v-177h-205q-13 0 -13 -12v-67q0 -13 13 -13h486
q13 0 13 13v444q0 24 -15.5 39.5t-39.5 15.5zM168 176h-59v25h59v-25zM151 227h-25v42h25v-42zM25 67h206q12 0 12 13v201q0 13 -12 13h-139v193h365q30 0 30 -30v-29h-105q-13 0 -13 -13q0 -5 4 -8.5t9 -3.5h105v-25h-105q-13 0 -13 -13q0 -12 13 -12h105v-25h-105
q-13 0 -13 -13q0 -12 13 -12h105v-42h-88q-13 0 -13 -13v-222h-361v41zM411 25v210h76v-210h-76zM147 478q-19 0 -32.5 -13.5t-13.5 -32.5t13.5 -32.5t32.5 -13.5t32.5 13.5t13.5 32.5t-13.5 32.5t-32.5 13.5zM147 411q-9 0 -15 6.5t-6 14.5q0 9 6 15t15 6q8 0 14.5 -6
t6.5 -15q0 -8 -6.5 -14.5t-14.5 -6.5z" />
    <glyph glyph-name="birthday-planner" unicode="s" 
d="M331 92q-15 0 -26 -10.5t-11 -26.5q0 -13 -13 -13t-13 13v46h30q8 0 11 6t0 12l-24 43q6 4 7 5q34 25 55.5 43.5t46.5 58t25 79.5q0 68 -47.5 116t-115.5 48t-116 -48t-48 -116q0 -31 12 -59t36.5 -53t39 -37.5t39.5 -31.5q3 -1 7 -5l-23 -42q-3 -6 0 -13q3 -6 11 -6h29
v-46q0 -16 11 -27t27 -11t27 11t11 27q0 12 13 12q12 0 12 -12v-42q0 -13 13 -13q12 0 12 13v42q0 15 -11 26t-27 11zM250 175q-4 4 -16 12q-26 20 -38 30.5t-35 33.5t-33.5 47t-10.5 50q0 58 41 98.5t98 40.5t97.5 -40.5t40.5 -98.5q0 -34 -22.5 -68.5t-42 -51t-51.5 -40.5
q-7 -5 -17 -13q-8 -5 -3 -16l18 -33h-41l19 33q5 9 -4 16zM268 449q0 13 -12 13q-47 0 -80.5 -33.5t-33.5 -80.5q0 -12 13 -12t13 12q0 37 25.5 62.5t62.5 25.5q12 0 12 13z" />
    <glyph glyph-name="car-cleaning" unicode="t" 
d="M483 327h-18l-51 162q-2 8 -12 8h-292q-10 0 -12 -8l-51 -162h-18q-12 0 -20.5 -8.5t-8.5 -21.5v-153q0 -12 8.5 -21t20.5 -9h11v-55q0 -18 13 -31.5t32 -13.5h4q18 0 31.5 13t13.5 32v55h245v-55q0 -18 13 -31.5t31 -13.5h4q19 0 32 13t13 32v55h11q12 0 20.5 8.5
t8.5 21.5v153q0 13 -8.5 21.5t-20.5 8.5zM119 472h274l46 -145h-366zM108 59q0 -8 -5.5 -13.5t-13.5 -5.5h-4q-19 0 -19 19v56h43v-56h-1zM357 140h-202v41h202v-41zM447 59q0 -8 -6 -13.5t-14 -5.5h-4q-8 0 -13.5 5.5t-5.5 13.5v56h43v-56zM487 144q0 -4 -4 -4h-102v53
q0 12 -12 12h-226q-12 0 -12 -12v-53h-102q-4 0 -4 4v153q0 5 4 5h454q4 0 4 -5v-153zM430 281q-14 0 -24.5 -10.5t-10.5 -24.5q0 -15 10.5 -25t24.5 -10q15 0 25 10t10 25q0 14 -10 24.5t-25 10.5zM430 227q-7 0 -12.5 5.5t-5.5 13.5t5 13t13 5t13.5 -5t5.5 -13t-5.5 -13.5
t-13.5 -5.5zM82 281q-15 0 -25 -10.5t-10 -24.5q0 -15 10 -25t25 -10q14 0 24.5 10t10.5 25q0 14 -10.5 24.5t-24.5 10.5zM82 227q-8 0 -13.5 5.5t-5.5 13.5t5.5 13t13.5 5t13 -5t5 -13t-5.5 -13.5t-12.5 -5.5z" />
    <glyph glyph-name="carpenters" unicode="u" 
d="M508 349l-151 151q-9 9 -18 0q-18 -18 -41.5 -18t-41.5 18q-3 4 -9 4q-5 0 -9 -4l-25 -25q-9 -9 0 -18l83 -83l-292 -291q-4 -6 -4 -9q0 -6 4 -9l53 -53q3 -4 9 -4q5 0 8 4l291 293l50 -50q3 -3 9 -3q4 0 9 3l75 76q9 9 0 18zM66 39l-36 35l284 282l33 -33zM424 282
l-50 50l-51 51l-83 83l8 8q22 -17 49 -17t50 17l135 -134z" />
    <glyph glyph-name="chartered-accountant" unicode="v" 
d="M390 512h-268q-19 0 -32.5 -13.5t-13.5 -32.5v-420q0 -19 13.5 -32.5t32.5 -13.5h268q19 0 32.5 13.5t13.5 32.5v420q0 19 -13.5 32.5t-32.5 13.5zM411 46q0 -8 -6 -14.5t-15 -6.5h-268q-9 0 -15 6.5t-6 14.5v420q0 8 6 14.5t15 6.5h268q9 0 15 -6.5t6 -14.5v-420z
M374 462h-236q-5 0 -8.5 -4t-3.5 -9v-101q0 -4 4 -8t8 -4h236q4 0 8 4t4 8v101q0 5 -3.5 9t-8.5 4zM361 361h-210v75h210v-75zM340 374q8 0 8 8v33q0 9 -8 9t-8 -9v-33q0 -8 8 -8zM172 290h-34q-8 0 -8 -9q0 -8 8 -8h34q8 0 8 8q0 9 -8 9zM239 290h-33q-9 0 -9 -9q0 -8 9 -8
h33q9 0 9 8q0 9 -9 9zM273 273h33q9 0 9 8q0 9 -9 9h-33q-9 0 -9 -9q0 -8 9 -8zM374 290h-34q-8 0 -8 -9q0 -8 8 -8h34q8 0 8 8q0 9 -8 9zM172 222h-34q-8 0 -8 -8t8 -8h34q8 0 8 8t-8 8zM239 222h-33q-9 0 -9 -8t9 -8h33q9 0 9 8t-9 8zM273 206h33q9 0 9 8t-9 8h-33
q-9 0 -9 -8t9 -8zM374 222h-34q-8 0 -8 -8t8 -8h34q8 0 8 8t-8 8zM172 155h-34q-8 0 -8 -8q0 -9 8 -9h34q8 0 8 9q0 8 -8 8zM239 155h-33q-9 0 -9 -8q0 -9 9 -9h33q9 0 9 9q0 8 -9 8zM273 138h33q9 0 9 9q0 8 -9 8h-33q-9 0 -9 -8q0 -9 9 -9zM374 155h-34q-8 0 -8 -8
q0 -9 8 -9h34q8 0 8 9q0 8 -8 8zM172 88h-34q-8 0 -8 -8q0 -9 8 -9h34q8 0 8 9q0 8 -8 8zM239 88h-33q-9 0 -9 -8q0 -9 9 -9h33q9 0 9 9q0 8 -9 8zM374 88h-101q-9 0 -9 -8q0 -9 9 -9h100q9 0 9 9q0 8 -8 8z" />
    <glyph glyph-name="dj" unicode="w" 
d="M462 428v29q0 21 -13 38t-34 17t-33.5 -16.5t-12.5 -38.5v-29l-369 -1v-427h512v428h-50zM394 457q0 10 5 20t16 10q10 0 15.5 -10t5.5 -20v-63h-42v63zM487 25h-462v377l344 1v-34h34v-133l-42 -46l-25 25l-47 -47q-15 -15 -15 -36t15 -35q13 -15 35 -15q21 0 36 15
l47 47l-28 28l49 54v143h33v34h25v-378h1zM372 144l-29 -30q-7 -7 -18 -7t-18 7q-7 8 -7 18t7 18l30 29zM262 76q-20 -8 -48 -8q-61 0 -103.5 42.5t-42.5 103.5q0 60 42.5 103t103.5 43q47 0 85 -27.5t53 -71.5q4 -12 16 -7q12 3 8 16q-18 52 -62.5 83.5t-99.5 31.5
q-71 0 -121.5 -50t-50.5 -121t50.5 -121.5t121.5 -50.5q25 0 57 10q12 6 7 16q-3 12 -16 8zM214 277q-26 0 -44.5 -18.5t-18.5 -44.5t18.5 -44.5t44.5 -18.5t44.5 18.5t18.5 44.5q-1 26 -19.5 44.5t-43.5 18.5zM214 176q-16 0 -27 11t-11 27q0 15 11 26.5t27 11.5t27 -11
t11 -27q-1 -16 -12 -27t-26 -11zM214 236q-9 0 -15.5 -6.5t-6.5 -15.5t6.5 -15.5t15.5 -6.5t15.5 6.5t6.5 15.5t-6.5 15.5t-15.5 6.5z" />
    <glyph glyph-name="drivers" unicode="x" 
d="M256 512q-106 0 -181 -75t-75 -181t75 -181t181 -75t181 75t75 181t-75 181t-181 75zM256 25q-95 0 -163 68t-68 163t68 163t163 68t163 -68t68 -163t-68 -163t-163 -68zM256 466q-82 0 -142 -56t-67 -137q-1 -3 0 -7q0 -2 -0.5 -5t-0.5 -5q0 -87 62 -148.5t148 -61.5
q87 0 148.5 61.5t61.5 148.5t-61.5 148.5t-148.5 61.5zM256 449q76 0 131.5 -52t60.5 -126q-91 62 -202 62q-99 0 -180 -48q11 70 64.5 117t125.5 47zM69 211h4q1 0 3 -1h2q72 0 105 -39t39 -96v-9q-56 11 -98 50.5t-55 94.5zM237 64q0 8 -1 13q-6 62 -42.5 105t-115.5 43
h-4q-1 0 -2.5 0.5t-2.5 0.5h-1l-2 -1q-3 15 -3 31v9q84 52 183 52q111 0 203 -66q0 -14 -3 -26l-1 1h-2t-4 -0.5t-5 -0.5h-7q-68 0 -106 -44t-45 -103q-1 -5 -1 -14q-3 0 -9 -0.5t-10 -0.5q-13 0 -19 1zM290 66q0 6 1 10q6 55 40 94.5t96 39.5h8q2 0 4.5 0.5t3.5 0.5h1
q-13 -55 -55.5 -94.5t-98.5 -50.5zM289 255q0 14 -9.5 24t-23.5 10t-24 -10t-10 -24t10 -23.5t24 -9.5t23.5 10t9.5 23zM256 238q-7 0 -12 5t-5 12t5 12t12 5t12 -5t5 -12q-2 -17 -17 -17z" />
    <glyph glyph-name="electricians" unicode="y" 
d="M424 394h-71v105q0 13 -13 13t-13 -13v-105h-142v105q0 13 -13 13t-13 -13v-105h-71q-12 0 -12 -12q0 -13 12 -13h21v-155q0 -33 23.5 -56.5t56.5 -23.5h4v-37q0 -13 12 -13h38v-71q0 -13 13 -13q12 0 12 13v71h38q13 0 13 13v37h4q33 0 56 23.5t23 56.5v155h21
q13 0 13 13q0 12 -12 12zM294 109h-76v25h76v-25zM378 214q0 -22 -16 -38.5t-39 -16.5h-134q-23 0 -39 16t-16 39v155h244v-155z" />
    <glyph glyph-name="event-planner" unicode="z" 
d="M499 462h-71v37q0 13 -13 13h-67q-5 0 -8.5 -4t-3.5 -9v-37h-160v37q0 13 -12 13h-67q-13 0 -13 -13v-37h-71q-13 0 -13 -13v-436q0 -13 13 -13h486q13 0 13 13v436q0 13 -13 13zM361 487h42v-59h-42v59zM151 487v-59h-42v17q0 1 1 3v1q0 3 -1 4v34h42zM84 436v-21
q0 -5 4 -8.5t9 -3.5h67q4 0 8 3.5t4 8.5v21h160v-21q0 -12 12 -12h67q5 0 9 3.5t4 8.5v21h59v-75h-462v75h59zM25 25v311h462v-311h-462zM239 109h-29v155q0 9 -8 12q-7 4 -14 -3l-42 -42q-7 -9 0 -18q9 -9 18 0l21 21v-125h-30q-12 0 -12 -13q0 -12 12 -12h84q13 0 13 12
q0 13 -13 13zM365 277h-101q-5 0 -8.5 -4t-3.5 -9v-18q0 -5 3.5 -9t8.5 -4q13 0 13 13v6h70l-24 -59h-35q-13 0 -13 -13q0 -5 4 -8.5t9 -3.5h25l-26 -66q-5 -12 7 -16q2 -2 4 -2q8 0 12 8l30 76h11q13 0 13 12q0 13 -13 13h-1l27 66q2 8 -1 12q-4 6 -11 6z" />
    <glyph glyph-name="search" unicode="{" 
d="M495 18l-151 152q65 58 65 146q0 81 -57.5 138.5t-138.5 57.5t-138.5 -57.5t-57.5 -138.5q0 -82 57.5 -139.5t138.5 -57.5q60 0 111 35l153 -154zM34 316q0 74 52.5 126.5t126.5 52.5t126.5 -52.5t52.5 -126.5t-52.5 -126.5t-126.5 -52.5t-126.5 52.5t-52.5 126.5z" />
    <glyph glyph-name="empty-hired-professionals" unicode="|" 
d="M506 383h-142q-3 39 -31 65.5t-68 26.5t-68 -26.5t-30 -65.5h-161q-6 0 -6 -7v-332q0 -7 6 -7h499q7 0 7 7v332q0 7 -6 7zM265 462q35 0 59.5 -22.5t26.5 -57.5h-172q3 35 27.5 57.5t58.5 22.5zM499 370v-117h-191v31q0 6 -6 6h-74q-6 0 -6 -6v-31h-209v117h486zM235 278
h61v-80h-61v80zM13 50v191h209v-50q0 -6 6 -6h74q6 0 6 6v50h191v-191h-486z" />
    <glyph glyph-name="uc-wordmark" unicode="}" 
d="M0 304h16v-47q0 -7 2 -11q4 -7 12 -7q10 0 13 7q2 4 2 11v47h16v-47q0 -12 -4 -19q-7 -12 -27 -12t-27 12q-3 8 -3 20v46zM104 286h1v-15h-3h-1q-9 0 -12 -6q-2 -4 -2 -10v-27h-15v57h14v-10q3 5 6 7q4 4 11 4h1zM161 278q7 -10 7 -21q0 -13 -6 -22q-9 -9 -18 -9
q-6 0 -11 3q-3 1 -6 6v-7h-14v76h14v-27q3 5 6 6q5 3 11 3q11 0 17 -8zM149 244q3 4 3 12q0 7 -1 10q-5 7 -11 7q-8 0 -11 -7q-2 -3 -2 -10q0 -8 3 -12q3 -5 10 -5q6 0 9 5zM199 263q5 0 6 1q3 2 3 4q0 4 -2 5t-7 1t-8 -3q-2 -2 -2 -5h-14q0 6 4 12q6 8 20 8q10 0 17 -4
q7 -3 7 -14v-25v-7q0 -3 1 -4t2 -1v-3h-16q-1 2 -1 4q-1 1 -1 3q-4 -4 -7 -5q-5 -3 -11 -3q-8 0 -13 4q-5 5 -5 12q0 10 8 15q4 2 13 4zM208 256l-2 -2h-2l-2 -1h-4q-4 -1 -6 -3q-4 -1 -4 -6q0 -3 2 -5q4 -2 5 -2q5 0 9 3t4 10v6zM280 281q6 -5 6 -15v-38h-15v35q0 4 -2 6
q-2 5 -8 5q-7 0 -10 -7q-2 -4 -2 -8v-31h-14v56h14v-8q2 3 5 6q5 4 12 4t14 -5zM306 296q9 10 23 10q19 0 28 -13q5 -5 5 -14h-15l-4 8q-4 5 -13 5t-13 -7q-5 -7 -5 -19t5 -20q6 -6 13 -6q8 0 13 5q3 7 4 9h15q-2 -13 -10 -20q-10 -8 -22 -8q-16 0 -25 11t-9 29q-1 19 10 30
zM388 228h-15v76h15v-76zM423 263q4 0 6 1q3 2 3 4q0 4 -3 5q-1 1 -7 1q-5 0 -8 -3q-1 -1 -1 -2q-1 -2 -1 -3h-14q2 9 4 12q6 8 21 8q9 0 16 -4q7 -3 7 -14v-25v-7v-2l1 -2q1 -1 2 -1v-3h-16q-1 2 -1 4t-1 3q-4 -4 -7 -5q-4 -3 -11 -3q-8 0 -12 4q-5 4 -5 12q0 11 7 15
q5 2 14 4zM432 256l-1 -1q-1 -1 -2 -1h-2q-1 -1 -2 -1h-3q-6 -2 -7 -3q-4 -2 -4 -6q0 -3 2 -5q4 -2 6 -2q5 0 9 3q4 4 4 10v6zM505 278q7 -6 7 -21t-7 -23q-6 -7 -17 -7q-6 0 -11 3q-3 2 -5 5v-29h-15v79h14v-9q2 3 5 6q5 4 12 4q9 0 17 -8zM494 268q-3 5 -10 5q-8 0 -11 -8
q-1 -2 -1 -10q0 -10 5 -14q4 -2 7 -2q7 0 10 5q3 4 3 12t-3 12z" />
    <glyph glyph-name="facebook" unicode="~" 
d="M374 256h-76v-256h-106v256h-64v87h64v54q0 58 25.5 86.5t90.5 28.5h75v-84h-47q-25 0 -31.5 -7.5t-6.5 -27.5v-50h86z" />
    <glyph glyph-name="onehalf" unicode="&#xbd;" 
d="M213 224q0 18 12.5 30.5t30.5 12.5t30.5 -12.5t12.5 -30.5t-12.5 -30.5t-30.5 -12.5t-30.5 12.5t-12.5 30.5z" />
    <glyph glyph-name="threequarters" unicode="&#xbe;" 
d="M286 224l76 -75l-31 -31l-75 76l-75 -76l-31 31l76 75l-76 75l31 31l75 -76l75 76l31 -31z" />
    <glyph glyph-name="questiondown" unicode="&#xbf;" 
d="M213 117l-106 103l30 29l76 -74l162 156l30 -29z" />
    <glyph glyph-name="Agrave" unicode="&#xc0;" 
d="M418 258v46q0 14 -10 24t-24 10h-256q-14 0 -24 -10t-10 -24v-46h324zM418 246h-324v-6q0 -14 10 -24t24 -10h256q14 0 24 10t10 24v6zM128 350h256q19 0 32.5 -13.5t13.5 -32.5v-64q0 -19 -13.5 -32.5t-32.5 -13.5h-256q-19 0 -32.5 13.5t-13.5 32.5v64q0 19 13.5 32.5
t32.5 13.5zM220 294q-6 0 -6 6t6 6h72q6 0 6 -6t-6 -6h-72zM382 294q-5 0 -8.5 3.5t-3.5 8.5t3.5 8.5t8.5 3.5t8.5 -3.5t3.5 -8.5t-3.5 -8.5t-8.5 -3.5zM154 170q-4 -14 8 -27q11 -13 11 -23q0 -21 -18 -30q-1 -1 -2 -1q-4 0 -6 4q-2 5 3 7q11 6 11 20q0 6 -8 15
q-16 17 -10 38q1 5 7 4q5 -2 4 -7zM223 170q-4 -14 8 -27q11 -13 11 -23q0 -21 -18 -30q-1 -1 -2 -1q-4 0 -5 4q-3 5 2 7q11 6 11 20q0 6 -8 15q-16 17 -10 38q1 5 7 4q5 -2 4 -7zM292 170q-4 -15 8 -27q11 -13 11 -23q0 -21 -17 -30q-2 -1 -3 -1q-3 0 -5 4q-2 5 3 7
q11 6 11 20q0 6 -8 15q-16 17 -11 38q2 5 7 4q6 -2 4 -7zM361 170q-3 -14 9 -27q11 -13 11 -23q0 -21 -18 -30q-1 -1 -3 -1q-3 0 -5 4q-2 5 3 7q11 6 11 20q0 6 -8 15q-16 17 -11 38q2 5 7 4q6 -2 4 -7z" />
    <glyph glyph-name="Aacute" unicode="&#xc1;" 
d="M70 341h379q7 0 7 -7v-320q0 -5 -4 -8.5t-9 -3.5h-367q-6 0 -9.5 3.5t-3.5 8.5v320q0 7 7 7zM442 328h-365v-313h365v313zM63 336l23 89l7 -2l-7 2q2 5 7 5h333q5 0 6 -5l23 -89q2 -6 -4.5 -7.5t-8.5 4.5l-22 84h-322l-22 -84q-1 -6 -7.5 -4.5t-5.5 7.5zM259 312
q59 0 101 -41t42 -99t-42 -99t-101 -41t-101 41t-42 99t42 99t101 41zM351 261q-38 37 -91.5 37t-91.5 -37t-38 -89.5t38 -89.5t91.5 -37t91.5 37t38 89.5t-38 89.5zM259 202q13 0 22.5 -9t9.5 -21.5t-9.5 -21.5t-22.5 -9t-22 9t-9 21.5t9 21.5t22 9zM272 184q-5 5 -12.5 5
t-13 -5t-5.5 -12.5t5.5 -12.5t13 -5t12.5 5t5 12.5t-5 12.5zM238 189q-21 63 -3 76v0q26 20 62 6q8 -3 13 -8q6 -4 8 -10q3 -10 -7 -18h-1q-32 -24 -36 -42q-2 -7 -8.5 -5t-5.5 8q6 22 42 50h1v0q2 2 2 3q-1 2 -4 4q-3 3 -9 5q-29 12 -48 -3l-1 -1l-4 6l4 -6q-10 -7 8 -61
q2 -6 -4.5 -8.5t-8.5 4.5zM277 192q64 20 78 3v0q21 -26 6 -60q-4 -7 -8 -12q-5 -6 -11 -8q-10 -3 -17 6h-1q-25 32 -43 37q-7 1 -5 7.5t8 4.5q23 -5 51 -40v-1v0q2 -2 3 -1q2 0 5 3q3 4 5 9q12 27 -4 47l5 4l-5 -4q-8 10 -63 -7q-6 -2 -8.5 4t4.5 8zM281 154q20 -63 2 -76
v0q-26 -21 -61 -6q-8 3 -13 8q-6 5 -8 10q-3 10 7 18v0q32 24 37 42q2 7 8.5 5t4.5 -8q-6 -22 -42 -50v0v0q-2 -1 -2 -3q1 -2 4 -4q4 -3 9 -6q28 -11 48 4v1l4 -6l-4 6q10 7 -7 61q-2 6 4 8.5t9 -4.5zM242 151q-65 -20 -78 -3v0q-21 26 -6 60q3 7 7 12q6 6 11 8q11 3 18 -6
v0q25 -32 43 -37q7 -1 5.5 -7.5t-8.5 -4.5q-22 5 -50 41h-1v0q-1 2 -3 1q-2 0 -4 -3q-3 -4 -6 -9q-11 -27 4 -46q0 -1 1 -1l-6 -4l6 4q7 -10 62 7q7 2 9 -4t-4 -8zM136.5 402q9.5 0 16.5 -7t7 -16.5t-7 -16t-16.5 -6.5t-16.5 6.5t-7 16t7 16.5t16.5 7zM143.5 385.5
q-2.5 2.5 -6.5 2.5t-7 -2.5t-3 -6.5t3 -7t7 -3t6.5 3t2.5 7t-2.5 6.5zM209 397q8 0 13.5 -5.5t5.5 -13t-5.5 -13t-13.5 -5.5t-13.5 5.5t-5.5 13t5.5 13t13.5 5.5zM212.5 382.5q-1.5 1.5 -3.5 1.5t-3.5 -1.5t-1.5 -3.5t1.5 -3.5t3.5 -1.5t3.5 1.5t1.5 3.5t-1.5 3.5zM347 386
h35q7 0 7 -7t-7 -7h-35q-7 0 -7 7t7 7z" />
    <glyph glyph-name="Acircumflex" unicode="&#xc2;" 
d="M174 323h282q15 0 25.5 -10.5t10.5 -25t-10.5 -25t-25.5 -10.5h-39v-144h11q8 0 8 -8t-8 -8h-38q-8 0 -8 8t8 8h11v144h-285v-144h11q9 0 9 -8t-9 -8h-38q-8 0 -8 8t8 8h11v144h-39q-15 0 -25.5 10.5t-10.5 24.5q0 13 8 22.5t20 12.5q-4 7 -4 16v4q0 13 9 22t22 9h67
q13 0 22.5 -9t9.5 -22v-4q0 -8 -5 -15zM60 338q4 -17 20 -17h67q18 0 20 17q1 8 -2 13.5t-7.5 7.5t-10.5 2h-67q-9 0 -15.5 -6t-4.5 -17zM456 264q10 0 17.5 7t7.5 16.5t-7.5 16.5t-17.5 7h-395q-10 0 -17 -7t-7 -17q0 -6 3 -11.5t8.5 -8.5t12.5 -3h395z" />
    <glyph glyph-name="Atilde" unicode="&#xc3;" 
d="M256 87q49 0 84 35t35 84t-35 84t-84 35q-32 0 -59.5 -16t-43.5 -43.5t-16 -59.5t16 -59.5t43.5 -43.5t59.5 -16zM256 358q31 0 59.5 -12t49 -32.5t33 -48.5t12.5 -59q0 -63 -45 -108t-109 -45t-109 45t-45 108t45 107.5t109 44.5zM265 291v-89l68 -41l-13 -20l-81 48
v102h26zM186 369l-79 -66l-22 26l79 66zM427 329l-22 -26l-79 66l22 26z" />
    <glyph glyph-name="Adieresis" unicode="&#xc4;" 
d="M436 229l25 -49q4 -8 1 -16t-11 -12l-49 -25l-10 -53q-2 -9 -9 -14t-16 -4l-56 8l-40 -37q-7 -7 -16 -7t-16 7l-40 37l-55 -8q-9 -1 -16.5 4t-8.5 14l-10 53l-50 25q-8 4 -11 12t1 16l25 49l-25 48q-3 8 -0.5 16t10.5 12l50 26l10 52q1 9 8.5 14t16.5 4l55 -8l40 38
q7 6 16 6t16 -6l40 -38l56 8q8 1 15.5 -4t9.5 -14l10 -52l49 -26q8 -3 11 -11.5t-1 -16.5zM302 325l-125 -161q-5 -5 -4 -12.5t6.5 -12t13 -3.5t11.5 7l126 161q4 5 3 12.5t-6.5 11.5t-12.5 3.5t-12 -6.5zM303 134q11 0 18.5 7.5t7.5 18.5t-7.5 18.5t-18.5 7.5t-18.5 -7.5
t-7.5 -18.5t7.5 -18.5t18.5 -7.5zM199 273q11 0 18.5 7.5t7.5 18t-7.5 18.5t-18.5 8t-18.5 -8t-7.5 -18.5t7.5 -18t18.5 -7.5z" />
    <glyph glyph-name="Aring" unicode="&#xc5;" 
d="M426 311q56 -100 39 -199q-4 -28 -13 -42q6 36 -10 60t-48 49q-13 11 -30.5 23t-35 25t-30.5 23q-52 39 -67 83q-6 19 -5 31q0 7 -2.5 8.5t-8.5 0.5q-38 -8 -51 -45q-25 -73 19 -137q14 -20 34.5 -23t40.5 13q30 24 37 63q16 -16 51.5 -40.5t51.5 -39.5q38 -39 34 -79
q-4 -43 -28 -73q-1 -1 -1 1.5t-1 8t-3.5 12t-8.5 14t-15.5 14.5t-25.5 13.5t-36 10.5q-63 11 -43 83q-21 -8 -22 -8q-28 -7 -50 9q-11 7 -10 -5q0 -2 -1 -4.5t-1 -3.5q-9 -63 -67 -81q-52 -15 -73 -51l-3 -1q12 39 53 57q48 20 63 32q-41 20 -56 69q-22 73 5 152
q12 35 32 59q29 36 75 39q63 6 102 -14q67 -33 109 -107z" />
    <glyph glyph-name="AE" unicode="&#xc6;" 
d="M229 332q0 82 17 105q39 -21 39 -38q0 -8 -3.5 -9t-6.5 1l-4 3q-18 15 -23 34q6 -36 26 -44q10 -3 12 8v-57l-0.5 -0.5t-2 -1.5t-3.5 -2t-5 -2t-6.5 -2t-7.5 -1t-9 0.5t-11 2t-12 3.5zM228 331l-3 -4q0 -4 9 -7h2q13 -4 34 -2q6 0 11 2q3 2 7 5t3 5h1.5t1.5 -2.5t1 -7.5
l2 -91q-3 -6 -17 -8l1 93l-1 3q-9 1 -9 -2l-1 -95q-42 -3 -48 9v94q-2 4 6 8zM208 196q-8 -8 2 -13q24 -12 64 -9q11 1 20.5 4t13.5 6l4 2q6 6 -2 10l4 -3q3 -4 2 -16v-140q-1 -2 -4.5 -5.5t-14.5 -10t-23 -9.5t-31.5 0.5t-39.5 15.5v158q-1 6 5 10zM217 233q-1 -1 -1 -2.5
t4.5 -6t15.5 -6.5q8 -2 17 -2.5t16 0.5t13 2t10 2l3 1q8 5 8 7l-1 5l1 -0.5t2 -4t1 -8.5v-31q-8 -7 -24 -9v37q-9 -2 -11 -2l-1 -37q-49 -1 -58 11v33q-1 9 5 11z" />
    <glyph glyph-name="Ccedilla" unicode="&#xc7;" 
d="M208 165q34 4 60 21.5t38.5 39t20.5 43t10 35.5l2 14q0 -2 0.5 -7.5t4 -20t8.5 -28t15 -30.5t23 -30t34 -23.5t45 -13.5q-24 -4 -45 -14t-34 -24t-23 -29.5t-15 -31t-8.5 -28t-4.5 -20.5v-7q-1 1 -1 4.5t-2 13t-4.5 19t-7.5 22.5t-11.5 24.5t-17 23.5t-22.5 21t-29 16
t-36 10zM43 325q30 0 53 11.5t33.5 28t16 33t6.5 28.5l1 11q0 -4 0.5 -11.5t6.5 -27t16.5 -34t33 -27t53.5 -12.5q-31 0 -53.5 -11.5t-33 -28t-16.5 -32.5t-7 -28v-11q0 4 -1 11.5t-6.5 27t-16 34t-33.5 26.5t-53 12z" />
    <glyph glyph-name="Egrave" unicode="&#xc8;" 
d="M297 68v90q0 5 3.5 8t8 3t7.5 -3t3 -8v-112q0 -6 -6 -9t-11 1l-50 38l-51 -38q-5 -4 -11 -1t-6 9v112q0 3 1.5 5.5t4 4t5.5 1.5q4 0 7.5 -3t3.5 -8v-90l39 29q7 5 13 0zM251.5 157q51.5 0 88 36t36.5 86.5t-36.5 86.5t-87.5 36q-34 0 -63 -16.5t-45.5 -44.5t-16.5 -61
q0 -51 36.5 -87t88 -36zM251.5 136q-60.5 0 -103 42t-42.5 101.5t42.5 101.5t103.5 42q39 0 72.5 -19t53 -52t19.5 -72q0 -60 -42.5 -102t-103 -42zM300 320q8 8 15.5 0.5t0.5 -14.5l-63 -67q-8 -9 -16 0l-27 31q-7 8 0.5 15t15.5 -1l20 -22z" />
    <glyph glyph-name="Eacute" unicode="&#xc9;" 
d="M123 182h128v-121h-96q-9 0 -16.5 4t-11.5 11t-4 15v91zM283 182h128v-91q0 -12 -9.5 -21t-22.5 -9h-96v121zM395 298q13 0 22.5 -9.5t9.5 -22.5v-48h-144v64h-32v-64h-144v48q0 7 2.5 13t6.5 10t10 6.5t13 2.5h49q-11 7 -19 14q-14 15 -14 34.5t14 34.5q13 13 33.5 13
t34.5 -13q27 -27 30 -82l-1 -1h1v1q3 55 30 82q13 13 33.5 13t34.5 -13q14 -15 14 -35t-14 -34q-8 -7 -20 -14h50zM301 317q29 6 41 18q11 11 0 23q-5 5 -11.5 5t-11.5 -5q-12 -12 -18 -41zM191 335q12 -12 41 -18q-6 29 -18 41q-5 5 -11.5 5t-11.5 -5q-11 -12 0 -23z" />
    <glyph glyph-name="Ecircumflex" unicode="&#xca;" 
d="M256 224h82q4 0 7 -3t3 -8q0 -10 -10 -10h-93q-4 0 -7 3t-3 7v107q0 4 3 7.5t7.5 3.5t7.5 -3.5t3 -7.5v-96zM415 223q0 32 -12.5 61.5t-33.5 51t-50.5 34t-61.5 12.5q-66 0 -112.5 -46.5t-46.5 -112.5q0 -43 21.5 -79.5t58 -57.5t79.5 -21q65 0 111.5 46.5t46.5 111.5z
M437 223.5q0 -74.5 -53 -127.5t-127.5 -53t-127 53t-52.5 127.5t52.5 127t127 52.5t127.5 -52.5t53 -127z" />
    <glyph glyph-name="Edieresis" unicode="&#xcb;" 
d="M165 348h94h108q5 0 9 -4t4 -8.5t-4 -8t-9 -3.5h-49h-8l5 -7q10 -14 13 -31l1 -4h38q5 0 9 -3.5t4 -8t-4 -8.5t-9 -4h-35h-3l-1 -3q-5 -27 -24.5 -44.5t-44.5 -17.5h-58l108 -93q9 -8 1 -17t-17 -1l-133 114q-7 5 -4 13t11 8h55h13h24q12 0 24.5 10.5t18.5 24.5l2 6h-136
q-3 0 -6 1.5t-5 4.5t-2 6q0 4 3.5 8t8.5 4h79h8h44h6l-2 6q-6 15 -18.5 25.5t-24.5 10.5h-91q-5 -1 -9.5 2.5t-5 8t3 8.5t8.5 5z" />
    <glyph glyph-name="Igrave" unicode="&#xcc;" 
d="M304 85q0 -9 -6 -15t-15 -6h-54q-9 0 -15 6t-6 15v54q0 9 6 15t15 6h54q9 0 15 -6t6 -15v-54zM283 85v54h-54v-54h54zM192 85q0 -9 -6 -15t-15 -6h-54q-9 0 -15 6t-6 15v54q0 9 6 15t15 6h54q9 0 15 -6t6 -15v-54zM171 85v54h-54v-54h54zM283 176h-54q-9 0 -15 6t-6 15
v54q0 9 6 15t15 6h54q9 0 15 -6t6 -15v-54q0 -9 -6 -15t-15 -6zM283 251h-54v-54h54v54zM341 288q-9 0 -15 6t-6 15v54q0 9 6 15t15 6h54q9 0 15 -6t6 -15v-54q0 -9 -6 -15t-15 -6h-54zM341 309h54v54h-54v-54zM416 197q0 -9 -6 -15t-15 -6h-54q-9 0 -15 6t-6 15v54
q0 9 6 15t15 6h54q9 0 15 -6t6 -15v-54zM395 197v54h-54v-54h54zM416 85q0 -9 -6 -15t-15 -6h-54q-9 0 -15 6t-6 15v54q0 9 6 15t15 6h54q9 0 15 -6t6 -15v-54zM395 85v54h-54v-54h54z" />
    <glyph glyph-name="Iacute" unicode="&#xcd;" 
d="M96 380l8 2q150 37 304 0l8 -2v-187q0 -43 -30 -75q-55 -58 -126 -90l-4 -2l-5 3q-70 35 -123 88q-32 33 -32 77v186zM117 364v-170q0 -36 26 -62q49 -49 113 -82q64 30 114 82q25 26 25 61v171q-140 31 -278 0zM352 272l-106 -102q-4 -4 -9.5 -4t-9.5 4l-50 45
q-10 10 -0.5 19t19.5 0l40 -36l96 92q10 10 19.5 0.5t0.5 -18.5z" />
    <glyph glyph-name="Icircumflex" unicode="&#xce;" 
d="M115 238q70 71 127 127q19 19 46 19h68q28 0 28 -27v-18v-17v-36q-1 -25 -17 -42q-45 -44 -129 -129q-18 -18 -35 -1q-48 48 -88 89q-18 17 0 35zM320 299q9 0 15 6t6 15q0 6 -2.5 11t-7.5 7.5t-11 2.5q-9 0 -15 -6t-6 -15t6 -15t15 -6z" />
    <glyph glyph-name="Idieresis" unicode="&#xcf;" 
d="M267 437q30 0 63 -18.5t62 -51t48 -83t19 -106.5q0 -54 -25 -91.5t-73.5 -56.5t-118.5 -19q-86 0 -137.5 38t-51.5 102q0 30 19 68.5t37 63.5t53 68q30 38 42 55q22 31 63 31zM242 39q38 0 70 7t61 22.5t44 47t12 74.5q-9 104 -56.5 160t-105.5 56q-33 0 -49 -22
q-2 -4 -17 -26t-24 -33q-4 -6 -17 -21.5t-18.5 -22.5t-13 -18.5t-11.5 -20.5q-17 -33 0 -64q7 -13 20.5 -18t39.5 -9q57 -7 89.5 -0.5t55.5 27.5q13 12 17.5 25.5t4.5 39.5h25q0 -58 -34 -88q-37 -33 -111 -33q-28 0 -61 4q-52 7 -72 45q-5 8 -8 -7l-1 -13q0 -112 160 -112z
" />
    <glyph glyph-name="Eth" unicode="&#xd0;" 
d="M307 281q4 0 7.5 -2t5.5 -5.5t2 -7.5q1 -5 -4 -9.5t-11 -4.5h-23q-7 0 -11 4t-5 10q0 6 5 10.5t11 4.5h23zM342 243q0 6 4.5 10t11 4.5t11 -4t4.5 -10.5v-1v-33v-56v-39v-3q0 -15 -13 -24q-7 -4 -26 -4h-45q-6 0 -10.5 4.5t-4.5 10.5v28q0 6 4.5 10.5t10.5 4.5h19
q-8 -7 -16 -15v28q0 -1 0.5 -2t0.5 -2q-1 7 -4 13l2 -4q-2 5 -5 8l-1 2v-1q0 1 -1 2t-1 2q-2 1 -4 3h-1l-1 1h1q-5 3 -10 5q1 0 2.5 -1l1.5 -1q-6 3 -14 4h2.5t1.5 -1q-6 1 -13 0q1 1 2 1h2q-6 -1 -13 -3q3 1 4 1q-5 -2 -9 -5l-1 -0.5l-1 -0.5l1 1q-2 -1 -4 -3t-3 -4v1
l-0.5 -1l-0.5 -1q-3 -4 -5 -8q1 0 1.5 1.5l0.5 1.5q-3 -6 -4 -13q0 1 0.5 2.5l0.5 1.5q-1 -3 -1 -28l-15 15h20q6 0 10.5 -4.5t4.5 -10.5v-28q0 -6 -4.5 -10.5t-10.5 -4.5h-4h-46h-2.5h-2.5q-14 0 -22 10q-8 8 -8 18v3v34v50v38q0 26 6 43q15 39 51 60q38 22 83 14
q40 -7 66 -37q28 -32 28 -73q0 -6 -4.5 -10.5t-10.5 -4.5t-11 4.5t-5 10.5v13v-2v-2q-2 13 -7 25q0 -1 0.5 -2t1.5 -2q-4 9 -10 17q0 1 -2 3l-1 1l-7 7t-7 6q0 1 -0.5 1t-0.5 1v-1q-2 2 -4 3q-8 5 -17 9l4 -2q-12 5 -26 7h2.5t1.5 -1q-13 2 -27 0q1 1 2.5 1h1.5
q-13 -2 -26 -7q1 0 2 0.5t2 1.5q-9 -4 -17 -9q-3 -2 -4 -3v1q0 -1 -0.5 -1.5t-1.5 -0.5q-4 -3 -7 -6l-7 -7l-0.5 -0.5t-0.5 -1.5l1 1q-3 -3 -3 -4q-5 -7 -10 -16q1 1 2 3q-5 -12 -7 -25v2.5t1 1.5q-1 -6 -1 -24v-73v-33v-15l-0.5 1.5t-0.5 2.5q0 -2 1 -4q-1 2 -1 4l0.5 -1
l0.5 -1h-1q1 0 2 -1l-1.5 1.5l-0.5 0.5l2 -1q-3 1 -4 1q2 -1 5 -1h-2.5t-1.5 1q1 -1 7 -1h49q-3 -2 -5.5 -4.5t-5.5 -5t-5 -4.5v28q8 -7 16 -15h-20q-4 0 -7.5 2t-6 5.5t-2.5 7.5q0 25 1 32q5 30 33 45q35 20 69 0q31 -18 32 -54q1 -1 1 -23q0 -6 -5 -10.5t-11 -4.5h-19
q8 8 16 15v-28l-16 14h8h30q18 0 20 1q-1 -1 -2.5 -1h-1.5q1 0 3 1l-4 -2q0 1 1 1h1h-1l-1 -1l0.5 0.5t0.5 1.5q0 -1 -0.5 -2t-0.5 -2q1 2 1 4v-2l-1 -2v18v71v45zM284 381q0 6 4.5 10t10.5 5q6 0 11 -4.5t5 -10.5q-1 -21 -16 -37q-12 -14 -30.5 -17t-35.5 4q-15 6 -25 20
q-11 15 -9 33q1 19 14 34q11 13 28.5 17.5t33.5 -1.5q17 -6 29 -20q11 -14 11 -33q0 -4 -2 -7.5t-6 -5.5t-8 -2q-6 0 -10.5 4.5t-4.5 10.5q0 3 -1 6q1 -1 1 -2v-2q-1 5 -3 10q1 -1 2 -3q-2 4 -4 7l-0.5 0.5l-0.5 0.5v-1q-1 2 -2 3q-1 0 -2 1l-1 1l1 -1l-2 2q-3 2 -6 3
q1 -1 3 -1q-5 2 -11 3q1 -1 2.5 -1h1.5q-5 1 -11 0h1.5t2.5 1q-6 -1 -11 -3q3 1 4 1q-4 -1 -7 -4h-1.5h-0.5h1q-2 -1 -3 -2q0 -1 -1 -2l-1 -1l1 1l-2 -2q-2 -3 -3 -6l0.5 1.5l0.5 1.5q-2 -4 -3 -10l1 2v2q-1 -5 0 -11q0 1 -0.5 2.5l-0.5 1.5q1 -5 3 -11q-1 2 -1 4q1 -4 4 -7
l1 -2l-1 1q2 -2 3 -2q1 -2 3 -3l-2 1l2 -1q3 -2 7 -4q-2 1 -3 2q5 -2 10 -3h-2.5t-1.5 1q6 -1 12 0q-1 -1 -2.5 -1h-1.5q5 1 10 3l-4 -2q4 2 7 4l2 1l-1 -1l3 3l3 3l-1 -2q0 2 1 2q2 3 4 7l-2 -4q2 6 3 11v-1.5v-2.5v5zM274 126q0 6 4.5 10.5t10.5 4.5q7 0 11.5 -4.5
t4.5 -10.5v-1v-11v-11v-11.5v-10.5v-10v-11t-1 -9.5t-2.5 -11t-4.5 -8.5q-9 -11 -20 -16q-13 -6 -29 -3q-27 3 -37 30q-3 7 -3 22v23v39q0 6 4.5 10.5t11.5 4.5h8h57q7 0 11.5 -4.5t4.5 -10.5t-4.5 -10.5t-11.5 -4.5h-8h-57q7 8 15 15v-9v-38v-16v-10v2.5v1.5q0 -4 2 -8
q0 1 -0.5 2t-0.5 2q1 -3 3 -6v-1l-1 1q1 0 1.5 -0.5l0.5 -0.5l2 -2h-1h1q2 -2 5 -3q-1 1 -3 1l8 -2l-1.5 0.5t-2.5 0.5q4 -1 9 0q-1 0 -2.5 -0.5l-1.5 -0.5l8 2q-2 0 -3 -1q2 1 5 3v0l2 2l1 1q1 0 1 1l-1 -2q0 1 1 2q1 2 2 5q0 -2 -1 -4q2 4 2 8v-1.5v-2.5v11v62zM169 366
q-6 0 -10.5 4.5t-4.5 10.5q0 3 1 5.5t3.5 4.5t5 3.5t5.5 1.5h6h39q4 0 7.5 -2t5.5 -5.5t2 -7.5q1 -6 -4 -10.5t-11 -4.5h-6h-39zM299 366q-6 0 -10.5 4.5t-4.5 10.5t4.5 10.5t10.5 4.5h44q3 0 5.5 -1.5t4.5 -3.5t3.5 -4.5t1.5 -5.5q0 -6 -4.5 -10.5t-10.5 -4.5h-44zM293 148
q0 4 2 7t5.5 5t7.5 3q6 0 11 -4.5t5 -10.5v-22q0 -6 -5 -10.5t-11 -4.5h-13h-56h-35q-4 0 -7.5 2t-6 5.5t-2.5 7.5v21q1 23 16 42q17 20 46 23q30 4 53 -18q20 -19 21 -46q0 -6 -5 -10.5t-11 -4.5t-10.5 4.5t-4.5 10.5q0 3 -1 6q0 -1 0.5 -2t0.5 -2q-1 7 -4 13l2 -4
q-2 5 -5 8l-1 2v-1q0 1 -1 2t-1 2q-2 1 -4 3h-1l-1 1h1q-4 3 -9 5l1.5 -0.5t1.5 -1.5q-6 3 -14 4h2.5t1.5 -1q-6 1 -13 0q1 1 2.5 1h1.5q-6 -1 -13 -3q2 0 4 1q-5 -2 -9 -5l-1 -0.5l-1 -0.5l1 1q-1 -1 -4 -3q-2 -2 -3 -4v1l-0.5 -1l-0.5 -1q-3 -4 -5 -8q1 0 1.5 1.5l0.5 1.5
q-3 -6 -4 -13q0 1 0.5 2.5l0.5 1.5q-1 -3 -1 -28l-15 15h13h56h35q-8 -7 -15 -15v22z" />
    <glyph glyph-name="Ntilde" unicode="&#xd1;" 
d="M81 91v187q-17 7 -27.5 22.5t-10.5 27.5q0 18 28.5 33.5t77.5 24.5t107 9q88 0 150.5 -19.5t62.5 -47.5q0 -12 -9 -25t-26 -20v-163q-3 -9 -13 -9q-4 0 -8 2t-5 5l-2 2v152q-22 -8 -92 -14v-194q-4 -9 -13 -9q-3 0 -5.5 0.5t-4 2t-2.5 3t-2 2.5v1v192h-32h-32v-108
q-6 -9 -15 -9q-5 0 -7.5 2.5t-2.5 4.5v2v110q-65 6 -89 14v-181q-4 -8 -14 -8zM256 281q80 0 132.5 13.5t52.5 33.5q0 19 -51 29.5t-134 10.5q-79 0 -127.5 -11t-56.5 -29q-5 -11 18.5 -22t68.5 -18t97 -7z" />
    <glyph glyph-name="Oacute" unicode="&#xd3;" 
d="M179 50q-18 9 -28 25t-10 35v174q0 27 18.5 46t44.5 20v32h-8q-11 0 -19 8t-8 19q0 7 3.5 13.5t10 10t13.5 3.5h120q11 0 19 -8t8 -19t-8 -19t-19 -8h-8v-32q13 0 24.5 -5.5t20 -14.5t13.5 -21t5 -25v-174q0 -19 -10 -35t-28 -25v-28q0 -10 -9 -10h-136q-9 0 -9 10v28z
M315 31v14q-5 -1 -10 -1h-98q-5 0 -10 1v-14h118zM196 401h120q8 0 8 8t-8 8h-120q-8 0 -8 -8t8 -8zM247 363h18v-13h24v32h-66v-32h24v13zM160 284v-174q0 -13 6 -23.5t17 -17t24 -6.5h98q20 0 33.5 14t13.5 33v174q0 20 -13.5 33.5t-33.5 13.5h-98q-20 0 -33.5 -13.5
t-13.5 -33.5zM256 125q-25 1 -42 18.5t-17 42.5q0 29 52 87q7 6 14 0q4 -5 10.5 -12.5t17 -21t17.5 -28t7 -25.5q0 -25 -17 -42.5t-42 -18.5zM256 156q7 0 11.5 4.5t4.5 11t-16 20.5q-16 -14 -16 -20.5t4.5 -11t11.5 -4.5zM256 252q-40 -45 -40 -66q0 -13 7 -24q-1 5 -1 9
q0 19 29 40q5 4 10 0q29 -21 29 -40q0 -4 -1 -9q7 11 7 24q0 21 -40 66z" />
    <glyph glyph-name="Ocircumflex" unicode="&#xd4;" 
d="M422 29v214h-57l-25 -22v-117q0 -3 -3.5 -5.5t-6.5 -2.5t-5.5 1t-4 3t-1.5 4v103l-58 -56q-5 -5 -10 0q-29 28 -43 42q-5 4 -15 14v-103q0 -3 -3.5 -5.5t-7 -2.5t-7 2.5t-3.5 5.5v117l-25 22h-57v-214q0 -3 -3.5 -5.5t-7 -2.5t-7 2.5t-3.5 5.5v214h-19q-3 0 -5 4t-2 7v30
q0 2 1 4.5t2.5 4.5t3.5 2h122v102q0 6 2.5 11.5t7.5 9.5t10.5 6.5t11.5 2.5h104q12 0 22 -9t10 -21v-102h122q3 0 5 -3.5t2 -7.5v-30q0 -3 -2 -7t-5 -4h-18v-214q0 -2 -2 -4t-4.5 -3t-4.5 -1q-4 0 -7.5 2.5t-3.5 5.5zM61 262h70l-16 15h-54v-15zM451 277h-54l-16 -15h70v15z
M319 295v95q0 3 -1.5 5.5t-3 4.5t-4.5 3.5t-6 1.5h-96q-6 0 -10.5 -4.5t-4.5 -10.5v-95h126zM226.5 393q7.5 0 7.5 -8v-73q0 -7 -7.5 -7t-7.5 7v73q0 8 7.5 8zM256 393q7 0 7 -8v-73q0 -7 -7 -7t-7 7v73q0 8 7 8zM285.5 393q7.5 0 7.5 -8v-73q0 -7 -7.5 -7t-7.5 7v73
q0 8 7.5 8z" />
    <glyph glyph-name="Otilde" unicode="&#xd5;" 
d="M438 240q14 -3 22.5 -14t8.5 -25v-114q0 -5 -3.5 -8.5t-8.5 -3.5h-27v-10q0 -5 -3.5 -8.5t-8.5 -3.5t-8.5 3.5t-3.5 8.5v10h-300v-10q0 -2 -1 -4.5t-2.5 -4t-3.5 -2.5t-5 -1q-5 0 -8.5 3.5t-3.5 8.5v10h-27q-5 0 -8.5 3.5t-3.5 8.5v114q0 14 8.5 25t22.5 14
q8 66 60 110.5t122 44.5t122 -44.5t60 -110.5zM256 371q-60 0 -105 -37t-53 -93h16q2 10 7.5 18.5t14 14.5t19.5 9.5t23 3.5q25 0 43 -13t22 -33h26q2 10 8 18.5t14.5 14.5t19.5 9.5t23 3.5q24 0 42.5 -13t21.5 -33h16q-8 56 -53 93t-105 37zM374 241q-4 10 -15 16.5
t-25 6.5t-25 -6.5t-15 -16.5h80zM218 241q-4 10 -15 16.5t-25 6.5t-25 -6.5t-15 -16.5h80zM446 98v103q0 7 -5 12t-12 5h-346q-7 0 -12 -5t-5 -12v-103h380z" />
    <glyph glyph-name="Odieresis" unicode="&#xd6;" 
d="M277 343q4 -3 0 -8l-30 -30q-4 -4 -8 0t0 8l30 30q1 2 3.5 2t4.5 -2zM247 331q-4 -4 -8 0t0 8l30 30q4 4 8 0t0 -8zM370 107v-14h-210v14h210zM288 137q0 -5 -4.5 -9t-11.5 -4h-32q-7 0 -11.5 4t-4.5 9v12h11v-12q0 -4 5 -4h32q5 0 5 4v12h11v-12zM288 65q0 -6 -4.5 -10
t-11.5 -4h-32q-7 0 -11.5 4.5t-4.5 9.5v12h11v-12q0 -4 5 -4h32q5 0 5 4v12h11v-12zM369 189q4 0 4 -4v-174h-230v174q0 4 4 4h16v236q0 3 1.5 6t4.5 4.5t7 1.5h164q5 0 9 -3.5t4 -8.5v-236h16zM188 412v-223h138v223h-138zM352 33v132h-188v-132h188z" />
    <glyph glyph-name="multiply" unicode="&#xd7;" 
d="M46 196v25h415v-25h-415zM43 336h24v-229h-24v229zM445 277h24v-170h-24v170zM81 237v21h62v-21h-62z" />
    <glyph glyph-name="Oslash" unicode="&#xd8;" 
d="M75 352h362q7 0 13 -2.5t10 -7t6.5 -10.5t2.5 -13v-190q0 -14 -9.5 -23.5t-22.5 -9.5h-362q-13 0 -22.5 9.5t-9.5 23.5v190q0 14 9.5 23.5t22.5 9.5zM75 332q-6 0 -9.5 -3.5t-3.5 -9.5v-190q0 -3 1 -5.5t2.5 -4t4 -2.5t5.5 -1h362q6 0 9.5 3.5t3.5 9.5v190q0 6 -3.5 9.5
t-9.5 3.5h-362zM90 288q5 1 8 -3l10 -9q16 12 36.5 12t36.5 -12l10 9q2 3 6 3q7 1 10 -5.5t-2 -11.5l-10 -9q13 -17 13 -38t-13 -38l10 -9q4 -4 2.5 -9.5t-7 -7t-9.5 2.5l-9 9q-17 -12 -37.5 -12t-37.5 12l-9 -9q-4 -4 -9.5 -2.5t-7 7t2.5 9.5l10 9q-13 17 -13 38t13 38
l-10 9q-4 5 -2 11t8 6zM245 288q5 1 8 -3l10 -9q16 12 36.5 12t37.5 -12l9 9q2 3 6 3q7 1 10 -5.5t-2 -11.5l-10 -9q13 -17 13 -38t-12 -38l9 -9q4 -4 2.5 -9.5t-7 -7t-9.5 2.5l-9 9q-17 -12 -37.5 -12t-36.5 12l-10 -9q-4 -4 -9.5 -2.5t-7 7t2.5 9.5l10 9q-12 17 -12 38
t12 38l-10 9q-4 5 -2 11t8 6zM410.5 284q6.5 0 10.5 -5q10 -10 0 -20.5t-20.5 0t-0.5 20.5q4 5 10.5 5zM144 268q-7 0 -13.5 -2t-12 -6t-9.5 -9.5t-6 -12.5t-2 -14q0 -18 12.5 -31t31 -13t31 13t12.5 31t-12.5 31t-31.5 13zM299.5 268q-18.5 0 -31 -13t-12.5 -31t12.5 -31
t31 -13t31 13t12.5 31t-12.5 31t-31 13zM410.5 239q6.5 0 10.5 -5q10 -10 0 -20.5t-20.5 0t-0.5 20.5q4 5 10.5 5zM410.5 194q6.5 0 10.5 -4q10 -11 0 -21.5t-20.5 0t-0.5 21.5q4 4 10.5 4z" />
    <glyph glyph-name="Ugrave" unicode="&#xd9;" 
d="M271 335q-10 0 -10 10v30q0 10 10 10t10 -10v-30q0 -10 -10 -10zM311 335q-10 0 -10 10v30q0 10 10 10t10 -10v-30q0 -10 -10 -10zM351 335q-10 0 -10 10v30q0 10 10 10t10 -10v-30q0 -10 -10 -10zM251.5 95q-28.5 0 -49 20.5t-20.5 49.5t20.5 49.5t49 20.5t49 -20.5
t20.5 -49.5t-20.5 -49.5t-49 -20.5zM241 214q-18 -4 -29.5 -19.5t-9.5 -34.5t16 -32t33 -13q13 0 24 6t18 16.5t8 22.5q2 19 -9.5 34.5t-30.5 19.5v-19q0 -10 -10 -10t-10 10v19zM321 25h-40q-10 0 -10 10v20h-40v-20q0 -10 -9 -10h-10h-20h-10q-10 0 -10 10v20h-30
q-13 0 -21.5 9t-8.5 21v310q0 6 2.5 11.5t6.5 9.5t9.5 6.5t11.5 2.5h229q12 0 21 -9t9 -21v-310q0 -12 -9 -21t-21 -9h-40v-20q0 -10 -10 -10zM132 85q0 -10 10 -10h229q10 0 10 10v310q0 10 -10 10h-229q-10 0 -10 -10v-310zM212 45v10h-20v-10h20zM311 55h-20v-10h20v10z
" />
    <glyph glyph-name="Uacute" unicode="&#xda;" 
d="M281 233q6 3 7 0l-13 -134q0 -3 -2.5 -3t-2.5 3l-8 87q0 2 -1.5 3t-2.5 0l-27 -22q-8 -5 -7 0l16 140q1 2 3.5 2t2.5 -2l7 -86q0 -4 4 -2zM149 390v-14h-58v14q0 5 5 5h48q5 0 5 -5zM421 390h-1v-14h-58v14q0 5 5 5h49q5 0 5 -5zM460 357q2 0 4.5 -1.5t3.5 -3.5t1 -5
v-284q0 -4 -2.5 -7t-6.5 -3h-408q-4 0 -6.5 3t-2.5 7v284q0 4 2.5 7t6.5 3h408zM438 79q4 0 6 5v242q0 5 -6 5h-364q-5 0 -5 -5v-242q0 -5 5 -5h364z" />
    <glyph glyph-name="Ucircumflex" unicode="&#xdb;" 
d="M431 405q17 0 27.5 -12.5t10.5 -32.5v-232q0 -19 -12.5 -32.5t-30.5 -13.5v-28q0 -5 -3.5 -8t-7.5 -3h-39q-4 0 -7.5 3t-3.5 8v28h-218v-28q0 -5 -3.5 -8t-7.5 -3h-39q-4 0 -7.5 3t-3.5 8v28q-18 0 -30.5 13.5t-12.5 32.5v232q0 19 12.5 32t30.5 13h345zM125 65v12h-17
v-12h17zM404 65v12h-17v-12h17zM447 128v232q0 23 -16 23h-345q-6 0 -11 -3t-7.5 -8.5t-2.5 -11.5v-232q0 -10 6 -16.5t15 -6.5h340q4 0 8 2t7 5t4.5 7t1.5 9zM278 354q13 0 23 -10t10 -24v-158q0 -14 -10 -24t-23 -10h-153q-9 0 -16.5 4.5t-12 12t-4.5 17.5v158
q0 14 9.5 24t23.5 10h153zM289 162v158q0 3 -1.5 6t-4 4.5t-5.5 1.5h-153q-3 0 -5.5 -1.5t-4 -4.5t-1.5 -6v-158q0 -3 1.5 -6t4 -4.5t5.5 -1.5h153q4 0 7.5 3.5t3.5 8.5zM355 240q0 10 6.5 17t16 7t16 -7t6.5 -17q0 -6 -3 -11.5t-8 -8.5t-11 -3t-11.5 3t-8.5 8.5t-3 11.5z
M355 172q0 10 6.5 17t16 7t16 -7t6.5 -17q0 -6 -3 -11.5t-8 -8.5t-11 -3t-11.5 3t-8.5 8.5t-3 11.5zM397 320q7 0 12 -5t5 -12t-5 -12t-12 -5h-39q-7 0 -12 5t-5 12q0 5 2.5 9t6.5 6t8 2h39z" />
    <glyph glyph-name="Udieresis" unicode="&#xdc;" 
d="M427 289q5 0 10 -2.5t8 -7t3 -10.5v-49q0 -5 -2.5 -9.5t-7.5 -7.5t-11 -3h-7l-27 -181q-2 -8 -11 -8h-252q-10 0 -11 8l-27 181h-7q-9 0 -15 6t-6 14v49q0 8 6 14t15 6h86q-16 11 -26 23q-12 13 -18.5 30t-8 31t-0.5 27.5t2.5 20t2.5 8.5q1 7 9 8q3 0 9.5 0.5t20.5 -1
t28 -5t31 -12.5t29 -23q16 -18 24 -40q3 5 12 13q16 14 40 19t35 4t17 -2q7 -2 8 -8q2 -5 2.5 -16.5t-6.5 -33.5t-23 -37q-1 -1 -2.5 -2t-2.5 -2l-2 -2h75zM300 355q-15 -15 -20 -33q0 -16 -4 -29q38 -10 68 17q25 23 22 62q-43 3 -66 -17zM161 325q36 -41 92 -34q5 13 5 29
q-1 2 0 4q-2 33 -25 59q-32 36 -92 34q-11 -58 20 -92zM373 31l25 169h-284l25 -169h234zM104 220l323 1l-1 48h-342l1 -49h14h1q2 1 4 0z" />
    <glyph glyph-name="Yacute" unicode="&#xdd;" 
d="M107 11v426h298v-426h-298zM128 32h256v43h-256v-43zM254 301v-47h9v47h-5h-1h-3zM282 233h-47v65q-43 -13 -43 -57v-145h30l-8 87q0 3 2 5.5t6 2.5h78q3 0 5 -2.5t2 -5.5l-7 -87h25v145q0 21 -12.5 36t-30.5 21v-65zM229 177l2 -21q7 4 14 4q9 0 19 -9q5 -6 9 -6
q6 0 15 6q1 1 2 1l2 25h-63zM236 96h50l3 39q-9 -4 -16 -4q-9 0 -19 9q-6 6 -9 6q-5 0 -11 -6l-2 -1zM384 416h-256v-320h43v145q0 32 27 56.5t60.5 24.5t60.5 -24.5t27 -56.5v-145h38v320z" />
    <glyph glyph-name="Thorn" unicode="&#xde;" 
d="M104 12q-7 0 -7 7v144v51q0 9 6.5 15t14.5 6h275q9 0 15 -6t6 -15v-51v-144q0 -7 -6 -7h-304zM117 149v-117h129v117h-129zM394 32v117h-128v-117h128zM125 215q-8 0 -8 -8v-38h277v38q0 8 -7 8h-262zM201 138q7 0 7 -6t-7 -6h-38q-7 0 -7 6t7 6h38zM311 126q-7 0 -7 6
t7 6h38q6 0 6 -6t-6 -6h-38zM237 437q7 0 7 -6v-63l51 -60q4 -4 1.5 -8.5t-7.5 -4.5h-181q-6 0 -8 4.5t2 8.5l53 60v63q0 6 7 6h75zM224 417h-49v-45h49v45zM132 315h135l-33 37h-69zM403 437q5 0 8 -3t3 -8v-92q0 -4 -3 -7t-8 -3h-92q-5 0 -8 3t-3 7v92q0 5 3 8t8 3h92z
M395 343v74h-75v-74h75zM335 354q-6 0 -6 6.5t6 6.5h21q6 0 6 -6.5t-6 -6.5h-21z" />
    <glyph glyph-name="germandbls" unicode="&#xdf;" 
d="M369 437q11 0 18.5 -7.5t7.5 -17.5v-376q0 -7 -3.5 -13t-9.5 -9t-13 -3h-226q-11 0 -18.5 7.5t-7.5 17.5v376q0 10 7.5 17.5t18.5 7.5h226zM368 411h-224v-99h224v99zM144 37h224v249h-224v-249zM191 219v-82q0 -5 -4 -9t-9.5 -4t-9.5 4t-4 9v82q0 5 4 9t9.5 4t9.5 -4
t4 -9zM164 346v28q0 5 4 9t9.5 4t9.5 -4t4 -9v-28q0 -6 -4 -9.5t-9 -3.5q-4 0 -7 1.5t-5 4.5t-2 7z" />
    <glyph glyph-name="agrave" unicode="&#xe0;" 
d="M423 327v-82h25v-23h-25v-142h-23v142h-288v-142h-23v142h-25v23h25v82h-25v41h384v-41h-25zM400 327h-288v-82h288v82z" />
    <glyph glyph-name="aacute" unicode="&#xe1;" 
d="M402 259q25 -9 25 -35v-148q0 -5 -3.5 -8.5t-9.5 -3.5q-3 0 -5.5 1.5t-4.5 4.5t-2 6v37h-292v-37q0 -5 -3.5 -8.5t-9 -3.5t-9 3.5t-3.5 8.5v148q0 26 25 35v88q0 15 10.5 26t25.5 11h220q15 0 25.5 -11t10.5 -26v-88zM134 347v-86h61v61q0 6 3.5 9.5t8.5 3.5h98
q5 0 8.5 -3.5t3.5 -9.5v-61h61v86q0 3 -1.5 6t-4.5 4.5t-6 1.5h-220q-5 0 -8.5 -3.5t-3.5 -8.5zM293 261v49h-74v-49h74zM110 138h292v86q0 5 -3.5 8.5t-8.5 3.5h-268q-5 0 -8.5 -3.5t-3.5 -8.5v-86z" />
    <glyph glyph-name="acircumflex" unicode="&#xe2;" 
d="M438 270q13 -2 22 -12.5t9 -24.5v-79v-59q0 -4 -2.5 -7t-6.5 -3h-408q-4 0 -6.5 3t-2.5 7v59v78q0 14 9 25t22 13v33q0 25 17 42.5t41 17.5h248q24 0 41 -17.5t17 -42.5v-33zM62 233v-68h32h12v34v34q0 5 -2.5 9t-6.5 6.5t-9 2.5h-8q-7 0 -12.5 -5t-5.5 -13zM132 343
q-7 0 -14.5 -3t-12.5 -8.5t-8 -12.5t-3 -15v-33q13 -3 22 -13.5t9 -24.5v-25h262v25q0 9 4 17.5t11 13.5t16 7v33q0 16 -11 27.5t-27 11.5h-248zM450 233q0 7 -5.5 12.5t-12.5 5.5h-8q-7 0 -12.5 -5.5t-5.5 -13.5v-34v-34h12h32v69zM387 164v24h-262v-24h262zM450 105v39
h-22h-32h-280h-32h-22v-39h388z" />
    <glyph glyph-name="atilde" unicode="&#xe3;" 
d="M321 437q30 0 50.5 -21t20.5 -50v-62h24q22 0 37.5 -16t15.5 -38v-150q0 -9 -7 -16.5t-16 -7.5h-25v-41q0 -10 -7 -17t-16 -7h-47q-9 0 -16 7t-7 17v41h-144v-41q0 -10 -7 -17t-16 -7h-47q-9 0 -16 7t-7 17v41h-25q-9 0 -16 7.5t-7 16.5v150q0 15 7 27.5t19 19.5t27 7h24
v62q0 29 20.5 50t50.5 21h130zM143 239v-52h226v52h-226zM191 413q-10 0 -18.5 -3.5t-15 -10t-10.5 -15.5t-4 -18v-102h226v28v0v74q0 19 -14 33t-34 14h-130zM161 34v42h-47v-42h47zM398 34v42h-47v-42h47zM416 279h-24v-117h-272v117h-24q-12 0 -21 -8.5t-9 -21.5v-149
h380v149q0 7 -2.5 12.5t-6.5 9.5t-9.5 6t-11.5 2z" />
    <glyph glyph-name="adieresis" unicode="&#xe4;" 
d="M139 156h-66h-3l-6 2q-7 2 -11 6q-6 5 -8 12q-2 4 -2 7v4v102v3q0 3 1 6q2 6 6 11q5 6 13 8q3 2 7 2h3q183 2 366 0h3q4 0 7 -2q7 -2 11.5 -7t6.5 -11q2 -3 2 -7v-3v-102v-3q0 -4 -2 -7q-2 -7 -7 -12t-12 -7l-6 -2h-3h-66v-17h-1v-1v-3q-1 -2 -2.5 -3.5t-4.5 -2.5
q-1 -1 -3 -1v0h-212v0q-2 0 -3 1q-3 1 -4.5 2.5t-2.5 3.5v3v1h-1v17zM351 167h-190v-17h190v17zM448 260h-384q0 -36 1 -73v-3q1 -2 2 -3t4 -2q1 -1 2 -1h67v1v1.5v1.5v0v0v0v0q1 1 1 2q1 0 1 1v0l0.5 0.5l0.5 0.5v0v0l1 1q1 0 2 1v0h0.5h1.5v0v0v1v0v0v0h1h1v0h212h1v0
q1 0 1.5 -0.5l0.5 -0.5h1v0v0v0v0v0h1q0 -1 1 -1q0 -1 1 -1v0q0 -1 1 -1v0l1 -1q0 -1 1 -3v0v0v0v0v0v-1v-1v-1h67q1 0 3 1t3 2q1 2 2 3v3q1 37 1 73zM391 249q2 0 4 -1q3 -1 5 -4q1 -2 2 -3v-4q0 -1 -0.5 -3t-2 -3.5t-3.5 -2.5t-5 -1h-3q-2 0 -4 1q-3 1 -4.5 3t-2.5 4v3
q0 2 1 4q0 2 1.5 3.5t3.5 2.5t5 1h3zM425 249q2 0 4 -1q3 -1 5 -4q1 -2 1 -3q1 -2 1 -4q0 -1 -1 -3t-2.5 -3.5t-3.5 -2.5t-4 -1h-2h-2q-2 0 -4 1t-4 2.5t-2 4.5q-1 2 -1 3q0 2 1 4t2.5 3.5t3.5 2.5t4 1h4zM447 282v3.5v3.5v3l-2 2q-1 2 -3 3h-3q-272 2 -366 0h-3
q-2 -1 -3 -3l-2 -2v-3v-3.5v-3.5h382z" />
    <glyph glyph-name="aring" unicode="&#xe5;" 
d="M354 86v22h44v-22h-44zM354 173v21h44v-21h-44zM437 297v-59h32v-17v-5v-173h-186v173h-218v-173h-22v173v5v17h120v27h-98v140h218v-140h-98v-27h230v59q0 3 -1.5 5.5t-4 4t-5.5 1.5h-11q0 -4 -1 -6l-22 -48l-71 47l38 38q16 15 35 3l10 -7q3 -2 6 -5h16q13 0 23 -9.5
t10 -23.5zM372 311q2 4 -2 6l-10 7q-4 2 -7 -1l-20 -19l28 -18zM86 286h175v98h-175v-98zM447 64v65h-142v-65h142zM447 216h-142v-65h142v65z" />
    <glyph glyph-name="ae" unicode="&#xe6;" 
d="M469 299v-132h-14v-15h-42v15h-314v-15h-42v15h-14v132h426zM188 224v-37h136v37h-136zM324 243v30h-136v-30h136zM62 187h37h72v86h-109v-86zM451 187v86h-110v-86h72h38zM133 233q0 9 6.5 15t15 6t15 -6t6.5 -15t-6.5 -15t-15 -6t-15 6t-6.5 15zM338 233q0 9 6.5 15
t14.5 6q6 0 11 -2.5t8 -7.5t3 -11q0 -9 -6.5 -15t-15 -6t-15 6t-6.5 15z" />
    <glyph glyph-name="ccedilla" unicode="&#xe7;" 
d="M469 137q0 -5 -3 -8t-8 -3h-164v-18h115q2 0 4 -1t3.5 -2.5t2.5 -3.5t1 -4q0 -5 -3.5 -8.5t-7.5 -3.5h-301q-5 0 -8 3.5t-3 8t3 8t8 3.5h114v18h-168q-3 0 -5.5 1.5t-4 4t-1.5 5.5v214q0 5 3 8.5t8 3.5h404q3 0 5.5 -1.5t4 -4t1.5 -6.5v-214zM71 340q-6 0 -6 -5v-182
q0 -5 6 -5h370q5 0 5 6v181q0 5 -5 5h-370zM267 108v18h-18v-18h18z" />
    <glyph glyph-name="egrave" unicode="&#xe8;" 
d="M398 363q30 0 50.5 -20.5t20.5 -49.5v-194q0 -2 -0.5 -4t-2 -4t-3 -3t-4 -2t-4.5 -1h-398q-6 0 -10 4t-4 10v194q0 29 20.5 49.5t50.5 20.5h284zM71 293v-41h142v14q0 5 4.5 9t10.5 4h56q4 0 7.5 -1.5t5.5 -5t2 -6.5v-14h142v41q0 18 -12.5 30t-30.5 12h-284
q-18 0 -30.5 -12t-12.5 -30zM270 252h-28v-28h28v28zM441 113v111h-142v-14q0 -6 -4.5 -10t-10.5 -4h-56q-6 0 -10.5 4t-4.5 10v14h-142v-111h370z" />
    <glyph glyph-name="eacute" unicode="&#xe9;" 
d="M412 437q5 0 8.5 -3.5t3.5 -7.5v-390q0 -5 -3.5 -8.5t-8.5 -3.5h-33q0 -3 -1.5 -6t-4 -4.5t-5.5 -1.5q-5 0 -8.5 3.5t-3.5 8.5h-101h-102q0 -5 -3.5 -8.5t-8 -3.5t-8 3.5t-3.5 8.5h-33q-3 0 -5.5 2t-4 4.5t-1.5 5.5v390q0 4 3 7.5t8 3.5h158h157zM109 414v-366h134v366
h-134zM401 48v366h-135v-366h135zM300 200q-1 0 -3 1t-3.5 2t-2.5 2.5t-1.5 3t-0.5 3.5v38q0 4 3.5 7.5t8 3.5t8 -3.5t3.5 -7.5v-38q0 -5 -3.5 -8.5t-8.5 -3.5zM208.5 200q-4.5 0 -8 3.5t-3.5 8.5v38q0 4 3.5 7.5t8 3.5t8 -3.5t3.5 -7.5v-38q0 -5 -3.5 -8.5t-8 -3.5z" />
    <glyph glyph-name="ecircumflex" unicode="&#xea;" 
d="M126 436h260q12 0 21 -9t9 -21v-382q0 -4 -3 -7t-8 -3h-298q-5 0 -8 3t-3 7v382q0 12 9 21t21 9zM126 414q-8 0 -8 -8v-66h276v66q0 8 -8 8h-260zM118 319v-284h276v284h-276zM234 403h139q4 0 7.5 -3t3.5 -7v-29q0 -11 -11 -11h-139q-11 0 -11 11v29q0 4 3 7t8 3z
M245 382v-8h117v8h-117zM173 404q11 0 19 -7.5t8 -18t-8 -18t-19 -7.5t-18.5 7.5t-7.5 18t7.5 18t18.5 7.5zM256 265q38 -1 71 -26t33 -74q0 -42 -30.5 -71.5t-73.5 -29.5t-73.5 29.5t-30.5 71t30.5 71t73.5 29.5zM256 244q-44 0 -68 -36q10 1 19 1q29 -1 65 -11
q43 -13 62 -11q-4 16 -15.5 29t-28 20.5t-34.5 7.5z" />
    <glyph glyph-name="edieresis" unicode="&#xeb;" 
d="M434 383q14 0 24.5 -10.5t10.5 -24.5v-248q0 -14 -10.5 -24.5t-24.5 -10.5h-356q-14 0 -24.5 10.5t-10.5 24.5v248q0 14 10.5 24.5t24.5 10.5h356zM446 100v248q0 5 -3.5 8.5t-8.5 3.5h-356q-2 0 -4.5 -1t-4 -2.5t-2.5 -4t-1 -4.5v-248q0 -5 3.5 -8.5t8.5 -3.5h356
q3 0 5.5 2t4.5 4.5t2 5.5zM278 334q5 0 8.5 -3.5t3.5 -8t-3.5 -8t-8.5 -3.5h-180q-5 0 -8.5 3.5t-3.5 8t3.5 8t8.5 3.5h180zM278 285q5 0 8.5 -3.5t3.5 -8.5t-3.5 -8t-8.5 -3h-180q-3 0 -6 1.5t-4.5 4t-1.5 5.5q0 5 3.5 8.5t8.5 3.5h180zM278 236q5 0 8.5 -3.5t3.5 -8.5
t-3.5 -8.5t-8.5 -3.5h-180q-5 0 -8.5 3.5t-3.5 8.5q0 3 1.5 6t4.5 4.5t6 1.5h180zM278 187q5 0 8.5 -3.5t3.5 -8.5t-3.5 -8.5t-8.5 -3.5h-180q-5 0 -8.5 3.5t-3.5 8.5t3.5 8.5t8.5 3.5h180zM278 137q5 0 8.5 -3.5t3.5 -8t-3.5 -8t-8.5 -3.5h-180q-5 0 -8.5 3.5t-3.5 7.5
t1.5 6.5t4.5 4t6 1.5h180zM412 334q5 0 8.5 -3.5t3.5 -7.5v-82q0 -5 -3.5 -8.5t-8.5 -3.5h-82q-3 0 -6 2t-4.5 4.5t-1.5 5.5v82q0 4 3.5 7.5t8.5 3.5h82zM400 253v58h-58v-58h58zM330 200q5 0 8.5 -3.5t3.5 -8.5v-63q0 -2 -0.5 -3.5t-1.5 -3t-2.5 -2.5t-3.5 -1.5t-4 -0.5
q-5 0 -8.5 3.5t-3.5 7.5v63q0 5 3.5 8.5t8.5 3.5zM371 200q5 0 8.5 -3.5t3.5 -8.5v-63q0 -4 -3.5 -7.5t-8.5 -3.5t-8.5 3.5t-3.5 7.5v63q0 5 3.5 8.5t8.5 3.5zM412 200q5 0 8.5 -3.5t3.5 -8.5v-63q0 -2 -1 -3.5l-2 -3t-2.5 -2.5t-3 -1.5t-3.5 -0.5q-5 0 -8.5 3.5t-3.5 7.5
v63q0 5 3.5 8.5t8.5 3.5z" />
    <glyph glyph-name="igrave" unicode="&#xec;" 
d="M85 424q0 4 3 8.5t8 4.5h321q2 0 3.5 -1t3 -3t2.5 -4.5t1 -4.5q0 -4 -3.5 -8.5t-6.5 -4.5h-15v-390q0 -4 -4.5 -7t-8.5 -3t-9 3t-5 7v9h-238v-9q0 -4 -5 -7t-9 -3t-8.5 3t-4.5 7v390h-14q-3 0 -5.5 2t-4 5.5t-1.5 5.5zM137 411v-19h238v19h-238zM137 365v-83h106v83h-106
zM269 365v-83h106v83h-106zM137 256v-90h238v90h-238zM241 243h1h29q2 0 4.5 -1t4 -3.5t1.5 -4.5q0 -4 -3 -7t-7 -3h-29q-3 0 -5.5 1t-4 3.5t-1.5 4.5q0 4 3 7t7 3zM137 140v-87h238v87h-238zM241 127h1h29q4 0 7 -3t3 -6.5t-3 -6.5t-7 -3h-29q-4 0 -7 2.5t-3.5 6.5t2.5 7
t7 3z" />
    <glyph glyph-name="iacute" unicode="&#xed;" 
d="M248 41h-114v46q0 5 -3 8t-7.5 3t-8 -3t-3.5 -8v-46h-68q4 72 53 117q20 17 42 26.5t34 9.5q9 -7 18 -12h1q9 -5 19 -8h1q5 -2 10 -3.5t10 -2.5h1q5 0 10 -1h1h10.5h10.5h2q5 1 10 1q5 1 10 3h1q5 1 10 3v0q10 3 19 8h1q9 5 17 11h3q42 -12 74 -40q50 -43 53 -112h-217z
M255 425q47 0 81 -34.5t34 -83.5q0 -62 -50 -97q0 -1 -0.5 -1h-0.5q-9 -7 -19 -11h-0.5t-1.5 -1q-4 -1 -8 -3h-2q-4 -2 -9 -3h-2q-4 -1 -9 -1q0 -1 -1 -1h-1h-11h-1h-10h-2t-1 1q-5 0 -8 1h-3q-4 1 -8 3h-3q-4 2 -8 3q0 1 -0.5 1h-1.5q-10 4 -19 11q-1 0 -1 1q-50 35 -50 97
q0 32 15.5 59t42 43t58.5 16zM231 230h49q3 0 5.5 1.5t4 4t1.5 5.5q0 4 -3 7.5t-8 3.5h-49q-3 0 -5 -1t-3 -2.5t-2 -3.5t-1 -4q0 -5 3 -8t8 -3zM381 111q5 0 8 -3.5t3 -7.5v-15q0 -5 -3 -8t-8 -3q-3 0 -5.5 1.5t-4 4t-1.5 5.5v4h-58v-5q0 -2 -1 -4t-2.5 -3.5t-3.5 -2.5
t-4 -1q-5 0 -8 3t-3 8v16q0 4 3 7.5t8 3.5h80z" />
    <glyph glyph-name="icircumflex" unicode="&#xee;" 
d="M396 328q29 0 51 -25.5t22 -62.5v-30q0 -4 -2.5 -6.5t-6.5 -2.5h-369q-4 0 -7 2.5t-3 6.5t3 7t7 3h55q5 0 9 4t4 9q0 4 -1.5 7t-4.5 5t-7 2h-94q-4 0 -6.5 2.5t-2.5 6.5q0 3 1 5t3.5 3.5t4.5 1.5h94q5 0 9 4t4 9q0 4 -1.5 7t-4.5 4.5t-7 1.5h-16q-4 0 -7 3t-3 7t3 7t7 3
h16q5 0 9 4t4 9q0 4 -1.5 7t-4.5 4.5t-7 1.5h-74q-4 0 -7 3t-3 7t3 7t7 3h258q3 0 5 -1.5t3.5 -3.5t1.5 -5v-118q0 -4 3 -7t7 -3t6.5 3t2.5 7v88q0 3 1.5 5t4 3.5t4.5 1.5h27zM440 239q4 0 7 4t2 8q-2 19 -12.5 34t-25.5 21q-5 1 -9 -2t-4 -8v-47q0 -4 3 -7t7 -3h32z
M217 151q12 0 20.5 -8.5t8.5 -20.5t-8.5 -21t-20.5 -9t-20.5 9t-8.5 21t8.5 20.5t20.5 8.5zM217 107q6 0 10 4.5t4 10.5t-4 10t-10 4t-10 -4t-4 -10t4 -10.5t10 -4.5zM460 180q9 0 9 -9v-41q0 -9 -9 -9h-2q-8 0 -9 8q-3 14 -13.5 23t-24.5 9t-24.5 -9t-13.5 -23q-1 -8 -9 -8
h-100q-8 0 -9 8q-3 14 -13.5 23t-24.5 9t-24.5 -9t-13.5 -23q-1 -8 -9 -8h-2q-9 0 -9 9v41q0 9 9 9h292zM411 151q12 0 20.5 -8.5t8.5 -20.5t-8.5 -21t-20.5 -9q-8 0 -14.5 4t-10.5 11t-4 15q0 12 8.5 20.5t20.5 8.5zM411 107q6 0 10 4.5t4 10.5t-4 10t-10 4t-10 -4t-4 -10
t4 -10.5t10 -4.5z" />
    <glyph glyph-name="idieresis" unicode="&#xef;" 
d="M191 261q-3 -5 -8 -5h-131q-5 0 -7.5 4.5t-0.5 8.5l50 84q2 3 7 4l132 15q5 1 8 -3.5t0 -9.5zM183 243q14 0 20 12l47 90v-258l-129 14q-11 1 -18 9t-7 18v115h87zM468 269q2 -4 -0.5 -8.5t-7.5 -4.5h-131q-6 0 -8 5l-50 98q-2 5 0.5 9.5t8.5 3.5l132 -15q4 0 6 -4z
M309 255q6 -12 20 -12h87v-115q0 -3 -1 -6.5t-2.5 -6t-3.5 -5t-5 -4.5t-6 -3.5t-7 -1.5l-128 -14v258z" />
    <glyph glyph-name="eth" unicode="&#xf0;" 
d="M316 260q18 -2 30 -18t12 -35q0 -23 -16.5 -38t-39.5 -15q-28 0 -45 20.5t-17 47.5q0 23 14 47t35 41q31 26 53 29q19 2 19 -12q0 -2 -1 -4t-2.5 -4t-3.5 -3.5t-4.5 -3t-4 -2.5t-4 -2.5t-3.5 -2.5q-39 -23 -39 -37q0 -6 17 -8zM241 275q-15 -27 -15 -53q0 -24 12 -44
q-12 -6 -25 -6q-28 0 -45 21t-17 48q0 23 14 47t35 41q31 26 53 29q19 2 19 -12q0 -3 -1.5 -5.5t-5 -5t-5.5 -4.5t-6.5 -4.5l-4.5 -2.5q-39 -23 -39 -37q0 -7 17 -8q7 -1 14 -4zM409 432q9 0 17 -3.5t13.5 -9t9 -13.5t3.5 -16v-266q0 -17 -12.5 -29.5t-30.5 -12.5h-84l-3 -4
l-45 -52q-8 -10 -21 -10t-21 10l-45 52l-3 4h-84q-18 0 -30.5 12.5t-12.5 29.5v266q0 17 12.5 29.5t30.5 12.5h306zM406 127v260h-300v-260h91q13 0 21 -9l6 -8l32 -37l32 37l3 4l2 3q8 10 21 10h92z" />
    <glyph glyph-name="ntilde" unicode="&#xf1;" 
d="M101 15v279h324v-279h-324zM217 247v-18h92v18h-92zM379 433l18 -47h-268l18 47h232zM399 377l26 -70h-324l26 70h272z" />
    <glyph glyph-name="ograve" unicode="&#xf2;" 
d="M424 344q35 0 61.5 -29.5t26.5 -72.5v-34q0 -4 -3.5 -7.5t-8.5 -3.5h-442q-4 0 -7.5 3.5t-3.5 7.5q0 3 0.5 5t2.5 3.5t4 2.5t4 1h66q7 0 11.5 4.5t4.5 10.5t-4.5 10.5t-11.5 4.5h-112q-5 0 -8.5 3.5t-3.5 8t3.5 8t8.5 3.5h112q7 0 11.5 4.5t4.5 10.5t-4.5 10.5t-11.5 4.5
h-19q-3 0 -6 1.5t-4.5 4t-1.5 5.5q0 5 3.5 8.5t8.5 3.5h19q7 0 11.5 4.5t4.5 10.5t-4.5 10.5t-11.5 4.5h-89q-5 0 -8.5 3.5t-3.5 7.5q0 3 1.5 6t4.5 4.5t6 1.5h310q3 0 6 -1.5t4.5 -4.5t1.5 -6v-136q0 -5 3.5 -8t8 -3t8 3t3.5 8v102q0 2 1.5 5t4.5 4.5t6 1.5h32zM476 242
q5 0 9 4t3 9q-2 14 -8 26.5t-15.5 22.5t-22.5 14q-6 2 -10.5 -1.5t-4.5 -8.5v-55q0 -5 3.5 -8t7.5 -3h38zM209.5 140q14.5 0 24.5 -10t10 -24t-10 -24t-25 -10q-9 0 -17 4.5t-12.5 12.5t-4.5 17q0 14 10 24t24.5 10zM209 89q7 0 12.5 5t5.5 12q0 5 -2.5 8.5t-6.5 6t-9 2.5
q-7 0 -12 -5t-5 -12q0 -4 2.5 -8t6.5 -6.5t8 -2.5zM501 173q11 0 11 -10v-47q0 -11 -11 -11h-2q-10 0 -11 9q-4 16 -16.5 26.5t-29.5 10.5q-11 0 -20.5 -5t-16 -13t-9.5 -19q-1 -9 -10 -9h-120q-9 0 -11 9q-2 11 -8.5 19t-16.5 13t-21 5q-16 0 -29 -10.5t-16 -26.5
q-2 -9 -11 -9h-3q-10 0 -10 11v47q0 10 10 10h351zM442 140q15 0 25 -10t10 -24t-10 -24t-24.5 -10t-25 10t-10.5 24q0 9 5 17t13 12.5t17 4.5zM442 89q7 0 12 5t5 12t-5 12t-12 5t-12 -5t-5 -12t5 -12t12 -5z" />
    <glyph glyph-name="oacute" unicode="&#xf3;" 
d="M53 454q206 52 416 0v-261q0 -56 -38 -98q-74 -82 -170 -127q-95 50 -167 126q-41 42 -41 101v259zM391 307q6 5 6 12.5t-5.5 13t-13.5 5.5t-13 -5l-131 -129l-54 51q-6 6 -13.5 5.5t-13 -6t-5 -13t5.5 -12.5l67 -63q6 -5 13 -5q8 0 13 5z" />
    <glyph glyph-name="ocircumflex" unicode="&#xf4;" 
d="M309 392h180v-184h-51v95l-175 -159l-62 63l-150 -140l-36 37l188 176l62 -63l136 123h-92v52z" />
    <glyph glyph-name="otilde" unicode="&#xf5;" 
d="M256 444q9 -2 24.5 -16t33.5 -46.5t24 -72.5q7 -37 1.5 -71t-19 -62t-31 -47t-33.5 -26q-9 2 -24 16.5t-31.5 38.5t-25 64.5t-1.5 86.5q4 42 32 85t50 50zM153 318q-6 -41 -4 -72q7 -80 65 -140q-107 30 -140 138q-11 35 -4 79q1 7 3.5 8.5t8.5 1.5h2q37 0 69 -15z
M56 226q12 -34 41 -72q48 -54 110 -68q-70 -6 -131 47q-33 32 -43 75q-2 7 1 8q9 6 22 10zM358 318q32 15 69 15h2q5 0 6.5 -0.5t3 -2.5t2.5 -7q7 -44 -3 -79q-33 -108 -141 -138q58 60 65 140q2 31 -4 72zM455 226q13 -4 22 -10q3 -1 1 -8q-10 -43 -43 -75
q-61 -53 -131 -47q62 14 110 68q29 38 41 72z" />
    <glyph glyph-name="odieresis" unicode="&#xf6;" 
d="M469 279q6 0 10.5 -4.5t4.5 -10.5t-4.5 -10t-10.5 -4q-66 0 -113.5 -47.5t-47.5 -113.5q0 -6 -4 -10.5t-10 -4.5t-10.5 4.5t-4.5 10.5q0 43 -21.5 80t-58.5 59t-81 22q-6 0 -10.5 4t-4.5 10t4.5 10.5t10.5 4.5q67 0 114 47t47 114q0 6 4.5 10t10.5 4t10 -4t4 -10
q0 -67 47.5 -114t113.5 -47zM33 72q-10 0 -10 9.5t10 9.5q28 0 48 20t20 48q0 10 10 10t10 -10q0 -28 20 -48t48 -20q10 0 10 -9.5t-10 -9.5q-28 0 -48 -20t-20 -49q0 -9 -10 -9t-10 9q0 29 -20 49t-48 20z" />
    <glyph glyph-name="divide" unicode="&#xf7;" 
d="M486 288l-230 -147l-230 147l230 146zM256 110l202 129l18 -26l-220 -140l-220 140l18 26zM256 48l202 129l18 -26l-220 -139l-220 139l18 26z" />
    <glyph glyph-name="oslash" unicode="&#xf8;" 
d="M256 -6q-95 0 -162.5 67.5t-67.5 162.5t67.5 162.5t162.5 67.5t162.5 -67.5t67.5 -162.5t-67.5 -162.5t-162.5 -67.5zM331 270l-74 -72l-73 72l-23 -22l96 -93l96 93z" />
    <glyph glyph-name="ugrave" unicode="&#xf9;" 
d="M339 422q22 -14 38.5 -35.5t25.5 -47t9 -53.5v-47v-51h-23v51h8v47q0 37 -18 70t-49 53q-5 -6 -12 -2q-29 16 -62 16t-62 -16q-7 -4 -13 2q-30 -20 -48 -53t-18 -70v-47h8v-51h-23v51v47q0 42 19.5 78t53.5 58q-2 8 6 13q36 19 77 19t77 -19q8 -5 6 -13zM131 0v263h250
v-263q0 -6 -6 -6h-238q-6 0 -6 6zM244 249v-32q0 -10 10 -10h2q8 0 8 -9v-31q0 -6 5.5 -9.5t10.5 0t5 9.5v28q0 8 8 8t8 -8v-94q0 -5 4 -9.5t9.5 -4.5t9.5 4.5t4 9.5v73q0 5 3.5 8.5t7.5 3.5q7 0 7 6v57h-102z" />
    <glyph glyph-name="uacute" unicode="&#xfa;" 
d="M389 360q12 0 23 -6t17 -17t6 -24q0 -19 -13.5 -33t-32.5 -14q-13 0 -24 6.5t-17 17.5t-6 23q0 20 13.5 33.5t33.5 13.5zM123 360q13 0 24 -6t17 -17t6 -24q0 -19 -13.5 -33t-33.5 -14q-12 0 -23 6.5t-17 17.5t-6 23q0 20 13.5 33.5t32.5 13.5zM256.5 454q28.5 0 49 -20
t20.5 -49q0 -19 -9.5 -35t-25.5 -25.5t-35 -9.5q-28 0 -48.5 20.5t-20.5 49.5t20.5 49t49 20zM463 37h-81v151q0 29 -14 57q12 3 21 3q31 0 52.5 -22t21.5 -53v-136zM130 188v-151h-81v136q0 31 21.5 53t52.5 22q12 0 21 -3q-14 -28 -14 -57zM147 -6v194q0 45 32 77t77 32
t77 -32t32 -77v-194h-218z" />
    <glyph glyph-name="ucircumflex" unicode="&#xfb;" 
d="M256 459q79 0 135.5 -56.5t56.5 -136t-56.5 -135.5t-135.5 -56t-135.5 56t-56.5 135.5t56.5 136t135.5 56.5zM102 267q0 -53 33 -94l215 215q-41 32 -94 32q-64 0 -109 -45t-45 -108zM256 113q64 0 109 45t45 109q0 52 -33 94l-215 -215q41 -33 94 -33z" />
    <glyph glyph-name="udieresis" unicode="&#xfc;" 
d="M256 96q-71 0 -121 50t-50 121q0 70 50.5 120t120.5 50t120.5 -50t50.5 -120.5t-50.5 -120.5t-120.5 -50zM192 298l-39 -39l38 -38l39 -39l39 39l90 89l-39 39l-90 -89z" />
    <glyph glyph-name="yacute" unicode="&#xfd;" 
d="M392 197q-4 5 -4 9.5t4 9.5q3 4 9 4q7 0 10 -4q8 -11 13 -23q4 -10 4 -22q1 -22 -10 -41t-30 -28q-21 -10 -41 -7q-12 1 -21 5q-10 4 -19 12q3 1 11 4.5t12 4.5q-2 -13 -7 -25q-5 -10 -13 -19q-14 -16 -35.5 -21.5t-41.5 1.5q-21 7 -34 23q-7 10 -12 21q-3 8 -5 20
q4 -1 8 -2.5t8 -3.5t7 -3q-10 -9 -22 -13q-10 -4 -23 -5q-21 -1 -40.5 10.5t-28.5 30.5q-10 20 -7 40q1 12 5 22q5 10 12 19q2 -3 3.5 -7t3 -8.5t3.5 -7.5q-14 1 -26 7q-10 4 -19 13q-15 14 -20.5 35.5t0.5 41.5q8 21 24 34q9 7 20 12q9 3 21 4q-2 -3 -5 -11t-5 -12
q-8 11 -13 23q-4 10 -4 23q-1 21 10 40t30 28q21 10 41 8q12 -2 21 -6q10 -4 19 -12q-3 -1 -11 -4t-12 -5q2 14 7 26q5 9 13 18q14 16 35.5 21.5t41.5 -1.5q21 -7 34 -23q7 -9 12 -20q3 -9 5 -21q-4 2 -12 5t-11 4q10 9 22 14q10 4 23 4q21 1 40.5 -10.5t28.5 -30.5
q10 -20 7 -40q-1 -12 -5 -21q-5 -10 -12 -20q-2 4 -5 11.5t-5 11.5q14 -1 26 -7q10 -4 19 -12q15 -15 20.5 -36.5t-0.5 -41.5q-8 -21 -24 -33q-9 -8 -20 -12q-9 -4 -21 -5q-5 -1 -9 3.5t-4 10t4 9.5q3 3 9 4h3h-2h-2q8 1 15 4q-1 -1 -3 -1q6 2 10 5q2 1 3 2l-2 -1q1 1 2 1
q2 1 3.5 3t3.5 5l1 1l-1 -1q1 0 1.5 0.5t0.5 1.5q3 5 5 10q0 -2 -1 -3q3 7 4 15v-2v-2q1 9 0 17v-2v-2q-1 8 -4 16q1 -2 1 -4q-2 6 -5 11l-2 2l1 -1l-1 1q-1 2 -3 4t-5 4q0 1 -1 1l1 -1l-0.5 0.5t-1.5 0.5q-4 3 -10 6q1 -1 2 -1.5l1 -0.5q-7 3 -15 4h2h2h-1.5h-1.5
q-9 1 -12 8.5t3 14.5l0.5 1l0.5 1q1 1 2 3l4 8l-2 -4q3 8 4 16v-2v-2q1 8 0 16v-1.5v-1.5q-1 8 -4 15q1 -2 2 -3l-6 10l-1 2v-1v1q-2 2 -4 4.5t-5 3.5l-1 1l1 -1q0 1 -1 1.5l-1 0.5q-4 3 -10 5l3 -1q-7 3 -15 4h2h2q-9 1 -17 0h2h2q-8 -1 -15 -4q1 1 3 1q-4 -2 -8 -3l-3 -3
q-1 0 -2 -1l2 1h-0.5t-0.5 -1q-8 -6 -15 -2.5t-8 12.5l-1 2l0.5 -1.5l0.5 -1.5q-1 8 -4 15q0 -2 1 -3q-2 5 -6 10q-1 1 -1 2l1 -1l-1 1l-4 4l-4 4l-1 1l1 -1l-1 0.5t-1 1.5q-5 3 -10 5q1 -1 3 -1q-7 3 -15 4l1.5 -0.5l1.5 -0.5q-8 1 -16 0l1.5 0.5l1.5 0.5q-8 -1 -15 -4
q2 0 3 1q-5 -2 -10 -6q-1 0 -2 -1l1 1l-1 -1l-4 -4l-4 -4l-1 -1l1 1l-0.5 -1t-1.5 -1q-3 -5 -5 -10q1 1 1 3q-3 -7 -4 -15l0.5 1.5l0.5 1.5v-1l-1 -1q0 -9 -7.5 -12.5t-15.5 2.5l-0.5 0.5l-0.5 0.5l-3 3q-4 2 -8 3q2 0 3 -1q-7 3 -15 4h2h2q-9 1 -17 0h2h2q-8 -1 -15 -4l3 1
q-6 -2 -10 -5l-2 -2l1 1q-1 0 -1 -1q-3 -2 -5 -4l-4 -4q0 -1 -1 -1l1 1l-0.5 -1l-0.5 -1l-6 -10q1 1 2 3q-3 -8 -4 -15v1.5v1.5q-1 -8 0 -16v2v2q1 -8 4 -16l-2 4q2 -5 4 -8q1 -2 2 -3l2 -2l-2 1h1v-1q6 -7 3 -14.5t-12 -8.5h-3h2t2 1q-8 -2 -15 -5q1 1 3 2q-6 -3 -10 -6
q-2 -1 -3 -1h2q-1 0 -2 -1q-2 -1 -4 -3t-3 -4l-1 -1l1 1l-1 -1l-1 -2q-3 -4 -5 -10q0 1 0.5 2t0.5 2q-3 -8 -4 -16v2v2q-1 -8 0 -16v1.5v1.5q1 -8 4 -15q-1 1 -1 3q2 -5 5 -10l2 -2l-1 1q0 -1 1 -1q1 -2 3 -4t5 -4l1 -1l-1 1q0 -1 1 -1.5l1 -0.5q4 -3 10 -5l-3 1q7 -3 15 -4
h-2h-2h1.5h1.5q9 -1 12 -8.5t-3 -14.5l-0.5 -0.5l-0.5 -0.5l-2 -4q-2 -4 -4 -7q1 0 1.5 1t0.5 2q-3 -7 -4 -15v1.5v1.5q-1 -8 0 -16v2v2q1 -8 4 -16l-2 4q3 -6 6 -11l1 -1v-1v1v-1l4 -4t5 -4l1 -1l-1 1l1 -0.5t1 -1.5q4 -3 10 -5q-1 0 -2 0.5l-1 0.5q7 -3 15 -4q-1 0 -2 0.5
t-2 0.5q9 -1 17 0q-1 0 -2 -0.5t-2 -0.5q8 1 15 4q-1 0 -3 -1l8 4q1 1 3 2q1 1 2 1l-2 -1l1 1q8 6 15 3t8 -13l1 -2q0 1 -0.5 2t-0.5 2q1 -8 4 -16q0 1 -0.5 2t-0.5 2q2 -6 6 -11q1 -1 1 -2l-1 1l1 -1l4 -4l4 -4l1 -1l-1 1l1 -0.5l1 -0.5l10 -6q-1 1 -3 2q7 -3 15 -5
q0 1 -1.5 1h-1.5q8 -1 16 0h-1.5t-1.5 -1q7 2 15 5q-2 -1 -3 -2l10 6q1 1 2 1h-1h1l4 4l4 4l1 1l-1 -1q0 1 0.5 1.5l1.5 1.5q3 4 5 10q0 -1 -0.5 -2t-0.5 -2q3 8 4 16q0 -1 -0.5 -2t-0.5 -2l0.5 1l0.5 1q0 10 7.5 13t15.5 -3l0.5 -0.5l0.5 -0.5q1 -1 3 -2l8 -4q-2 1 -3 1
q7 -3 15 -4q-1 0 -2 0.5t-2 0.5q9 -1 17 0q-1 0 -2 -0.5t-2 -0.5q8 1 15 4l-1.5 -0.5l-1.5 -0.5q6 2 10 6h2v1l-1 -1l1 1q3 2 5 4l4 4q0 1 1 1l-1 -1q0 1 0.5 1.5t0.5 1.5q3 4 6 10q-1 -1 -1 -2t-1 -2q3 8 4 16v-2v-2q1 8 0 16v-1.5v-1.5q-1 8 -4 15q1 -2 2 -3q-2 4 -4 7
l-2 4q-1 1 -2 1l2 -1q-1 0 -1 0.5v0.5zM314 267q0 5 4 9t10 4q5 0 9 -4t4 -9q0 -7 -1 -15q-4 -25 -22.5 -44.5t-43.5 -24.5q-28 -6 -54 6q-23 11 -37 34t-12 49q2 28 20 50q16 20 42.5 27t50.5 -2q26 -9 42 -32q15 -21 15 -48q0 -6 -4 -10t-9 -4q-2 0 -4 0.5t-4 2t-3 3t-2 4
t-1 4.5v10v-2v-2q-1 9 -5 18l0.5 -1.5t1.5 -1.5q-3 6 -7 12l-2 3l1 -1q-1 0 -1 1q-2 3 -5 5q-2 2 -5 4q0 1 -1 2l1 -1q-2 1 -3 2q-5 3 -12 6q2 0 3 -1q-8 4 -18 5q1 0 2 -0.5t2 -0.5q-10 2 -20 0q1 0 2 0.5t2 0.5q-10 -1 -18 -5q1 1 3 1q-6 -2 -12 -6q-1 0 -3 -2h1
q-1 0 -1 -1q-3 -2 -5 -4l-5 -5q0 -1 -1 -1l1 1q-1 -2 -2 -3q-4 -6 -7 -12q1 0 1.5 1.5l0.5 1.5q-4 -9 -5 -18v2v2q-1 -10 0 -20v1.5v1.5q1 -9 5 -18q0 1 -0.5 2t-1.5 1q3 -6 7 -11q0 -1 2 -3h-1q1 0 1 -1l5 -5q2 -2 5 -4q0 -1 1 -1l-1 1q2 -2 3 -2q5 -4 12 -7q-1 0 -2 0.5
l-1 0.5q8 -3 18 -5q-1 1 -2 1h-2q10 -1 20 0h-2t-2 -1q10 2 18 5l-1 -0.5t-2 -0.5q6 3 12 7q1 0 3 2l-1 -1q1 0 1 1q3 2 5 4l5 5q0 1 1 2l-1 -1q1 2 2 3q4 5 7 11q-1 0 -1.5 -1t-0.5 -2q4 9 5 18v-1.5v-1.5v10z" />
    <glyph glyph-name="thorn" unicode="&#xfe;" 
d="M344 355q44 20 97 18q-25 -46 -64 -74q48 -5 92 -32q-44 -28 -92 -33q39 -28 64 -74q-53 -1 -97 18q20 -44 19 -96q-46 25 -75 64q-5 -48 -32 -93q-27 45 -32 93q-29 -39 -75 -64q-1 52 19 96q-44 -19 -97 -18q25 46 64 74q-48 5 -92 33q44 27 92 32q-39 28 -64 74
q53 2 97 -18q-20 44 -19 96q46 -25 75 -63q5 47 32 92q27 -45 32 -92q29 38 75 63q1 -52 -19 -96zM232 308q-10 31 -9 61q-23 38 -63 63q3 -47 24 -85q26 -15 48 -39zM234 366q0 -45 22 -88q22 45 22 90t-22 90q-23 -45 -22 -92zM90 362q55 -84 156 -90q-58 85 -156 90z
M304 267q32 -8 58 -23q43 1 85 23q-42 21 -85 22q-27 -15 -58 -22zM266 261q55 -84 156 -90q-55 84 -156 90zM422 362q-101 -5 -156 -90q100 6 156 90zM289 369q1 -30 -9 -61q22 24 48 39q21 38 24 85q-40 -25 -63 -63zM150 289q-43 -1 -85 -22q42 -22 85 -23q28 16 58 23
q-35 9 -58 22zM246 261q-101 -6 -156 -90q101 6 156 90zM184 186q-21 -38 -24 -85q40 26 63 63q0 32 9 61q-21 -22 -48 -39zM256 255q-45 -90 0 -180q45 90 0 180zM289 164q23 -37 63 -63q-3 47 -24 85q-27 16 -48 39q10 -31 9 -61z" />
    <glyph glyph-name="ydieresis" unicode="&#xff;" 
d="M256 358q14 -6 20 -21t0 -29l6 -4q9 13 24.5 15.5t28.5 -7.5q1 -7 -1.5 -14.5t-7 -13t-11 -9.5t-13.5 -5v-7q15 -2 25 -14t8 -28q-13 -9 -28.5 -7t-24.5 15q-3 -2 -6 -3q6 -15 0 -29.5t-20 -21.5q-14 7 -20 21.5t0 29.5q-3 1 -6 3q-9 -13 -24.5 -15t-28.5 7q-2 16 8 28
t25 14v7q-15 2 -25 14.5t-8 27.5q13 10 28.5 7.5t24.5 -15.5l6 4q-6 14 0 29t20 21zM255 297q-12 0 -20.5 -9t-8.5 -21q0 -13 8.5 -22t21.5 -9t21.5 9t8.5 22t-9 22t-22 8zM184 392q18 1 33 -10t20 -29q-13 -14 -11 -34q-16 11 -35 7q-14 13 -16 32t9 34zM111 267
q6 11 15.5 18t21 9.5t24.5 -1.5q6 -18 23 -26q-17 -9 -23 -27q-18 -5 -35.5 2.5t-25.5 24.5zM184 141q-11 16 -9 34.5t16 31.5q19 -4 35 7q-2 -19 11 -34q-5 -18 -20 -29t-33 -10zM328 141q-18 -1 -33 10t-20 29q13 15 11 34q16 -11 35 -7q14 -13 16 -31.5t-9 -34.5z
M401 267q-8 -17 -25.5 -24.5t-35.5 -2.5q-6 18 -23 27q17 8 23 26q18 6 35.5 -2t25.5 -24zM328 392q11 -15 9 -34t-16 -32q-19 4 -35 -7q2 20 -11 34q5 18 20 29t33 10zM221 389q-3 19 7 36t28 25q12 -5 20.5 -14.5t12.5 -21.5t2 -25q-16 -11 -22 -30q-6 5 -13 7
q-7 -2 -13 -7q-6 19 -22 30zM132 298q-17 7 -27 24t-7 36q15 12 34.5 12t35.5 -12q1 -19 14 -34q-7 -3 -12 -8q-2 -7 0 -14q-20 4 -38 -4zM214 408q-1 -7 -1 -14q-16 8 -34 5q-10 -14 -12 -31q-5 3 -12 6q-8 28 10 51q29 4 49 -17zM168 175q-16 -12 -35.5 -12t-34.5 12
q-3 20 7 36.5t27 24.5q18 -8 38 -4q-2 -8 0 -15q5 -5 12 -8q-13 -14 -14 -34zM291 144q3 -19 -7 -36t-28 -24q-18 7 -28 24t-7 36q16 12 22 30q6 -4 13 -7q7 3 13 7q6 -18 22 -30zM380 236q17 -8 27 -24.5t7 -36.5q-15 -12 -34.5 -12t-35.5 12q-1 20 -14 34q7 3 12 8
q2 7 0 15q20 -4 38 4zM344 358q16 12 35.5 12t34.5 -12q3 -19 -7 -36t-27 -24q-18 8 -38 4q2 7 0 14q-5 5 -12 8q13 15 14 34zM113 301q5 -5 11 -8q-14 -10 -21 -26q7 -17 21 -27q-6 -3 -11 -7q-29 7 -40 34q11 27 40 34zM155 160q7 2 12 6q2 -18 12 -32q18 -2 34 6
q0 -7 1 -14q-20 -22 -49 -18q-18 24 -10 52zM298 126q1 7 1 14q16 -8 34 -6q10 14 12 32q5 -4 12 -6q8 -28 -10 -52q-29 -4 -49 18zM399 233q-5 4 -11 7q14 10 21 27q-7 16 -21 26q6 3 11 8q29 -7 40 -34q-11 -27 -40 -34zM357 374q-7 -3 -12 -6q-2 17 -12 31q-18 3 -34 -5
q0 7 -1 14q20 21 49 17q18 -23 10 -51zM334 433q-22 -2 -38 -17q-7 21 -25 34q12 28 42 30q26 -17 21 -47zM241 450q-18 -13 -25 -34q-16 15 -38 17q-5 30 21 47q30 -2 42 -30zM151 418q-9 -20 -4 -42q-22 5 -42 -5q-19 24 -5 52q27 14 51 -5zM90 345q2 -22 17 -38
q-22 -7 -34 -25q-29 11 -30 42q16 25 47 21zM73 251q12 -18 34 -24q-15 -17 -17 -39q-31 -4 -47 22q1 30 30 41zM105 162q20 -10 42 -5q-5 -21 4 -41q-24 -19 -51 -6q-14 28 5 52zM178 100q22 2 38 17q7 -21 25 -34q-12 -28 -42 -30q-26 17 -21 47zM271 83q18 13 25 34
q16 -15 38 -17q5 -30 -21 -47q-30 2 -42 30zM361 116q9 20 4 41q22 -5 42 5q19 -24 5 -52q-27 -13 -51 6zM422 188q-2 22 -17 39q22 6 34 24q29 -11 30 -41q-16 -26 -47 -22zM439 282q-12 18 -34 25q15 16 17 38q31 4 47 -21q-1 -31 -30 -42zM407 371q-20 10 -42 5
q5 22 -4 42q24 19 51 5q14 -28 -5 -52z" />
    <glyph glyph-name="Amacron" unicode="&#x100;" 
d="M354 365q15 40 14 87v8l-8 -4q-41 -22 -68 -55q-7 42 -31 82l-5 7l-5 -7q-24 -40 -31 -82q-27 33 -68 55l-8 4v-8q-1 -47 14 -87q-40 15 -87 14l-9 -1l5 -7q22 -41 55 -68q-42 -7 -82 -32l-8 -4l8 -5q40 -24 82 -31q-33 -27 -55 -68l-5 -8h9q47 -1 87 13q-15 -39 -14 -86
v-9l8 4q41 23 68 56q7 -43 31 -82l5 -8l5 8q24 39 31 82q27 -33 68 -56l8 -4v9q1 47 -14 86q40 -14 87 -13h9l-5 8q-22 41 -55 68q42 7 82 31l8 5l-8 4q-40 25 -82 32q33 27 55 68l5 7l-9 1q-47 1 -87 -14zM347 350q38 17 85 18q-24 -40 -58 -65l-11 -8l13 -1q42 -5 83 -27
q-41 -23 -83 -27l-13 -2l11 -8q34 -25 58 -65q-47 1 -85 18l-13 6l6 -13q17 -39 17 -85q-39 24 -64 58l-8 11l-2 -14q-4 -42 -27 -82q-23 40 -27 82l-2 14l-8 -11q-25 -34 -64 -58q0 46 17 85l6 13l-13 -6q-38 -17 -85 -18q24 40 58 65l11 8l-13 2q-42 4 -83 27q41 22 83 27
l13 1l-11 8q-34 25 -58 65q47 -1 85 -18l13 -5l-6 12q-17 39 -17 85q39 -24 64 -58l8 -11l2 14q4 42 27 82q23 -40 27 -82l2 -14l8 11q25 34 64 58q0 -46 -17 -85l-6 -12zM222 326q-17 15 -34 25q-17 31 -21 70q31 -23 50 -53q0 -21 5 -42zM237 310q-9 30 -9 59v2l-1 1
q-23 38 -64 65l-9 6l1 -11q3 -48 24 -88l1 -1l1 -1q25 -14 47 -38l16 -17zM239 366q-1 39 17 79q17 -39 17 -77q0 -37 -17 -77q-17 39 -17 75zM228 366q1 -46 23 -90l5 -10l5 10q23 45 23 92t-23 92l-5 10l-5 -10q-23 -46 -23 -94zM101 356q82 -9 134 -77q-84 9 -134 77z
M86 359q56 -86 160 -92l11 -1l-7 9q-59 87 -159 93h-11zM324 267q20 6 39 17q35 -2 72 -17q-37 -16 -72 -17q-18 10 -39 17zM302 261q32 -7 57 -21l1 -1h2q44 1 88 23l9 5l-9 4q-44 22 -88 23h-2h-1q-26 -15 -57 -22l-23 -5zM277 255q84 -10 134 -78q-84 10 -134 78z
M261 258q57 -87 160 -92l11 -1l-6 9q-56 86 -160 92l-10 1zM411 356q-50 -68 -134 -77q50 68 134 77zM421 368q-103 -6 -160 -93l-5 -9l10 1q103 6 160 92l6 9h-11zM295 368q19 30 50 53q-4 -39 -21 -70q-17 -10 -34 -25q5 21 5 42zM284 369q0 -29 -9 -59l-7 -23l16 17
q22 24 47 38l1 1l1 1q21 40 24 88l1 11l-9 -6q-41 -27 -64 -65l-1 -1v-2zM149 284q18 -10 39 -17q-20 -7 -39 -17q-35 1 -72 17q37 15 72 17zM150 294q-44 -1 -88 -23l-9 -4l9 -5q44 -22 88 -23h2l1 1q27 15 57 21l21 5l-21 6q-35 9 -57 22h-1h-2zM235 255q-50 -68 -134 -78
q50 68 134 78zM246 266q-104 -6 -160 -92l-6 -9l11 1q103 5 160 92l5 9zM188 182q18 12 34 26q-4 -21 -5 -43q-19 -30 -50 -53q4 39 21 70zM179 189q-21 -39 -24 -88l-1 -10l9 6q41 26 64 64l1 1v2q0 31 9 60l7 23l-16 -18q-20 -22 -47 -38l-1 -1zM256 243q34 -78 0 -155
q-34 77 0 155zM251 258q-46 -93 0 -185l5 -9l5 9q46 92 0 185l-5 9zM295 165q0 21 -5 43q16 -15 34 -26q17 -31 21 -70q-31 23 -50 53zM285 161q23 -38 64 -64l9 -6l-1 10q-3 49 -24 88l-1 1l-1 1q-26 15 -47 38l-16 18l7 -23q9 -31 9 -60v-2zM222 326q-17 15 -34 25
q-17 31 -21 70q31 -23 50 -53q0 -21 5 -42zM237 310q-9 30 -9 59v2l-1 1q-23 38 -64 65l-9 6l1 -11q3 -48 24 -88l1 -1l1 -1q25 -14 47 -38l16 -17zM239 366q-1 39 17 79q17 -39 17 -77q0 -37 -17 -77q-17 39 -17 75zM228 366q1 -46 23 -90l5 -10l5 10q23 45 23 92t-23 92
l-5 10l-5 -10q-23 -46 -23 -94zM101 356q82 -9 134 -77q-84 9 -134 77zM86 359q56 -86 160 -92l11 -1l-7 9q-59 87 -159 93h-11zM324 267q20 6 39 17q35 -2 72 -17q-37 -16 -72 -17q-18 10 -39 17zM302 261q32 -7 57 -21l1 -1h2q44 1 88 23l9 5l-9 4q-44 22 -88 23h-2h-1
q-26 -15 -57 -22l-23 -5zM277 255q84 -10 134 -78q-84 10 -134 78zM261 258q57 -87 160 -92l11 -1l-6 9q-56 86 -160 92l-10 1zM411 356q-50 -68 -134 -77q50 68 134 77zM421 368q-103 -6 -160 -93l-5 -9l10 1q103 6 160 92l6 9h-11zM295 368q19 30 50 53q-4 -39 -21 -70
q-17 -10 -34 -25q5 21 5 42zM284 369q0 -29 -9 -59l-7 -23l16 17q22 24 47 38l1 1l1 1q21 40 24 88l1 11l-9 -6q-41 -27 -64 -65l-1 -1v-2zM149 284q18 -10 39 -17q-20 -7 -39 -17q-35 1 -72 17q37 15 72 17zM150 294q-44 -1 -88 -23l-9 -4l9 -5q44 -22 88 -23h2l1 1
q27 15 57 21l21 5l-21 6q-35 9 -57 22h-1h-2zM235 255q-50 -68 -134 -78q50 68 134 78zM246 266q-104 -6 -160 -92l-6 -9l11 1q103 5 160 92l5 9zM188 182q18 12 34 26q-4 -21 -5 -43q-19 -30 -50 -53q4 39 21 70zM179 189q-21 -39 -24 -88l-1 -10l9 6q41 26 64 64l1 1v2
q0 31 9 60l7 23l-16 -18q-20 -22 -47 -38l-1 -1zM256 243q34 -78 0 -155q-34 77 0 155zM251 258q-46 -93 0 -185l5 -9l5 9q46 92 0 185l-5 9zM295 165q0 21 -5 43q16 -15 34 -26q17 -31 21 -70q-31 23 -50 53zM285 161q23 -38 64 -64l9 -6l-1 10q-3 49 -24 88l-1 1l-1 1
q-26 15 -47 38l-16 18l7 -23q9 -31 9 -60v-2zM239 366q-1 39 17 79q17 -39 17 -77q0 -37 -17 -77q-17 39 -17 75zM228 366q1 -46 23 -90l5 -10l5 10q23 45 23 92t-23 92l-5 10l-5 -10q-23 -46 -23 -94zM101 356q82 -9 134 -77q-84 9 -134 77zM86 359q56 -86 160 -92l11 -1
l-7 9q-59 87 -159 93h-11zM324 267q20 6 39 17q35 -2 72 -17q-37 -16 -72 -17q-18 10 -39 17zM302 261q32 -7 57 -21l1 -1h2q44 1 88 23l9 5l-9 4q-44 22 -88 23h-2h-1q-26 -15 -57 -22l-23 -5zM277 255q84 -10 134 -78q-84 10 -134 78zM261 258q57 -87 160 -92l11 -1l-6 9
q-56 86 -160 92l-10 1zM411 356q-50 -68 -134 -77q50 68 134 77zM421 368q-103 -6 -160 -93l-5 -9l10 1q103 6 160 92l6 9h-11zM295 368q19 30 50 53q-4 -39 -21 -70q-17 -10 -34 -25q5 21 5 42zM284 369q0 -29 -9 -59l-7 -23l16 17q22 24 47 38l1 1l1 1q21 40 24 88l1 11
l-9 -6q-41 -27 -64 -65l-1 -1v-2zM149 284q18 -10 39 -17q-20 -7 -39 -17q-35 1 -72 17q37 15 72 17zM150 294q-44 -1 -88 -23l-9 -4l9 -5q44 -22 88 -23h2l1 1q27 15 57 21l21 5l-21 6q-35 9 -57 22h-1h-2zM235 255q-50 -68 -134 -78q50 68 134 78zM246 266
q-104 -6 -160 -92l-6 -9l11 1q103 5 160 92l5 9zM188 182q18 12 34 26q-4 -21 -5 -43q-19 -30 -50 -53q4 39 21 70zM179 189q-21 -39 -24 -88l-1 -10l9 6q41 26 64 64l1 1v2q0 31 9 60l7 23l-16 -18q-20 -22 -47 -38l-1 -1zM256 243q34 -78 0 -155q-34 77 0 155zM251 258
q-46 -93 0 -185l5 -9l5 9q46 92 0 185l-5 9zM295 165q0 21 -5 43q16 -15 34 -26q17 -31 21 -70q-31 23 -50 53zM285 161q23 -38 64 -64l9 -6l-1 10q-3 49 -24 88l-1 1l-1 1q-26 15 -47 38l-16 18l7 -23q9 -31 9 -60v-2zM101 356q82 -9 134 -77q-84 9 -134 77zM86 359
q56 -86 160 -92l11 -1l-7 9q-59 87 -159 93h-11zM324 267q20 6 39 17q35 -2 72 -17q-37 -16 -72 -17q-18 10 -39 17zM302 261q32 -7 57 -21l1 -1h2q44 1 88 23l9 5l-9 4q-44 22 -88 23h-2h-1q-26 -15 -57 -22l-23 -5zM277 255q84 -10 134 -78q-84 10 -134 78zM261 258
q57 -87 160 -92l11 -1l-6 9q-56 86 -160 92l-10 1zM411 356q-50 -68 -134 -77q50 68 134 77zM421 368q-103 -6 -160 -93l-5 -9l10 1q103 6 160 92l6 9h-11zM295 368q19 30 50 53q-4 -39 -21 -70q-17 -10 -34 -25q5 21 5 42zM284 369q0 -29 -9 -59l-7 -23l16 17q22 24 47 38
l1 1l1 1q21 40 24 88l1 11l-9 -6q-41 -27 -64 -65l-1 -1v-2zM149 284q18 -10 39 -17q-20 -7 -39 -17q-35 1 -72 17q37 15 72 17zM150 294q-44 -1 -88 -23l-9 -4l9 -5q44 -22 88 -23h2l1 1q27 15 57 21l21 5l-21 6q-35 9 -57 22h-1h-2zM235 255q-50 -68 -134 -78
q50 68 134 78zM246 266q-104 -6 -160 -92l-6 -9l11 1q103 5 160 92l5 9zM188 182q18 12 34 26q-4 -21 -5 -43q-19 -30 -50 -53q4 39 21 70zM179 189q-21 -39 -24 -88l-1 -10l9 6q41 26 64 64l1 1v2q0 31 9 60l7 23l-16 -18q-20 -22 -47 -38l-1 -1zM256 243q34 -78 0 -155
q-34 77 0 155zM251 258q-46 -93 0 -185l5 -9l5 9q46 92 0 185l-5 9zM295 165q0 21 -5 43q16 -15 34 -26q17 -31 21 -70q-31 23 -50 53zM285 161q23 -38 64 -64l9 -6l-1 10q-3 49 -24 88l-1 1l-1 1q-26 15 -47 38l-16 18l7 -23q9 -31 9 -60v-2zM324 267q20 6 39 17
q35 -2 72 -17q-37 -16 -72 -17q-18 10 -39 17zM302 261q32 -7 57 -21l1 -1h2q44 1 88 23l9 5l-9 4q-44 22 -88 23h-2h-1q-26 -15 -57 -22l-23 -5zM277 255q84 -10 134 -78q-84 10 -134 78zM261 258q57 -87 160 -92l11 -1l-6 9q-56 86 -160 92l-10 1zM411 356
q-50 -68 -134 -77q50 68 134 77zM421 368q-103 -6 -160 -93l-5 -9l10 1q103 6 160 92l6 9h-11zM295 368q19 30 50 53q-4 -39 -21 -70q-17 -10 -34 -25q5 21 5 42zM284 369q0 -29 -9 -59l-7 -23l16 17q22 24 47 38l1 1l1 1q21 40 24 88l1 11l-9 -6q-41 -27 -64 -65l-1 -1v-2z
M149 284q18 -10 39 -17q-20 -7 -39 -17q-35 1 -72 17q37 15 72 17zM150 294q-44 -1 -88 -23l-9 -4l9 -5q44 -22 88 -23h2l1 1q27 15 57 21l21 5l-21 6q-35 9 -57 22h-1h-2zM235 255q-50 -68 -134 -78q50 68 134 78zM246 266q-104 -6 -160 -92l-6 -9l11 1q103 5 160 92l5 9z
M188 182q18 12 34 26q-4 -21 -5 -43q-19 -30 -50 -53q4 39 21 70zM179 189q-21 -39 -24 -88l-1 -10l9 6q41 26 64 64l1 1v2q0 31 9 60l7 23l-16 -18q-20 -22 -47 -38l-1 -1zM256 243q34 -78 0 -155q-34 77 0 155zM251 258q-46 -93 0 -185l5 -9l5 9q46 92 0 185l-5 9z
M295 165q0 21 -5 43q16 -15 34 -26q17 -31 21 -70q-31 23 -50 53zM285 161q23 -38 64 -64l9 -6l-1 10q-3 49 -24 88l-1 1l-1 1q-26 15 -47 38l-16 18l7 -23q9 -31 9 -60v-2zM277 255q84 -10 134 -78q-84 10 -134 78zM261 258q57 -87 160 -92l11 -1l-6 9q-56 86 -160 92
l-10 1zM411 356q-50 -68 -134 -77q50 68 134 77zM421 368q-103 -6 -160 -93l-5 -9l10 1q103 6 160 92l6 9h-11zM295 368q19 30 50 53q-4 -39 -21 -70q-17 -10 -34 -25q5 21 5 42zM284 369q0 -29 -9 -59l-7 -23l16 17q22 24 47 38l1 1l1 1q21 40 24 88l1 11l-9 -6
q-41 -27 -64 -65l-1 -1v-2zM149 284q18 -10 39 -17q-20 -7 -39 -17q-35 1 -72 17q37 15 72 17zM150 294q-44 -1 -88 -23l-9 -4l9 -5q44 -22 88 -23h2l1 1q27 15 57 21l21 5l-21 6q-35 9 -57 22h-1h-2zM235 255q-50 -68 -134 -78q50 68 134 78zM246 266q-104 -6 -160 -92
l-6 -9l11 1q103 5 160 92l5 9zM188 182q18 12 34 26q-4 -21 -5 -43q-19 -30 -50 -53q4 39 21 70zM179 189q-21 -39 -24 -88l-1 -10l9 6q41 26 64 64l1 1v2q0 31 9 60l7 23l-16 -18q-20 -22 -47 -38l-1 -1zM256 243q34 -78 0 -155q-34 77 0 155zM251 258q-46 -93 0 -185l5 -9
l5 9q46 92 0 185l-5 9zM295 165q0 21 -5 43q16 -15 34 -26q17 -31 21 -70q-31 23 -50 53zM285 161q23 -38 64 -64l9 -6l-1 10q-3 49 -24 88l-1 1l-1 1q-26 15 -47 38l-16 18l7 -23q9 -31 9 -60v-2zM411 356q-50 -68 -134 -77q50 68 134 77zM421 368q-103 -6 -160 -93l-5 -9
l10 1q103 6 160 92l6 9h-11zM295 368q19 30 50 53q-4 -39 -21 -70q-17 -10 -34 -25q5 21 5 42zM284 369q0 -29 -9 -59l-7 -23l16 17q22 24 47 38l1 1l1 1q21 40 24 88l1 11l-9 -6q-41 -27 -64 -65l-1 -1v-2zM149 284q18 -10 39 -17q-20 -7 -39 -17q-35 1 -72 17q37 15 72 17
zM150 294q-44 -1 -88 -23l-9 -4l9 -5q44 -22 88 -23h2l1 1q27 15 57 21l21 5l-21 6q-35 9 -57 22h-1h-2zM235 255q-50 -68 -134 -78q50 68 134 78zM246 266q-104 -6 -160 -92l-6 -9l11 1q103 5 160 92l5 9zM188 182q18 12 34 26q-4 -21 -5 -43q-19 -30 -50 -53q4 39 21 70z
M179 189q-21 -39 -24 -88l-1 -10l9 6q41 26 64 64l1 1v2q0 31 9 60l7 23l-16 -18q-20 -22 -47 -38l-1 -1zM256 243q34 -78 0 -155q-34 77 0 155zM251 258q-46 -93 0 -185l5 -9l5 9q46 92 0 185l-5 9zM295 165q0 21 -5 43q16 -15 34 -26q17 -31 21 -70q-31 23 -50 53z
M285 161q23 -38 64 -64l9 -6l-1 10q-3 49 -24 88l-1 1l-1 1q-26 15 -47 38l-16 18l7 -23q9 -31 9 -60v-2zM295 368q19 30 50 53q-4 -39 -21 -70q-17 -10 -34 -25q5 21 5 42zM284 369q0 -29 -9 -59l-7 -23l16 17q22 24 47 38l1 1l1 1q21 40 24 88l1 11l-9 -6q-41 -27 -64 -65
l-1 -1v-2zM149 284q18 -10 39 -17q-20 -7 -39 -17q-35 1 -72 17q37 15 72 17zM150 294q-44 -1 -88 -23l-9 -4l9 -5q44 -22 88 -23h2l1 1q27 15 57 21l21 5l-21 6q-35 9 -57 22h-1h-2zM235 255q-50 -68 -134 -78q50 68 134 78zM246 266q-104 -6 -160 -92l-6 -9l11 1
q103 5 160 92l5 9zM188 182q18 12 34 26q-4 -21 -5 -43q-19 -30 -50 -53q4 39 21 70zM179 189q-21 -39 -24 -88l-1 -10l9 6q41 26 64 64l1 1v2q0 31 9 60l7 23l-16 -18q-20 -22 -47 -38l-1 -1zM256 243q34 -78 0 -155q-34 77 0 155zM251 258q-46 -93 0 -185l5 -9l5 9
q46 92 0 185l-5 9zM295 165q0 21 -5 43q16 -15 34 -26q17 -31 21 -70q-31 23 -50 53zM285 161q23 -38 64 -64l9 -6l-1 10q-3 49 -24 88l-1 1l-1 1q-26 15 -47 38l-16 18l7 -23q9 -31 9 -60v-2zM149 284q18 -10 39 -17q-20 -7 -39 -17q-35 1 -72 17q37 15 72 17zM150 294
q-44 -1 -88 -23l-9 -4l9 -5q44 -22 88 -23h2l1 1q27 15 57 21l21 5l-21 6q-35 9 -57 22h-1h-2zM235 255q-50 -68 -134 -78q50 68 134 78zM246 266q-104 -6 -160 -92l-6 -9l11 1q103 5 160 92l5 9zM188 182q18 12 34 26q-4 -21 -5 -43q-19 -30 -50 -53q4 39 21 70zM179 189
q-21 -39 -24 -88l-1 -10l9 6q41 26 64 64l1 1v2q0 31 9 60l7 23l-16 -18q-20 -22 -47 -38l-1 -1zM256 243q34 -78 0 -155q-34 77 0 155zM251 258q-46 -93 0 -185l5 -9l5 9q46 92 0 185l-5 9zM295 165q0 21 -5 43q16 -15 34 -26q17 -31 21 -70q-31 23 -50 53zM285 161
q23 -38 64 -64l9 -6l-1 10q-3 49 -24 88l-1 1l-1 1q-26 15 -47 38l-16 18l7 -23q9 -31 9 -60v-2zM235 255q-50 -68 -134 -78q50 68 134 78zM246 266q-104 -6 -160 -92l-6 -9l11 1q103 5 160 92l5 9zM188 182q18 12 34 26q-4 -21 -5 -43q-19 -30 -50 -53q4 39 21 70zM179 189
q-21 -39 -24 -88l-1 -10l9 6q41 26 64 64l1 1v2q0 31 9 60l7 23l-16 -18q-20 -22 -47 -38l-1 -1zM256 243q34 -78 0 -155q-34 77 0 155zM251 258q-46 -93 0 -185l5 -9l5 9q46 92 0 185l-5 9zM295 165q0 21 -5 43q16 -15 34 -26q17 -31 21 -70q-31 23 -50 53zM285 161
q23 -38 64 -64l9 -6l-1 10q-3 49 -24 88l-1 1l-1 1q-26 15 -47 38l-16 18l7 -23q9 -31 9 -60v-2zM188 182q18 12 34 26q-4 -21 -5 -43q-19 -30 -50 -53q4 39 21 70zM179 189q-21 -39 -24 -88l-1 -10l9 6q41 26 64 64l1 1v2q0 31 9 60l7 23l-16 -18q-20 -22 -47 -38l-1 -1z
M256 243q34 -78 0 -155q-34 77 0 155zM251 258q-46 -93 0 -185l5 -9l5 9q46 92 0 185l-5 9zM295 165q0 21 -5 43q16 -15 34 -26q17 -31 21 -70q-31 23 -50 53zM285 161q23 -38 64 -64l9 -6l-1 10q-3 49 -24 88l-1 1l-1 1q-26 15 -47 38l-16 18l7 -23q9 -31 9 -60v-2z
M256 243q34 -78 0 -155q-34 77 0 155zM251 258q-46 -93 0 -185l5 -9l5 9q46 92 0 185l-5 9zM295 165q0 21 -5 43q16 -15 34 -26q17 -31 21 -70q-31 23 -50 53zM285 161q23 -38 64 -64l9 -6l-1 10q-3 49 -24 88l-1 1l-1 1q-26 15 -47 38l-16 18l7 -23q9 -31 9 -60v-2z
M295 165q0 21 -5 43q16 -15 34 -26q17 -31 21 -70q-31 23 -50 53zM285 161q23 -38 64 -64l9 -6l-1 10q-3 49 -24 88l-1 1l-1 1q-26 15 -47 38l-16 18l7 -23q9 -31 9 -60v-2zM344 355q44 20 97 18q-25 -46 -64 -74q48 -5 92 -32q-44 -28 -92 -33q39 -28 64 -74q-53 -1 -97 18
q20 -44 19 -96q-46 25 -75 64q-5 -48 -32 -93q-27 45 -32 93q-29 -39 -75 -64q-1 52 19 96q-44 -19 -97 -18q25 46 64 74q-48 5 -92 33q44 27 92 32q-39 28 -64 74q53 2 97 -18q-20 44 -19 96q46 -25 75 -63q5 47 32 92q27 -45 32 -92q29 38 75 63q1 -52 -19 -96zM232 308
q-10 31 -9 61q-23 38 -63 63q3 -47 24 -85q26 -15 48 -39zM234 366q0 -45 22 -88q22 45 22 90t-22 90q-23 -45 -22 -92zM90 362q55 -84 156 -90q-58 85 -156 90zM304 267q32 -8 58 -23q43 1 85 23q-42 21 -85 22q-27 -15 -58 -22zM266 261q55 -84 156 -90q-55 84 -156 90z
M422 362q-101 -5 -156 -90q100 6 156 90zM289 369q1 -30 -9 -61q22 24 48 39q21 38 24 85q-40 -25 -63 -63zM150 289q-43 -1 -85 -22q42 -22 85 -23q28 16 58 23q-35 9 -58 22zM246 261q-101 -6 -156 -90q101 6 156 90zM184 186q-21 -38 -24 -85q40 26 63 63q0 32 9 61
q-21 -22 -48 -39zM256 255q-45 -90 0 -180q45 90 0 180zM289 164q23 -37 63 -63q-3 47 -24 85q-27 16 -48 39q10 -31 9 -61z" />
    <glyph glyph-name="amacron" unicode="&#x101;" 
d="M358 268q30 -3 49 -29t19 -56q0 -37 -27 -61.5t-65 -24.5q-44 0 -71.5 33t-27.5 76q0 38 22.5 76.5t56.5 64.5q51 43 87 47q14 2 22 -3.5t8 -15.5q0 -3 -1.5 -6.5t-4 -6.5t-5.5 -5.5t-7 -5t-7 -4.5t-7 -4l-6 -3q-63 -37 -63 -60q0 -2 1 -3.5l2 -3t3.5 -2.5t4 -1.5t4.5 -1
t4.5 -0.5h4.5h4zM232 282q-25 -43 -25 -85q0 -37 19 -70q-19 -8 -41 -8q-44 0 -72 32.5t-28 76.5q0 38 23 76t56 65q52 42 88 47q14 1 21.5 -4.5t7.5 -15.5q0 -4 -2 -7.5t-4.5 -6.5t-7.5 -6.5t-8 -5.5t-8 -5t-7 -4q-63 -37 -63 -60q1 -10 27 -12q13 -1 24 -7z" />
    <glyph glyph-name="Abreve" unicode="&#x102;" 
d="M317 89v125q0 11 -7.5 18t-18.5 7h-80q-11 0 -19 -7t-8 -18v-125q0 -10 -8 -17.5t-19 -7.5h-66q-11 0 -19 7t-8 18v201q0 25 19 43l149 140q8 7 19 7t19 -7l148 -140q19 -18 19 -43v-201q0 -7 -3.5 -12.5t-9.5 -9t-13 -3.5h-67q-11 0 -19 7.5t-8 17.5z" />
    <glyph glyph-name="abreve" unicode="&#x103;" 
d="M422 395q24 1 42 -17t18 -43v-222q0 -25 -17.5 -42.5t-42.5 -17.5h-332q-25 0 -42.5 17.5t-17.5 42.5v222q0 25 17.5 42.5t42.5 17.5h70v12q0 29 21 50t50 21h50q29 0 50 -21t21 -50v-12h70zM203 407v-11h106v11q0 12 -8.5 20t-19.5 8h-50q-11 0 -19.5 -8t-8.5 -20z" />
    <glyph glyph-name="Aogonek" unicode="&#x104;" 
d="M175 323h-43q-5 0 -11 -1v44q0 47 36.5 80.5t88.5 33.5q23 0 49.5 -11t39.5 -22q8 -8 -1 -22q-7 -11 -18 -16t-21 2q-20 19 -49 19q-30 0 -50.5 -18.5t-20.5 -45.5v-43zM360 310q19 0 32 -12.5t13 -28.5v-174q0 -12 -6 -21.5t-16.5 -15t-22.5 -5.5h-229q-19 0 -32.5 12.5
t-13.5 29.5v173q0 17 13.5 29.5t32.5 12.5h229zM262 173q16 9 16 25q0 12 -9.5 21t-23 9t-23 -9t-9.5 -21q0 -16 15 -25v-2v-30q0 -6 5 -10.5t12 -4.5t12 4.5t5 10.5v30v2z" />
    <glyph glyph-name="aogonek" unicode="&#x105;" 
d="M175 323h-43q-5 0 -11 -1v44q0 47 36.5 80.5t88.5 33.5t88.5 -33.5t36.5 -80.5v-44q-7 1 -11 1h-44v43q0 26 -21 45q-20 19 -49 19q-30 0 -50.5 -18.5t-20.5 -45.5v-43zM360 310q19 0 32 -12.5t13 -28.5v-174q0 -12 -6 -21.5t-16.5 -15t-22.5 -5.5h-229q-19 0 -32.5 12.5
t-13.5 29.5v173q0 17 13.5 29.5t32.5 12.5h229zM262 173q16 9 16 25q0 12 -9.5 21t-23 9t-23 -9t-9.5 -21q0 -16 15 -25v-2v-30q0 -6 5 -10.5t12 -4.5t12 4.5t5 10.5v30v2z" />
    <glyph glyph-name="Cacute" unicode="&#x106;" 
d="M53 245q0 84 59.5 143.5t143.5 59.5t143.5 -59.5t59.5 -143.5t-59.5 -143t-143.5 -59t-143.5 59t-59.5 143zM32 245q0 -92 65.5 -158t158.5 -66t158.5 66t65.5 158.5t-65.5 158t-158.5 65.5q-61 0 -112.5 -30t-81.5 -81.5t-30 -112.5zM314 324h-31q7 -11 9 -25h30l-8 -27
h-22q-3 -24 -19 -36.5t-45 -15.5l68 -79v-2h-42l-74 86l-1 22h37q17 0 26.5 7t12.5 18h-79l8 27h70q-7 22 -38 22h-40l8 30h138z" />
    <glyph glyph-name="cacute" unicode="&#x107;" 
d="M53 245q0 84 59.5 143.5t143.5 59.5t143.5 -59.5t59.5 -143.5t-59.5 -143t-143.5 -59t-143.5 59t-59.5 143zM32 245q0 -92 65.5 -158t158.5 -66t158.5 66t65.5 158.5t-65.5 158t-158.5 65.5q-61 0 -112.5 -30t-81.5 -81.5t-30 -112.5zM163 310q0 20 13 32t33 12
q21 0 33.5 -12t12.5 -33v-10q0 -20 -12.5 -32t-33 -12t-33.5 12t-13 33v10zM191 299q0 -9 5 -14t13.5 -5t13 5t4.5 14v11q0 9 -4.5 14.5t-13.5 5.5q-8 0 -13 -5.5t-5 -14.5v-11zM265 191q0 19 12.5 31t33.5 12q20 0 33 -11.5t13 -32.5v-11q0 -19 -12.5 -31t-33.5 -12
t-33.5 12t-12.5 32v11zM293 179q0 -8 5 -13.5t13 -5.5q18 0 18 20v11q0 8 -5 13.5t-13 5.5t-13 -5.5t-5 -14.5v-11zM218 155l-21 11l104 166l20 -11z" />
    <glyph glyph-name="Ccircumflex" unicode="&#x108;" 
d="M442 267l25 -50q4 -8 1 -16.5t-11 -12.5l-51 -26l-10 -54q-2 -9 -9.5 -14t-16.5 -4l-57 8l-41 -38q-7 -7 -16 -7t-16 7l-41 38l-57 -8q-9 -1 -16.5 4t-9.5 14l-10 54l-51 26q-8 4 -11 12.5t1 16.5l25 50l-25 49q-4 8 -1 16.5t11 12.5l51 26l10 54q2 9 9.5 14t16.5 4
l57 -8l41 39q4 4 10 5.5t12 0t10 -5.5l41 -39l57 8q6 1 11.5 -1t9.5 -6.5t5 -10.5l10 -54l51 -26q8 -4 11 -12.5t-1 -16.5zM300 350l-112 -145q-9 -12 3 -21.5t21 2.5l112 144q9 13 -3 22.5t-21 -2.5zM300 178q10 0 16.5 6.5t6.5 16.5t-6.5 17t-16.5 7t-16.5 -7t-6.5 -17
q0 -6 3 -11.5t8.5 -8.5t11.5 -3zM208 302q9 0 16 7t7 16.5t-7 16.5t-16.5 7t-16 -7t-6.5 -16q0 -7 3 -12t8.5 -8.5t11.5 -3.5z" />
    <glyph glyph-name="ccircumflex" unicode="&#x109;" 
d="M84 308v-36q0 -10 10 -10h345q10 0 10 10v36h-365zM440 321l-108 65q-15 9 -15 26v48h-101v-48q0 -17 -14 -26l-109 -65h347zM439 242h-345q-12 0 -21 8.5t-9 21.5v49q0 6 5 9l122 73q5 3 5 9v58q0 10 10 10h121q11 0 11 -10v-58q0 -6 4 -9l123 -73q4 -3 4 -9v-49
q0 -8 -4 -15t-11 -11t-15 -4zM175.5 53q-10.5 0 -10.5 10q0 16 13 31q8 10 8 19t-8 18q-13 16 -13 31.5t13 30.5q8 10 8 19q0 10 10 10t10 -10q0 -16 -12 -31q-8 -10 -8 -18.5t8 -18.5q12 -15 12 -31t-12 -31q-8 -10 -8 -19q0 -10 -10.5 -10zM226 53q-10 0 -10 10
q0 16 12 31q8 10 8 19t-8 18q-12 16 -12 31.5t12 30.5q8 10 8 19q0 10 10.5 10t10.5 -10q0 -16 -13 -31q-8 -10 -8 -18.5t8 -18.5q13 -15 13 -31t-13 -31q-8 -10 -8 -19q0 -10 -10 -10zM277 53q-10 0 -10 10q0 16 12 31q8 10 8 19t-8 18q-12 16 -12 31.5t12 30.5q8 10 8 19
q0 10 10 10t10 -10q0 -16 -12 -31q-8 -10 -8 -18.5t8 -18.5q12 -15 12 -31t-12 -31q-8 -10 -8 -19q0 -10 -10 -10zM327.5 53q-10.5 0 -10.5 10q0 16 13 31q8 10 8 19t-8 18q-13 16 -13 31.5t13 30.5q8 10 8 19q0 10 10 10t10 -10q0 -16 -12 -31q-8 -10 -8 -18.5t8 -18.5
q12 -15 12 -31t-12 -31q-8 -10 -8 -19q0 -10 -10.5 -10z" />
    <glyph glyph-name="Cdotaccent" unicode="&#x10a;" 
d="M456 368v-1v-320q0 -7 -5 -12t-12 -5h-358q-7 0 -12 5t-5 12v320v2v1l21 89v5h2q4 4 9 4h326q9 0 11 -9l23 -89v-1.5v-0.5zM107 443l-18 -64h340l-17 64h-305zM432 53v302h-347v-302h347zM259 65q-24 0 -53 12t-46 29t-29 45.5t-12 52.5q0 38 19 70.5t51 51t70 18.5
q58 0 98.5 -41t40.5 -98.5t-40.5 -98.5t-98.5 -41zM171 294q-8 -8 -15 -19t-12 -23t-7.5 -24.5t-2.5 -22.5v-1q0 -52 36.5 -88.5t88.5 -36.5q35 0 64 16.5t45.5 45.5t16.5 64q0 52 -36.5 88.5t-89.5 36.5q-21 0 -47 -10.5t-41 -25.5zM238 181q-62 -14 -72 0v0q-11 16 -11 34
q0 13 5 24q3 7 7 12q5 6 11 8q3 1 5 1q8 0 12 -7v0q16 -20 37 -34q2 3 5 5q-18 60 -2 72q16 11 35 11q13 0 25 -5q7 -3 12.5 -7.5t8.5 -10.5v-4q0 -9 -7 -13v0q-21 -15 -34 -37q3 -2 5 -4q60 17 72 1v0q11 -15 11 -34q0 -13 -5 -25q-3 -7 -8 -13q-4 -5 -10 -7q-3 -1 -5 -1
q-8 0 -13 7v0q-15 20 -37 34l-4 -6q18 -60 2 -72q-16 -11 -35 -11q-13 0 -25 6q-7 2 -12 7q-6 4 -8 11q-1 2 -1 5q0 8 7 12v0q21 15 34 37q-3 2 -5 4zM341 220q-6 8 -53 -5q2 -5 2 -11v-1v-2q25 -15 42 -38v0q2 -2 3 -2q3 1 5 4q3 4 5 9q4 9 4 20q0 14 -8 26l5 4zM277 116
l-4 6q9 6 -5 53q-5 -2 -10 -2h-3q-15 -25 -39 -42v0q-2 -2 -1 -3q1 -3 3 -4q4 -4 9 -6q10 -4 20 -4q14 0 26 8zM277 204.5q0 7.5 -5 12.5t-12 5t-13 -5q-4 -5 -4 -12.5t4 -12.5q6 -5 13 -5t12 5t5 12.5zM244 287l-4 6l4 -6q-9 -6 5 -53q5 2 10 2h4q15 25 38 42v0q3 2 2 3
q-1 3 -3 4q-5 3 -9 5q-10 5 -21 5q-14 0 -26 -8zM176 189q8 -5 24 -2t29 8q-1 5 -2 11v1v2q-25 15 -42 38v0q-1 3 -3 2q-3 -1 -4 -4q-4 -4 -6 -10q-4 -10 -4 -20q0 -14 8 -26l-5 -4zM139 434q10 0 16.5 -7t6.5 -16v0q0 -10 -6.5 -16.5t-15.5 -6.5h-1q-9 0 -16 6.5t-7 16.5
q0 5 2 9t5 7t7.5 5t8.5 2zM146 404q3 3 3 7t-3 7q-3 2 -7 2q-9 0 -9 -9q0 -4 2.5 -7t6.5 -3t7 3zM379 418q5 -1 5 -7t-5 -7h-34q-6 1 -6 7t6 7h34z" />
    <glyph glyph-name="cdotaccent" unicode="&#x10b;" 
d="M325 68v125q0 14 -10 23.5t-24 9.5h-80q-15 0 -25 -9.5t-10 -23.5v-125q0 -7 -5.5 -12.5t-13.5 -5.5h-66q-6 0 -10 2.5t-6.5 6.5t-2.5 8v201q0 6 2.5 13t6 13.5t7.5 10.5l149 140q6 6 14 6t13 -6l149 -140q6 -6 11 -17t5 -20v-201q0 -6 -5 -11.5t-13 -5.5h-67
q-8 0 -13.5 5.5t-5.5 12.5zM309 68q0 -14 10.5 -24t24.5 -10h67q14 0 24 10t10 23v201q0 29 -21 49l-149 140q-10 10 -24.5 10t-24.5 -10l-149 -140q-21 -20 -21 -49v-201q0 -13 10 -23t25 -10h66q15 0 25 10t10 24v125q0 7 5.5 12t13.5 5h80q8 0 13 -5t5 -12v-125z" />
    <glyph glyph-name="Ccaron" unicode="&#x10c;" 
d="M347 480q55 0 94 -39t39 -94v-182q0 -55 -39 -94t-94 -39h-182q-55 0 -94 39t-39 94v182q0 55 39 94t94 39h182zM435 165v182q0 36 -26 62t-62 26h-182q-36 0 -62 -26t-26 -62v-182q0 -36 26 -62t62 -26h182q36 0 62 26t26 62zM256 372q31 0 58 -15.5t42.5 -42.5
t15.5 -58t-15.5 -58t-42.5 -42.5t-58 -15.5q-48 0 -82 34t-34 82t34 82t82 34zM256 185q29 0 50 21t21 50t-21 50t-50 21t-50 -21t-21 -50t21 -50t50 -21zM372.5 343q-11.5 0 -20 8t-8.5 19.5t8.5 20t20 8.5t19.5 -8.5t8 -20t-8 -19.5t-19.5 -8z" />
    <glyph glyph-name="ccaron" unicode="&#x10d;" 
d="M439 480q17 0 29 -12t12 -29v-366q0 -17 -12 -29t-29 -12h-366q-17 0 -29 12t-12 29v366q0 17 12 29t29 12h366zM171 93v211q0 4 -3.5 7.5t-8.5 3.5h-50q-5 0 -8.5 -3.5t-3.5 -7.5v-211q0 -5 3.5 -8.5t8.5 -3.5h50q5 0 8.5 3.5t3.5 8.5zM134 335q13 0 24 6.5t17 17.5
t6 24q0 20 -14 34t-33.5 14t-33.5 -14t-14 -34t14 -34t34 -14zM433 92v102q0 20 -0.5 31t-5 31.5t-13 32t-25.5 21t-42 9.5q-48 0 -69 -33v19q0 2 -1 4t-2.5 3.5t-3.5 2t-4 0.5h-52q-11 0 -11 -10v-213q0 -4 3 -7.5t8 -3.5h52q3 0 5.5 1.5t4 4t1.5 5.5v114q4 49 41 49
q7 0 12.5 -1.5t9.5 -5t7 -6.5t4.5 -8.5t3 -9.5t1.5 -10t0.5 -8.5t0 -8.5l-0.5 -6v-99q0 -4 3.5 -7.5t7.5 -3.5h54q5 0 8 3.5t3 7.5z" />
    <glyph glyph-name="Dcaron" unicode="&#x10e;" 
d="M401 435q63 -48 63 -118q0 -82 -53 -126q-40 -33 -101 -33q-20 0 -41 4v-60v-1q-1 -33 -27 -54q-19 -15 -43 -15q-7 0 -14 1l-38 8q-9 2 -7 13l9 45q2 10 12 8l37 -8q2 0 4 1q2 2 2 4v243q0 10 10 10h45q10 0 10 -10v-119q67 -15 103 14q29 24 29 75q0 38 -37 66
q-42 32 -102 32q-56 0 -95.5 -29t-39.5 -70q0 -23 4 -37.5t18 -30.5q6 -8 -1 -14l-31 -31q-8 -7 -15 1q-22 27 -30 52.5t-8 59.5q0 70 60 118q57 46 138 46t139 -45z" />
    <glyph glyph-name="dcaron" unicode="&#x10f;" 
d="M473 403q3 2 5.5 -1t0.5 -6q-16 -25 -38 -44q-6 -5 -6 -13v-1q0 -49 -18 -97q-18 -49 -51 -88q-35 -41 -83 -64q-52 -25 -114 -25q-71 0 -133 37q-5 3 -3.5 8.5t6.5 5.5h12q54 0 99 32q-26 4 -47 22.5t-29 45.5q0 5 6 6q8 -1 16 -1h2q-26 12 -41.5 37t-14.5 54
q0 3 2.5 4.5t4.5 0.5q11 -6 22 -9q-29 29 -29 71q0 27 13 50q4 7 9 1q68 -86 174 -96q2 0 3 1t1 3q-2 18 2 37q6 24 23 43t40 26q15 5 31 5q36 0 64 -25q3 -3 8 -3h3q25 7 47 20q3 2 5.5 0t1.5 -6q-7 -24 -25 -41q16 4 31 10z" />
    <glyph glyph-name="Dcroat" unicode="&#x110;" 
d="M420 480q25 0 42.5 -17.5t17.5 -42.5v-328q0 -16 -8 -30t-22 -22t-30 -8h-96v160h55q9 0 10 9l6 51q0 3 -1 5.5t-3.5 4t-5.5 1.5h-61v43q0 17 6.5 25t26.5 8h26q10 0 10 10v44q0 10 -10 10h-42q-40 0 -63.5 -23.5t-23.5 -66.5v-50h-42q-10 0 -10 -10l1 -51q0 -10 9 -10
h42v-160h-162q-25 0 -42.5 17.5t-17.5 42.5v328q0 25 17.5 42.5t42.5 17.5h328z" />
    <glyph glyph-name="dcroat" unicode="&#x111;" 
d="M60 256q0 81 57.5 138.5t138.5 57.5t138.5 -57.5t57.5 -138.5t-57.5 -138.5t-138.5 -57.5t-138.5 57.5t-57.5 138.5zM79 256q0 -73 52 -125t125 -52t125 52t52 125t-52 125t-125 52t-125 -52t-52 -125zM349 290l-93 -93l-93 93l22 22l71 -71l71 71z" />
    <glyph glyph-name="Emacron" unicode="&#x112;" 
d="M256 32q-93 0 -158.5 65.5t-65.5 158.5t65.5 158.5t158.5 65.5t158.5 -65.5t65.5 -158.5t-65.5 -158.5t-158.5 -65.5zM330 345l8 32h-154l-10 -40h45q27 0 35 -20h-72l-8 -32h81q-8 -25 -38 -25h-39v-29l79 -93h55v3l-72 85q30 5 45.5 19.5t19.5 39.5h24l9 32h-33
q-2 16 -10 28h35z" />
    <glyph glyph-name="emacron" unicode="&#x113;" 
d="M266 55l6 6q85 80 85 196q0 113 -84 195l-6 6l36 33l5 -5q100 -95 100 -229q-1 -136 -101 -231l-6 -5zM302 256q0 -92 -69 -160l-6 -5l-35 34l6 6q54 52 54 125q0 72 -53 124l-6 6l35 33l6 -5q68 -65 68 -158zM197 256q0 -52 -40 -89l-5 -5l-36 35l7 5q24 22 24 54
q0 31 -23 53l-6 6l36 34l5 -6q38 -36 38 -87z" />
    <glyph glyph-name="Ebreve" unicode="&#x114;" 
d="M395 353q53 -56 53 -133.5t-54 -133.5q-54 -54 -130 -54t-130 54q-54 56 -54 133.5t53 133.5l112 119q8 8 19 8t19 -8zM396 220q1 57 -39 97l-93 99l-90 -96l-2 -2l-4 -4q-37 -40 -36 -94q-1 -57 39 -98v0q39 -39 93.5 -39t92.5 39q40 41 39 98zM164 314h1h-1zM361 247h1
q10 -1 17.5 -8.5t6.5 -17.5q0 -47 -35 -83.5t-79 -36.5q-11 0 -18.5 7.5t-7.5 18.5v1q0 11 8 18t18 6q22 0 42 22t20 47q0 11 7.5 18.5t18.5 7.5h1z" />
    <glyph glyph-name="ebreve" unicode="&#x115;" 
d="M56 235.5q0 87.5 61 149.5q8 8 19 8t19 -8t8 -19.5t-8 -19.5q-45 -46 -45 -111t45 -111q45 -45 109 -45t109 46q45 45 45 110t-45 111q-8 8 -8 19.5t8 19.5t19 8t19 -8q61 -62 61 -150t-61 -149q-61 -62 -147 -62v0q-87 0 -147 62q-61 62 -61 149.5zM262 472q11 0 19 -8
t8 -19v-197q0 -11 -8 -19t-19 -8q-7 0 -13.5 3.5t-10 10t-3.5 13.5v197q0 11 8 19t19 8z" />
    <glyph glyph-name="Edotaccent" unicode="&#x116;" 
d="M245 289v33v40l-3 4q-19 18 -38 37l-12 12l-12 12q-6 5 -6 13t6 14q5 5 13.5 5t13.5 -5l9 -9l29 -29v4v30v11q0 8 5.5 13.5t13.5 5.5t13.5 -5.5t5.5 -13.5v-1v-4v-3.5v-4v-4.5v-28l14 14q3 3 6.5 6t6 5.5t5.5 6t6 6.5q6 5 13.5 5t13.5 -5q6 -6 6 -14t-6 -13q-1 -2 -4 -5
t-5 -4l-38 -38l-5 -5t-7 -6.5t-6 -6.5v-54v-19q23 13 29 17l36 20q0 2 1 4q2 9 7 26t7 26l2.5 10t3 11.5t3.5 10.5q2 7 8.5 11t14.5 2q7 -2 12 -9q4 -7 2 -14q-1 -2 -2 -6t-2 -6q-1 -6 -3 -12.5t-4 -14.5l-3 -12l3 2q5 2 13.5 7t12.5 7q2 1 5 3t5 3q7 4 14.5 2t11.5 -8.5
t2 -15.5q-2 -7 -9 -11v0q-1 -1 -14 -8q-5 -3 -13.5 -8t-11.5 -6q11 -3 19 -5q5 -2 11 -3.5t11.5 -3t10.5 -2.5q8 -2 11.5 -9t1.5 -14q-1 -8 -9 -12q-7 -4 -14 -2q-2 1 -6 2t-6 2q-8 1 -17 3.5t-18.5 5t-16.5 4.5l-8 2t-9 2.5t-8 2.5q-5 -3 -12 -7t-12 -7t-11.5 -6.5
t-12.5 -6.5q-15 -9 -17 -10q22 -12 30 -17q2 -1 35 -20q2 1 4 1q9 3 26 7.5t26 6.5q6 2 16.5 4.5t16.5 4.5q7 2 14 -2t9.5 -11.5t-2.5 -14.5q-4 -7 -11 -9q-2 0 -6 -1.5t-6 -1.5q-8 -2 -23 -6t-17 -5q3 -1 4 -2q3 -2 8 -4.5t9.5 -5.5t8.5 -5q1 0 3 -1t3.5 -2t2.5 -2
q7 -4 9 -11.5t-2 -14.5q-3 -7 -11 -9t-15 2h-1q-2 2 -7 5t-7 3q-4 3 -13 8t-11 6q3 -10 5 -18q1 -4 2 -8.5t2 -8t2.5 -8t2.5 -8.5q1 -5 -0.5 -9.5t-5 -8t-8.5 -5.5q-7 -2 -15 2q-6 4 -8 11q-1 2 -2 6t-2 6q-2 7 -4.5 16.5t-5 18.5t-4.5 17q-1 4 -3.5 13.5t-2.5 10.5
q-8 5 -24 14t-24 14q-15 8 -17 9v-33v-40l3 -4q19 -18 38 -37l12 -12l12 -12q6 -5 6 -13t-6 -14q-5 -5 -13.5 -5t-13.5 5l-9 9l-29 29v-4v-30v-11q0 -8 -5.5 -13.5t-13.5 -5.5q-5 0 -9.5 2.5t-7 7t-2.5 9.5v1v4.5v6v5.5v28l-14 -14q-4 -3 -8 -7.5t-8.5 -8.5t-7.5 -8
q-6 -5 -13.5 -5t-13.5 5q-6 6 -6 14t6 13q1 2 4 5t5 4l38 38l5 5t7 6.5t6 6.5v54v19q-21 -12 -30 -17q-3 -1 -35 -20q0 -2 -1 -4q-2 -9 -7 -26t-7 -25q-1 -6 -4 -16.5t-5 -16.5q-2 -7 -8.5 -11t-14.5 -2q-7 2 -12 9q-4 7 -2 14q1 2 1.5 3.5t0.5 3t0.5 3t1.5 2.5q1 6 3 12.5
t4 14.5l3 12q-2 -1 -3 -2q-4 -2 -8.5 -4.5t-9.5 -5t-8 -4.5q-2 -1 -5 -3t-5 -3q-16 -9 -26 7q-5 6 -2 15q2 7 9 11v0q1 1 14 8q5 3 13.5 8t11.5 6q-10 3 -19 5q-5 2 -11 3.5t-11.5 3t-10.5 2.5q-8 2 -11.5 9t-1.5 14q1 8 9 12q7 4 14 2q2 -1 6 -2t6 -1q9 -3 26.5 -7.5
t25.5 -6.5l8 -2t9 -2.5t8 -2.5q8 5 23.5 14t24.5 13q2 2 8 5t9 5q-21 12 -30 17q-2 1 -35 20q-2 -1 -4 -1q-7 -2 -16.5 -4.5l-19 -5t-16.5 -4.5q-4 -1 -8.5 -2t-8 -2t-8 -2.5t-8.5 -2.5q-7 -2 -14 2t-9.5 11.5t2.5 14.5q4 7 11 9q2 0 6 1.5t6 1.5q8 2 23 6t17 5q-3 1 -4 2
l-5 2.5t-5.5 3l-5 3l-5 3t-5.5 3.5q-1 1 -4.5 2.5t-4.5 2.5q-7 4 -9 11.5t2 14.5q3 7 11 9t15 -2h1q2 -2 7 -5t7 -3q4 -3 13 -8t11 -6q-3 10 -5 18q-1 6 -4 16.5t-5 16.5q-2 7 2 13.5t11.5 9t15.5 -1.5q6 -4 8 -11q1 -2 2 -6t2 -6q2 -9 6.5 -26t7.5 -26q1 -4 3.5 -13.5
t2.5 -10.5q8 -5 24 -14t24 -14q15 -8 17 -9z" />
    <glyph glyph-name="edotaccent" unicode="&#x117;" 
d="M107 85h-43v342h43h85v-43h-85v-256h85v-43h-85zM273 341v-68h68v-34h-68v-68h-34v68h-68v34h68v68h34zM405 85h-85v43h85v256h-85v43h85h43v-342h-43z" />
    <glyph glyph-name="Eogonek" unicode="&#x118;" 
d="M107 85h-43v342h43h85v-43h-85v-256h85v-43h-85zM271 275v68v-68h69v-34h-69h-34h-68v34h68h34zM405 85h-85v43h85v256h-85v43h85h43v-342h-43z" />
    <glyph glyph-name="eogonek" unicode="&#x119;" 
d="M256 32q-93 0 -158.5 65.5t-65.5 158.5t65.5 158.5t158.5 65.5t158.5 -65.5t65.5 -158.5t-65.5 -158.5t-158.5 -65.5zM207 247l6 3q11 5 23 6q8 1 18 -3l20 -12q15 -9 33 -12q9 -1 20 2q10 3 19 10t9 16v104q-13 -10 -30 -18q-12 -5 -26 -1q-16 7 -31 18q-14 7 -31 8
q-23 -1 -41 -14l-4 -2v-237q8 -6 15 0v132z" />
    <glyph glyph-name="Ecaron" unicode="&#x11a;" 
d="M256 32q-93 0 -158.5 65.5t-65.5 158.5t65.5 158.5t158.5 65.5t158.5 -65.5t65.5 -158.5t-65.5 -158.5t-158.5 -65.5zM189 188l146 122q17 -24 17 -54q0 -40 -28 -68t-68 -28q-39 0 -67 28zM178 200q-18 25 -18 56q0 40 28 68t68 28q41 0 69 -29zM256 144q46 0 79 33
t33 79t-33 79t-79 33t-79 -33t-33 -79t33 -79t79 -33z" />
    <glyph glyph-name="ecaron" unicode="&#x11b;" 
d="M444 266.5q0 -19.5 13.5 -33.5t33.5 -14v-96q0 -20 -14 -34t-33 -14h-376q-19 0 -33 14t-14 34v96q20 0 33.5 14t13.5 33.5t-13.5 34t-32.5 14.5v96q0 19 13.5 33.5t32.5 14.5h376q19 0 33 -14.5t14 -33.5v-96q-20 0 -33.5 -14.5t-13.5 -34zM340 151l-26 99l78 65l-100 6
l-36 94l-36 -94l-100 -6l77 -65l-25 -99l84 56z" />
    <glyph glyph-name="Gcircumflex" unicode="&#x11c;" 
d="M255.5 437q70.5 0 121 -49.5t50.5 -120.5t-50.5 -121t-121 -50t-120.5 50t-50 121t50 120.5t120.5 49.5zM205 336v-139h34v139h-34zM273 336v-139h33v139h-33z" />
    <glyph glyph-name="gcircumflex" unicode="&#x11d;" 
d="M256 437q71 0 121 -50t50 -120q0 -47 -23 -86t-62.5 -62t-85.5 -23q-71 0 -121 50t-50 120.5t50 120.5t121 50zM311 258q5 3 5 8.5t-5 8.5l-81 54q-5 3 -10.5 0t-5.5 -9v-107q0 -6 5.5 -9t10.5 1z" />
    <glyph glyph-name="Gbreve" unicode="&#x11e;" 
d="M264 431q19 15 19 -1v-325q0 -9 -5.5 -9t-10.5 4l-5 4l-114 90h-35q-8 0 -14 4t-10 11t-4 15v84q0 13 8 21.5t20 8.5h35zM390 358q37 -38 37 -92t-37 -92l-2 -3l-14 14l3 3q30 32 30 77.5t-30 78.5l-3 2l14 15zM350 323q24 -23 24 -57t-24 -58l-3 -3l-14 14l3 3
q18 18 18 43.5t-18 44.5l-3 2l14 14z" />
    <glyph glyph-name="gbreve" unicode="&#x11f;" 
d="M261 431q18 15 18 -1v-325q0 -9 -5 -9t-11 4l-5 4l-111 90h-35q-11 0 -19 9t-8 21v84q0 8 4 15t10 11t13 4h35zM404 267l40 -41q10 -10 0 -19.5t-20 0.5l-40 40l-40 -40q-10 -10 -20 -0.5t0 19.5l40 41l-40 40q-10 10 0 19.5t20 0.5l40 -41l40 41q10 9 20 -0.5t0 -19.5z
" />
    <glyph glyph-name="Gdotaccent" unicode="&#x120;" 
d="M133 265l23 22q4 4 9.5 4.5t9.5 -3.5q4 -3 4.5 -9t-4.5 -10l-43 -41q-5 -4 -10.5 -4t-9.5 4l-43 41q-5 3 -5 8.5t4 9.5q8 11 19 0l21 -19q2 46 25.5 85t63.5 61.5t87 22.5t88 -23.5t64.5 -64t23.5 -88.5q0 -72 -52 -124t-124 -52q-41 0 -78 19q-10 7 -5 18q7 9 18 5
q29 -15 65 -15q40 0 74.5 20t54.5 54.5t20 74.5q0 62 -44 106t-106 44q-61 0 -104.5 -42.5t-45.5 -103.5z" />
    <glyph glyph-name="gdotaccent" unicode="&#x121;" 
d="M192 266.5q0 26.5 18.5 45.5t45.5 19q17 0 32 -8.5t23.5 -23.5t8.5 -32q0 -27 -18.5 -45.5t-45.5 -18.5t-45.5 18.5t-18.5 45z" />
    <glyph glyph-name="uni0122" unicode="&#x122;" 
d="M95 209q-16 46 -6 93q10 48 45 84q49 50 120 51q70 1 121 -48l-1 17q0 7 7 7.5t7 -6.5l1 -35q0 -2 -2 -4.5t-5 -2.5h-35q-6 0 -6 7t6 7h18q-46 45 -111 44.5t-110 -47.5q-32 -32 -41.5 -75.5t5.5 -86.5q3 -7 -4 -9h-2q-5 0 -7 4zM368 158q31 32 40.5 75.5t-5.5 86.5
q-2 6 4.5 8.5t8.5 -4.5q16 -45 6 -92q-10 -48 -45 -84q-50 -51 -121 -51q-70 0 -119 48v-18q0 -6 -7 -6t-7 6v35q0 6 7 6l34 1q7 0 7 -7t-7 -7h-18q47 -45 111.5 -44.5t110.5 47.5z" />
    <glyph glyph-name="uni0123" unicode="&#x123;" 
d="M256 164q-5 0 -9 5l-75 107q-22 32 -17.5 70.5t33.5 64.5t68 26t68 -26t33.5 -64.5t-17.5 -70.5l-75 -107q-4 -5 -9 -5zM215 335q0 -17 12 -29t29 -12t29 12t12 29t-12 29t-29 12q-11 0 -20.5 -5.5t-15 -15t-5.5 -20.5zM426 106q2 -4 -0.5 -7t-6.5 -3h-326q-4 0 -6.5 3
t-0.5 7l38 112q1 5 7 5h57v-16h-52l-32 -96h304l-32 96h-52v16h57q6 0 7 -5z" />
    <glyph glyph-name="Hcircumflex" unicode="&#x124;" 
d="M341 267q0 -35 -25 -60t-60 -25q-23 0 -43 11t-31.5 31t-11.5 43q0 35 25 60t60.5 25t60.5 -25t25 -60zM456 280q6 0 9.5 -4t3.5 -9t-3.5 -9t-9.5 -4h-28q-5 -64 -50.5 -109t-109.5 -50v-29q0 -5 -3.5 -8.5t-9 -3.5t-9 3.5t-3.5 8.5v29q-64 5 -109 50t-50 109h-29
q-5 0 -8.5 4t-3.5 9t3.5 9t8.5 4h29q5 63 50 108.5t109 50.5v28q0 6 3.5 9.5t9.5 3.5q3 0 6 -1.5t5 -4.5t2 -7v-28q42 -3 77 -25t57 -57t25 -77h28zM256 120q61 0 104 43t43 104q0 40 -20 74t-53.5 53.5t-73.5 19.5t-74 -19.5t-53.5 -53.5t-19.5 -74q0 -61 43 -104t104 -43z
" />
    <glyph glyph-name="hcircumflex" unicode="&#x125;" 
d="M43 372h426l-213 -211z" />
    <glyph glyph-name="Hbar" unicode="&#x126;" 
d="M60 260h170v-196h-141q-12 0 -20.5 8t-8.5 20v168zM452 371q12 0 20 -8.5t8 -19.5v-41q0 -6 -4 -10t-10 -4h-182v55h-56v-55h-182q-6 0 -10 4t-4 10v41q0 11 8 19.5t20 8.5h89q-10 6 -16 12q-17 17 -17 40.5t17 40.5q16 16 41 16t41 -16q13 -13 28 -42.5t12 -50.5h2
q-3 21 12 50.5t28 42.5q16 16 41 16t41 -16q17 -17 17 -40.5t-17 -40.5q-6 -6 -16 -12h89zM226 371q4 4 0 18t-13 30t-18 25t-21 9t-21 -8.5t-9 -21t9 -21.5q10 -10 32.5 -20.5t35.5 -10.5h5zM291 371q13 0 35.5 10.5t32.5 20.5q9 9 9 21.5t-9 20.5q-8 9 -21 9t-21 -9
q-14 -13 -25 -40t-6 -33h5zM282 260h170v-168q0 -5 -1.5 -9t-4 -7.5t-6 -6t-8 -4t-9.5 -1.5h-141v196z" />
    <glyph glyph-name="hbar" unicode="&#x127;" 
d="M480 272v-133q0 -18 -12 -30.5t-29 -12.5h-366q-17 0 -29 12.5t-12 30.5v133h448zM409 213h-28q-18 0 -30 -12.5t-12 -30.5t12.5 -30.5t29.5 -12.5h28q17 0 29 12.5t12 30.5t-12 30.5t-29 12.5zM409 186q6 0 10.5 -4.5t4.5 -11t-4.5 -11t-10.5 -4.5h-28q-4 0 -7.5 2
t-5.5 5.5t-2 7.5q0 7 4 11.5t11 4.5h28zM480 330v-31h-448v31h448zM439 416q17 0 29 -12.5t12 -30.5v-16h-448v16q0 18 12 30.5t29 12.5h366z" />
    <glyph glyph-name="Itilde" unicode="&#x128;" 
d="M256 480q88 0 150.5 -62.5t62.5 -151t-62.5 -151t-150.5 -62.5t-150.5 62.5t-62.5 151t62.5 151t150.5 62.5zM283 133v54h-54v-54h54zM309 256q27 26 27 64q0 33 -23.5 56.5t-56.5 23.5t-56.5 -23.5t-23.5 -56.5v-27h53v27q0 11 8 19t19 8t19 -8t8 -19q0 -16 -11 -27
l-35 -34q-8 -8 -8 -19v-27h54v16z" />
    <glyph glyph-name="itilde" unicode="&#x129;" 
d="M256 480q88 0 150.5 -62.5t62.5 -150.5q0 -58 -28.5 -107t-77.5 -78t-107 -29t-107 29t-77.5 78t-28.5 107q0 88 62.5 150.5t150.5 62.5zM256 378q-7 0 -12.5 -5.5t-5.5 -12.5v-76h-75q-5 0 -9 -2t-6.5 -6.5t-2.5 -8.5q0 -8 5 -13t13 -5h75v-76q0 -7 5.5 -12t12.5 -5
t12.5 5t5.5 12v76h75q8 0 13 5t5 13q0 4 -2.5 8.5t-6.5 6.5t-9 2h-75v76q0 7 -5.5 12.5t-12.5 5.5z" />
    <glyph glyph-name="Imacron" unicode="&#x12a;" 
d="M259 480v-84q0 -5 3 -8.5t8 -3.5h85v-52l-82 -81q-8 -8 -11 -19l-12 -34q-5 -15 4 -27t25 -12h6l38 13q10 3 18 11l14 13v-90q0 -14 -11 -25t-26 -11h-239q-15 0 -25.5 11t-10.5 25v338q0 15 10.5 25.5t25.5 10.5h180zM284 222l28 -29l-31 -10q-4 -1 -6.5 1.5t-1.5 5.5z
M377 321l34 -35q-2 -1 -18 -17.5t-25 -24.5l-36 -37l-34 35zM428.5 362q10.5 0 16.5 -7q7 -7 7 -17t-7 -17q-2 -2 -17 -18l-34 35l17 17q7 7 17.5 7zM284 480q15 0 26 -11l34 -33q10 -11 10 -26v-2h-72v72h2z" />
    <glyph glyph-name="imacron" unicode="&#x12b;" 
d="M256 480q88 0 150.5 -62.5t62.5 -150.5q0 -58 -28.5 -107t-77.5 -78t-107 -29t-107 29t-77.5 78t-28.5 107q0 88 62.5 150.5t150.5 62.5zM364 312q5 5 5 12.5t-5 12.5t-12.5 5t-12.5 -5l-103 -103l-45 45q-5 5 -12.5 5t-13 -5t-5.5 -12.5t6 -12.5l57 -58q6 -5 13 -5t13 5
z" />
    <glyph glyph-name="Ibreve" unicode="&#x12c;" 
d="M206.5 434q8.5 0 15 -7t6.5 -17v-115v0v-1v-49q0 -6 6.5 -6t6.5 6v51q0 4 1.5 8.5t4.5 7t7 4.5t8 2h1q6 0 11 -3t7.5 -8.5t2.5 -11.5v-45q0 -7 6.5 -7t6.5 7v35q0 10 6.5 17t15.5 7t15 -7t6 -17v-33q0 -7 6.5 -7t6.5 7v18q0 9 6.5 16t15.5 7v0q9 0 15.5 -7t6.5 -16v-88
v-52q0 -31 -20.5 -53.5t-49.5 -22.5h-91q-41 0 -61 39l-79 151l5 4q10 10 25 9t24 -13l23 -28q3 -3 7.5 -1.5t4.5 6.5v189q0 10 6.5 17t15 7zM173.5 471q32.5 19 65.5 0t32 -56q0 -7 -6.5 -7t-6.5 7q1 30 -25.5 45t-52.5 0t-26 -45q0 -7 -6.5 -7t-6.5 7q0 37 32.5 56z" />
    <glyph glyph-name="ibreve" unicode="&#x12d;" 
d="M307 344q66 0 113 -31q49 -33 49 -81q0 -47 -48 -80q5 -21 20 -36l21 -22h-30q-44 0 -77 31q-23 -6 -48 -6q-66 0 -113 32q-50 33 -50 81t50 81q47 31 113 31zM205 444q66 0 113 -31q31 -21 43 -49q-26 5 -54 5q-74 0 -127 -35q-61 -41 -61 -102q0 -15 4 -29
q-20 -9 -43 -9h-30l21 22q15 15 20 36q-48 33 -48 80q0 48 49 81q47 31 113 31z" />
    <glyph glyph-name="Iogonek" unicode="&#x12e;" 
d="M437 265l22 -22q10 -9 10 -22t-10 -22l-131 -132q-3 -3 -7 -3l-54 -10h-2q-6 0 -9 4q-5 5 -4 12l9 53q1 4 4 7l132 132q22 22 40 3zM296 480q20 0 34 -14.5t14 -34.5v-171l-104 -105q-11 -11 -14 -26l-4 -22h-131q-13 0 -24 6.5t-17.5 18t-6.5 24.5v275q0 20 14 34.5
t34 14.5h205zM202 267h-88q-8 0 -13 -5t-5 -12.5t5 -12.5t13 -5h88q8 0 13 5t5 12.5t-5 12.5t-13 5zM273 338h-159q-8 0 -13 -5t-5 -12.5t5 -12.5t13 -5h159q8 0 13 5t5 12.5t-5 12.5t-13 5zM185 409h-71q-8 0 -13 -5t-5 -12.5t5 -12.5t13 -5h71q7 0 12 5t5 12.5t-5 12.5
t-12 5z" />
    <glyph glyph-name="iogonek" unicode="&#x12f;" 
d="M469 289v-145q0 -11 -7.5 -18.5t-17.5 -7.5h-376q-10 0 -17.5 7.5t-7.5 18.5v145h426zM205 203h-86q-8 0 -8 -8.5t8 -8.5h86q8 0 8 8.5t-8 8.5zM273 237h-154q-8 0 -8 -8.5t8 -8.5h154q9 0 9 8.5t-9 8.5zM444 408q10 0 17.5 -7.5t7.5 -17.5v-43h-426v43q0 10 7.5 17.5
t17.5 7.5h376z" />
    <glyph glyph-name="Idotaccent" unicode="&#x130;" 
d="M228 286v-231h-130q-11 0 -19.5 8t-8.5 19v204h158zM441 286v-204q0 -11 -8.5 -19t-19.5 -8h-130v231h158zM325 465q27 24 60 10q16 -8 25 -23t7 -34q-1 -11 -7 -21h31q11 0 19.5 -8t8.5 -20v-41q0 -6 -4.5 -10t-9.5 -4h-398q-6 0 -10 4t-4 10v41q0 12 8 20t19 8h31
q-6 10 -7 21q-2 19 7 34t25 23q33 14 60 -10l39 -35q12 13 30.5 13t30.5 -13zM167 445q-13 12 -30 4q-12 -5 -15 -18t5 -23.5t22 -10.5h65v5v0zM370 451q-14 4 -27 -7q-44 -40 -46 -42v0v-5h64q11 0 19.5 7t9.5 18q1 22 -20 29z" />
    <glyph glyph-name="dotlessi" unicode="&#x131;" 
d="M168 228q46 0 82 -27q52 -38 56 -101v-9v-16h-285v16q0 37 18.5 69t50.5 50t69 18h9zM362 255q53 0 91 -37.5t38 -90.5v-27h-158q-1 29 -12 55q-13 30 -36 52q-8 8 -16 15q37 33 86 33h7zM163.5 437q35.5 0 60.5 -26.5t25 -63.5t-25 -63.5t-60.5 -26.5t-60.5 26.5
t-25 63.5t25 63.5t60.5 26.5zM358 424q31 0 52.5 -22.5t21.5 -54t-21 -54.5t-52 -23v0q-31 0 -52.5 22.5t-21.5 54t21 54.5t52 23v0z" />
    <glyph glyph-name="time-clock" unicode="&#xe000;" 
d="M256 0q-106 0 -181 75t-75 181t75 181t181 75t181 -75t75 -181t-75 -181t-181 -75zM256 487q-95 0 -163 -68t-68 -163t68 -163t163 -68t163 68t68 163t-68 163t-163 68zM372 131q-4 0 -5 3l-125 116q-3 3 -3 6v116q0 9 9 9q8 0 8 -9v-112l122 -114q7 -6 1 -12
q-3 -3 -7 -3z" />
    <glyph glyph-name="profile" unicode="&#xe001;" 
d="M256 512q-106 0 -181 -75t-75 -181t75 -181t181 -75t181 75t75 181t-75 181t-181 75zM256 487q95 0 163 -68t68 -163q0 -82 -52 -145q-57 57 -140 71q28 11 45 36.5t17 56.5q0 42 -30 71.5t-72 29.5t-71.5 -30t-29.5 -71q0 -31 17 -56.5t45 -37.5q-80 -12 -139 -70
q-52 65 -52 145q0 95 68 163t163 68zM255 199q-31 0 -53.5 22.5t-22.5 53.5t22.5 53.5t53.5 22.5q32 0 54.5 -22.5t22.5 -53.5t-22.5 -53.5t-54.5 -22.5zM93 92q68 68 163 68t163 -68q-69 -67 -163 -67t-163 67z" />
    <glyph glyph-name="help-chat" unicode="&#xe002;" 
d="M283 201q0 -7 -5 -12t-12 -5t-11.5 5t-4.5 12t4.5 12t11.5 5t12 -5t5 -12zM147 34q-4 0 -5 1q-8 3 -8 11v72h-121q-13 0 -13 12v336q0 12 13 12h486q13 0 13 -12v-336q0 -12 -13 -12h-255l-89 -81q-3 -3 -8 -3zM25 143h122q5 0 9 -4q3 -3 3 -9v-55l71 65q4 3 9 3h247v310
h-461v-310zM266 242q-12 0 -12 12v21q0 5 3.5 9t8.5 4q22 0 36.5 15t14.5 36t-14.5 36t-36.5 15q-21 0 -35.5 -15t-14.5 -36q0 -13 -13 -13t-13 13q0 31 22.5 53.5t53.5 22.5q32 0 54.5 -22.5t22.5 -53.5q0 -28 -18.5 -49t-45.5 -26v-10q0 -12 -13 -12z" />
    <glyph glyph-name="delete-trash-can" unicode="&#xe003;" 
d="M491 445h-139v54q0 12 -12 12h-168q-12 0 -12 -12v-54h-139q-5 0 -8.5 -4t-3.5 -9t3.5 -9t8.5 -4h55v-406q0 -12 12 -12h335q13 0 13 12v406h54q13 0 13 13q0 5 -3.5 9t-8.5 4zM185 486h142v-41h-142v41zM411 26h-310v393h310v-393zM172 352q-12 0 -12 -12v-235
q0 -12 12 -12q13 0 13 12v235q0 12 -13 12zM256 352q-13 0 -13 -12v-235q0 -12 13 -12t13 12v235q0 12 -13 12zM327 340v-235q0 -12 13 -12q12 0 12 12v235q0 12 -12 12q-13 0 -13 -12z" />
    <glyph glyph-name="current-location-fill" unicode="&#xe004;" 
d="M503 508q-6 6 -14 3l-477 -222q-8 -5 -7 -14q3 -10 13 -10h232v-252q0 -10 10 -13h3q7 0 11 7l232 487q3 8 -3 14z" />
    <glyph glyph-name="lcoation-line" unicode="&#xe005;" 
d="M256 0q-5 0 -9 4q-15 15 -50 59t-79.5 126t-44.5 140q0 77 53 130t130 53t130 -53t53 -130q0 -45 -24 -101.5t-62 -109.5t-55 -75t-32 -39q-6 -4 -10 -4zM256 487q-66 0 -112 -45.5t-46 -112.5q0 -47 35 -115.5t64.5 -108t58.5 -73.5q29 33 58.5 73.5t64.5 108.5t35 115
q0 67 -46 112.5t-112 45.5zM256 255q-31 0 -52 21.5t-21 52.5t21 52t52 21t52.5 -21t21.5 -52t-21.5 -52.5t-52.5 -21.5zM256 377q-20 0 -34 -14t-14 -34t14 -34t34 -14t34.5 14t14.5 34t-14.5 34t-34.5 14z" />
    <glyph glyph-name="microwave-repair" unicode="&#xe006;" 
d="M453 444h-394q-25 0 -42 -17t-17 -42v-226q0 -24 17 -41.5t42 -17.5h17v-19q0 -13 12 -13q13 0 13 13v19h310v-19q0 -13 13 -13q12 0 12 13v19h17q24 0 41.5 17.5t17.5 41.5v226q0 25 -17 42t-42 17zM25 159v226q0 14 10 24t24 10h289v-293h-289q-14 0 -24 9.5t-10 23.5z
M487 159q0 -14 -10 -23.5t-24 -9.5h-88v293h88q14 0 24 -10t10 -24v-226zM298 385h-218q-10 0 -17.5 -7.5t-7.5 -17.5v-175q0 -11 7.5 -18t17.5 -7h218q10 0 17.5 7t7.5 18v175q0 10 -7.5 17.5t-17.5 7.5zM306 185q0 -8 -8 -8h-218q-9 0 -9 8v175q0 8 9 8h218q8 0 8 -8v-175
zM425 231q-13 0 -23 -9.5t-10 -23.5t9.5 -24t23.5 -10t24 10t10 24t-10 23.5t-24 9.5zM425 181q-7 0 -12 5t-5 12t5 12t12 5t12 -5t5 -12t-5 -12t-12 -5zM393 357h14q8 0 8 9q0 8 -8 8h-14q-9 0 -9 -8q2 -9 9 -9zM457 374h-14q-8 0 -8 -8q0 -9 8 -9h14q9 0 9 9q0 8 -9 8z
M407 324q8 0 8 8q0 9 -8 9h-14q-9 0 -9 -9q0 -8 9 -8h14zM457 341h-14q-8 0 -8 -9q0 -8 8 -8h14q9 0 9 8q0 9 -9 9z" />
    <glyph glyph-name="painter" unicode="&#xe007;" 
d="M436 444h-12v55q0 13 -13 13h-302q-12 0 -12 -13v-54h-5q-12 0 -20.5 -8.5t-8.5 -21.5v-83q0 -13 8.5 -21.5t20.5 -8.5h168q4 0 4 -4v-61q-33 -8 -33 -40v-168q0 -12 11 -20.5t27 -8.5h21q15 0 24 8t9 21v168q0 30 -33 39v62q0 12 -8.5 20.5t-21.5 8.5h-168q-4 0 -4 5v83
q0 5 4 5h5v-38q0 -13 12 -13h302q13 0 13 13v37h12q13 0 13 13q0 12 -13 12zM298 197v-168q0 -4 -8 -4h-21q-13 0 -13 4v168q0 15 19 15q23 0 23 -15zM399 394h-277v93h277v-93z" />
    <glyph glyph-name="tv-repair" unicode="&#xe008;" 
d="M466 453h-420q-19 0 -32.5 -13.5t-13.5 -32.5v-235q0 -19 13.5 -32.5t32.5 -13.5h156v-42h-47q-12 0 -12 -12q0 -5 3.5 -9t8.5 -4h202q12 0 12 13q0 12 -12 12h-46v42h155q19 0 32.5 13.5t13.5 32.5v235q0 19 -13.5 32.5t-32.5 13.5zM285 84h-58v42h58v-42zM487 172
q0 -8 -6.5 -14.5t-14.5 -6.5h-420q-8 0 -14.5 6.5t-6.5 14.5v235q0 9 6.5 15t14.5 6h420q8 0 14.5 -6t6.5 -15v-235zM457 407h-402q-9 0 -9 -8v-218q0 -9 9 -9h402q9 0 9 9v218q0 8 -9 8zM449 189h-386v201h386v-201z" />
    <glyph glyph-name="ro-water-purifier" unicode="&#xe009;" 
d="M256 0q-74 0 -126 52t-52 126q0 116 166 326l2 3q5 5 10 5q7 0 10 -5q20 -26 49.5 -67.5t74 -127t44.5 -134.5q0 -74 -52 -126t-126 -52zM256 479q-29 -37 -57.5 -78.5t-62 -110t-33.5 -112.5q0 -63 45 -107.5t108 -44.5t108 44.5t45 107.5q0 91 -153 301zM253 77
q-9 0 -9 9q0 8 9 8q36 0 61.5 25.5t25.5 62.5q0 8 8 8q9 0 9 -8q0 -43 -30.5 -74t-73.5 -31z" />
    <glyph glyph-name="refridgerator-repair" unicode="&#xe00a;" 
d="M368 512h-224q-19 0 -32.5 -13.5t-13.5 -32.5v-420q0 -19 13.5 -32.5t32.5 -13.5h224q19 0 32.5 13.5t13.5 32.5v420q0 19 -13.5 32.5t-32.5 13.5zM144 487h224q9 0 15 -6.5t6 -14.5v-140h-266v140q0 8 6 14.5t15 6.5zM368 25h-224q-9 0 -15 6.5t-6 14.5v255h266v-255
q0 -8 -6 -14.5t-15 -6.5zM156 346q12 0 12 12v34q0 12 -12 12q-13 0 -13 -12v-34q0 -12 13 -12zM156 282q-13 0 -13 -13v-67q0 -12 13 -12q12 0 12 12v67q0 5 -3.5 9t-8.5 4z" />
    <glyph glyph-name="washing-machine-repair" unicode="&#xe00b;" 
d="M443 512h-374q-13 0 -23 -10t-10 -23v-446q0 -13 10 -23t23 -10h374q13 0 22.5 9.5t9.5 23.5v446q1 13 -8.5 23t-23.5 10zM69 487h374q7 0 7 -8v-64h-388v64q0 8 7 8zM443 25h-374q-7 0 -7 8v366h388v-366q0 -8 -7 -8zM256 343q-52 0 -89 -37t-37 -89t37 -89t89 -37
t89 37t37 89t-37 89t-89 37zM256 108q-42 0 -73.5 29t-35.5 70l21 -8q21 -8 41 -8q28 0 54 14q45 26 91 3l10 -4q-5 -41 -36 -68.5t-72 -27.5zM365 217l-5 3q-52 24 -103 -3q-41 -24 -84 -6l-26 10q1 44 33 74.5t76 30.5q45 0 77 -31.5t32 -77.5zM111 432q10 0 17 6.5
t7 16.5t-7 16.5t-17 6.5q-9 0 -16 -6.5t-7 -16.5t7 -16.5t16 -6.5zM111 465q11 0 11 -10q0 -11 -11 -11q-10 0 -10 11q0 10 10 10zM306 447h18q7 0 7 6q0 7 -7 7h-18q-6 0 -6 -7q0 -6 6 -6zM356 447h19q6 0 6 6q0 7 -6 7h-19q-6 0 -6 -7q0 -6 6 -6zM407 447h18q6 0 6 6
q0 7 -6 7h-18q-7 0 -7 -7q0 -6 7 -6z" />
    <glyph glyph-name="mehendi" unicode="&#xe00c;" 
d="M376 423q-7 0 -17 -4q-2 16 -14 26.5t-28 10.5q-6 0 -18 -4v17q0 18 -12.5 30.5t-30.5 12.5q-17 0 -29.5 -12.5t-12.5 -30.5v-24q-12 4 -18 4q-17 0 -30 -13t-13 -30v-124q-10 4 -18 4q-17 0 -29.5 -12.5t-12.5 -29.5v-77v-2v-2q0 -67 47.5 -115t115.5 -48t115.5 48
t47.5 115v217q0 18 -12.5 30.5t-30.5 12.5zM256 25q-57 0 -97.5 40.5t-40.5 97.5v2v2v30h35v-30q0 -13 12 -13q13 0 13 13v47v1q1 1 1 2v120h34v-69q0 -13 13 -13q12 0 12 13v127h35v-120q0 -5 4 -8.5t9 -3.5q12 0 12 12v73h35v-95q0 -13 13 -13q12 0 12 13v58h35v-148
q1 -57 -39.5 -97.5t-97.5 -40.5zM316 234q-6 -3 -6 -9q3 -18 -10 -31q-4 -5 -33 -15l-5 -1q-28 -8 -41 -19q-20 -15 -20 -46q0 -34 27 -51q10 -4 16 -5q9 -3 18 -3q20 0 41 13q38 27 44 85q5 42 -21 79q-5 5 -10 3zM330 154q-5 -50 -37 -73q-20 -14 -45 -8q-9 2 -12 4
q-19 11 -19 36q0 21 14 32q8 6 36 17l4 1q32 9 41 19q7 7 12 17q9 -22 6 -45zM273 111q0 -7 -5 -12t-12 -5t-12 5t-5 12t5 12t12 5t12 -5t5 -12z" />
    <glyph glyph-name="share-app-invite-friends" unicode="&#xe00d;" 
d="M459 262v1h-1q-15 18 -37 18h-330q-20 0 -37 -17v-1l-1 -1q-12 -14 -12 -31v-182q0 -20 13 -33t32 -16h4h1h330q20 0 35 15t15 34v182q0 17 -12 31zM412 248l-156 -120l-156 120h312zM421 33h-329q-18 3 -18 17v176l172 -132q4 -3 10 -3t10 3l171 132v-176q1 -7 -4.5 -12
t-11.5 -5zM165 388q7 0 12 5l63 63l-1 -142q0 -7 5 -12t12 -5q15 0 17 17v142l62 -63q11 -11 23 0q12 12 0 24l-90 90q-5 5 -12 5q-1 0 -3 -0.5t-3 -0.5q-1 -1 -2.5 -2t-2.5 -1v-1l-92 -91q-11 -12 0 -23q7 -5 12 -5z" />
    <glyph glyph-name="geyser-repair" unicode="&#xe00e;" 
d="M375 503q-122 18 -238 1q-15 -2 -25 -14t-10 -27v-307q0 -15 10 -26.5t25 -14.5q6 -1 18.5 -2.5t18.5 -2.5l10 -29q5 -18 25 -18h6v-52q0 -11 11 -11q12 0 12 11v52h37v-52q0 -11 11 -11t11 11v7h11q7 0 7 8q0 7 -7 7h-11v30h7q18 0 25 18l10 30q10 1 37 5
q15 2 24.5 13.5t9.5 26.5v307q0 15 -10.5 26.5t-24.5 13.5zM125 426q5 9 15 10q111 21 232 0q10 -2 15 -10v-237q-5 -8 -15 -10q-119 -21 -232 -1q-10 3 -15 11v237zM140 482q59 8 113 8q58 0 118 -9q16 -2 16 -18v-17q-4 3 -13 5q-127 20 -237 0q-8 -2 -12 -5v17
q0 16 15 19zM307 88q-2 -2 -4 -2h-95q-3 0 -3 2l-7 20q27 -3 54 -3q31 0 61 3zM371 138q-118 -21 -230 -1q-16 3 -16 19v12q4 -2 12 -4q54 -10 116 -10t121 10q9 2 13 5v-13q0 -16 -16 -18zM256 278q-15 0 -26 -10.5t-11 -26.5q0 -15 11 -26t26 -11t26 11t11 26
q0 16 -11 26.5t-26 10.5zM256 219q-9 0 -15.5 6.5t-6.5 15.5t6.5 15.5t15.5 6.5t15.5 -6.5t6.5 -15.5t-6.5 -15.5t-15.5 -6.5zM201 391h110q7 0 7 7q0 8 -7 8h-110q-7 0 -7 -8q0 -7 7 -7z" />
    <glyph glyph-name="cart-empty" unicode="&#xe00f;" 
d="M499 486h-74q-10 0 -12 -9l-25 -108h-375q-7 0 -10 -5q-4 -4 -2 -11l63 -201q3 -9 12 -9h259l-5 -25h-225q-19 0 -32.5 -13.5t-13.5 -32.5t13.5 -32.5t32.5 -13.5t32.5 13.5t13.5 32.5q0 9 -5 21h145q-6 -11 -6 -21q0 -19 13.5 -32.5t32.5 -13.5t32.5 13.5t13.5 32.5
q0 27 -23 40l81 349h64q13 0 13 13q0 12 -13 12zM86 168l-56 176h352l-41 -176h-255zM126 72q0 -9 -6 -15t-15 -6q-8 0 -14.5 6t-6.5 15q0 8 6.5 14.5t14.5 6.5q9 0 15 -6.5t6 -14.5zM331 51q-8 0 -14.5 6t-6.5 15q0 8 6.5 14.5t14.5 6.5q9 0 15 -6.5t6 -14.5q0 -9 -6 -15
t-15 -6z" />
    <glyph glyph-name="cart-full" unicode="&#xe010;" 
d="M499 474h-74q-10 0 -12 -10l-23 -100l-61 74q-3 4 -9 4t-9 -3l-16 -15h-98q-5 0 -8.5 -4t-3.5 -9v-54h-47l-61 135q-1 4 -7 6q-3 2 -10 0l-53 -25q-9 -5 -6 -17l43 -99h-31q-7 0 -10 -5q-4 -5 -2 -12l63 -201q4 -9 12 -9h260l-6 -25h-225q-19 0 -32.5 -13.5t-13.5 -32.5
t13.5 -32.5t32.5 -13.5t32.5 13.5t13.5 32.5q0 11 -5 21h145q-6 -9 -6 -21q0 -19 13.5 -32.5t32.5 -13.5t32.5 13.5t13.5 32.5q0 27 -23 40l81 350h64q12 0 12 13q0 12 -12 12zM363 357h-101l47 45l9 9zM210 399h59l-43 -42h-16v42zM29 455l31 15l51 -113h-40zM85 155
l-55 176h352l-41 -176h-256zM126 59q0 -8 -6 -14.5t-15 -6.5q-8 0 -14.5 6.5t-6.5 14.5q0 9 6.5 15t14.5 6q9 0 15 -6t6 -15zM331 38q-8 0 -14.5 6.5t-6.5 14.5q0 9 6.5 15t14.5 6q9 0 15 -6t6 -15q0 -8 -6 -14.5t-15 -6.5z" />
    <glyph glyph-name="circle" unicode="&#xe011;" 
d="M256 491q98 0 166.5 -68.5t68.5 -166.5t-68.5 -166.5t-166.5 -68.5t-166.5 68.5t-68.5 166.5t68.5 166.5t166.5 68.5z" />
    <glyph glyph-name="play-video" unicode="&#xe012;" 
d="M256 512q-106 0 -181 -75t-75 -181t75 -181t181 -75t181 75t75 181t-75 181t-181 75zM178 156v200l201 -100z" />
    <glyph glyph-name="accounts-tutors" unicode="&#xe013;" 
d="M409 511h-306q-18 0 -30.5 -12.5t-12.5 -29.5v-426q0 -18 12.5 -30.5t30.5 -12.5h306q18 0 30.5 12.5t12.5 30.5v426q0 17 -12.5 29.5t-30.5 12.5zM103 494h306q11 0 18.5 -7.5t7.5 -17.5v-162h-358v162q0 10 7.5 17.5t18.5 7.5zM265 290h170v-119h-170v119zM247 171
h-170v119h171v-119h-1zM77 43v111h171v-136h-145q-11 0 -18.5 7.5t-7.5 17.5zM409 18h-144v136h170v-111q0 -10 -7.5 -17.5t-18.5 -7.5zM154 337h204q20 0 33.5 13.5t13.5 33.5v34q0 19 -13.5 32.5t-33.5 13.5h-204q-20 0 -33.5 -13.5t-13.5 -32.5v-34q0 -20 13.5 -33.5
t33.5 -13.5zM132 418q0 8 6.5 14.5t15.5 6.5h204q9 0 15 -6.5t6 -14.5v-34q0 -9 -6 -15t-15 -6h-204q-9 0 -15.5 6t-6.5 15v34zM120 218h21v-22q0 -12 13 -12q12 0 12 12v22h22q13 0 13 12q0 13 -13 13h-21v21q0 13 -13 13t-13 -13v-21h-21q-13 0 -13 -13q0 -12 13 -12z
M384 243h-68q-13 0 -13 -13q0 -12 13 -12h68q13 0 13 12q0 13 -13 13zM384 124h-68q-13 0 -13 -13t13 -13h68q13 0 13 13t-13 13zM384 90h-68q-13 0 -13 -13t13 -13h68q13 0 13 13t-13 13zM172 86l16 16q11 9 0 18q-9 9 -18 0l-16 -16l-17 16q-9 9 -18 0t0 -18l17 -16
l-17 -17q-9 -9 0 -18q3 -4 9 -4t9 4l16 16l17 -16q4 -4 9 -4q6 0 9 4q9 9 0 18z" />
    <glyph glyph-name="architect" unicode="&#xe014;" 
d="M508 22l-486 486q-6 6 -14 3t-8 -12v-486q0 -13 13 -13h486q9 0 12 8t-3 14zM25 25v444l57 -57l-17 -16q-6 -6 0 -12q4 -2 6 -2q5 0 6 2l16 17l43 -43l-20 -21q-7 -5 0 -11q2 -3 6 -3t5 3l21 20l38 -38l-20 -21q-5 -5 0 -12q2 -2 6 -2q2 0 6 2l20 21l43 -43l-16 -16
q-7 -7 0 -12q1 -3 5 -3t6 3l17 16l42 -42l-20 -21q-6 -6 0 -12q2 -2 6 -2q2 0 6 2l20 21l39 -39l-21 -20q-6 -6 0 -12q4 -2 6 -2q4 0 6 2l20 21l43 -43l-16 -16q-7 -7 0 -12q2 -3 6 -3q3 0 6 3l16 16l56 -56h-443v-1zM89 307q-6 6 -14 3t-8 -12v-218q0 -12 13 -12h218
q8 0 11 7q4 9 -3 14zM92 92v176l176 -176h-176z" />
    <glyph glyph-name="astrologer" unicode="&#xe015;" 
d="M488 290q-13 5 -26 0.5t-20 -15.5l-104 21q0 9 -4 17q-6 16 -22 22q-18 7 -35 -3l-57 59q5 28 -23 40q-24 10 -42 -12l-78 2q-5 19 -23 27q-15 6 -30 -0.5t-21 -21.5t0.5 -30t21.5 -21q6 -3 14 -3q25 0 36 24l72 -2q0 -7 3 -13q5 -14 20 -19q6 -3 13 -3t15 3l9 6l52 -54
l-1 -1v-2q-11 -28 13 -47l-7 -50q-25 -2 -35 -24q-5 -15 1 -29q6 -16 21 -20q6 -3 14 -3q7 0 15 3q2 1 4 2.5t3 1.5l90 -55q3 -19 21 -27q8 -2 13 -2q23 0 31 21q5 14 0 26q-2 5 -8 11l39 97h1q26 0 36 24q5 15 -1.5 29.5t-20.5 20.5zM52 406q-5 -12 -18 -7q-12 3 -8 18
q4 9 13 9q2 0 6 -2q13 -4 7 -18zM297 312q3 0 6 -1q6 -2 8 -8q3 -6 0 -12q-1 -6 -8 -9q-6 -3 -12 0q-14 5 -9 21q3 9 15 9zM195 392q-3 -4 -7 -7q-4 -1 -9 0q-11 6 -6 16q2 7 11 7q2 0 4 -1q11 -4 7 -15zM276 171q-2 -6 -6 -7q-7 -2 -10 0q-6 2 -7 7q-3 4 -1 9q4 9 12 9
q3 0 5 -2q6 -2 7 -6q3 -5 0 -10zM397 126q-8 -3 -14 -11l-82 51q3 14 -2 25q-3 8 -11 15l8 49q5 0 17 4q11 5 16 13l107 -21q3 -10 3 -11q3 -7 10 -14l-39 -97q-7 0 -13 -3zM418 92q-3 -7 -11 -5q-8 3 -5 12q1 2 5 4q1 1 3 1t3 -1q3 0 5 -4q1 -4 0 -7zM486 250
q-5 -13 -17 -7q-6 2 -7 7q-2 6 0 9q4 9 12 9q2 0 4 -2q12 -3 8 -16z" />
    <glyph glyph-name="cctv-dealer" unicode="&#xe016;" 
d="M512 300q0 15 -19 21l-401 146q-16 6 -32 -1.5t-22 -23.5l-35 -97q-6 -16 2 -32q5 -15 23 -22l115 -42q-3 -18 9 -36l-24 -67q-2 -3 -5 -3h-71v21q0 11 -7.5 18.5t-18.5 7.5h-16q-10 0 -10 -10v-127q0 -10 10 -10h16q11 0 19 7.5t8 18.5v21h70q18 0 33 10.5t21 27.5
l24 66q22 3 33 22l135 -49q7 -3 14 -3q22 0 35 19l14 -5q7 -4 14 0q8 4 9 11l22 59q5 12 -4 19l22 10q17 9 17 23zM164 242l50 -19q-9 -9 -20 -9h-1q-4 0 -10 2q-3 1 -11 6q0 1 -1 1q-7 9 -7 19zM176 196h1q1 -1 2 -1l-21 -59q-8 -25 -35 -25h-71v11h71q18 0 25 17l21 60
q4 -2 7 -3zM421 267q-23 -13 -50 -3l-229 84q-10 3 -14 -6q-3 -10 6 -14l230 -83q9 -4 28 -4q14 0 28 3l-17 -44q-3 -9 -11 -12q-7 -4 -16 -1l-341 123q-8 3 -11.5 11.5t-0.5 16.5l12 32q7 -9 17 -12l8 -3q3 -2 8 0q3 1 5 6q1 4 0 8q-1 3 -6 5l-7 3q-20 7 -13 27l11 30
q4 10 11 12q9 4 16 1l400 -146q1 0 2.5 -0.5t2.5 -1.5q-1 -1 -5 -3zM457 253l-20 -55l-11 4l20 53l2 1zM32 164v-95q0 -5 -6 -5h-5v105h5q6 0 6 -5zM245 249l15 -5q1 -1 3 -1q8 0 10 7q4 11 -6 13l-15 6q-9 4 -13 -6q-3 -10 6 -14z" />
    <glyph glyph-name="couples-counselling" unicode="&#xe017;" 
d="M279 256q0 61 -46 99q-10 9 -18 -1q-7 -11 1 -18q38 -32 38 -80q0 -43 -30.5 -73.5t-73.5 -30.5t-73.5 30.5t-30.5 73.5q0 41 27 70.5t67 32.5q12 2 12 14q-2 12 -14 12q-50 -5 -83.5 -42t-33.5 -87q0 -48 31 -84t78 -43v-53h-30q-5 0 -8.5 -4t-3.5 -9t3.5 -9t8.5 -4h30
v-37q0 -5 3.5 -9t8.5 -4q13 0 13 13v37h29q13 0 13 13t-13 13h-29v51q52 2 88 39.5t36 89.5zM490 504q-2 5 -7 7q-2 1 -5 1h-84q-12 0 -12 -12q0 -13 12 -13h54l-89 -89q-35 30 -82 30q-53 0 -91 -38t-38 -92q0 -61 47 -99q10 -8 18 2q8 9 -2 17q-38 32 -38 80
q0 43 30.5 73.5t73.5 30.5t73.5 -30.5t30.5 -73.5q0 -40 -27 -69.5t-67 -33.5q-12 0 -12 -13q2 -12 13 -12h1q50 5 83.5 41.5t33.5 86.5q0 47 -30 82l89 89v-53q0 -13 13 -13q12 0 12 13v83v5z" />
    <glyph glyph-name="economics-tutor" unicode="&#xe018;" 
d="M499 25h-21v307q0 12 -12 12h-67q-5 0 -9 -3.5t-4 -8.5v-307h-25v155q0 13 -13 13h-67q-12 0 -12 -13v-155h-25v206q0 12 -13 12h-67q-13 0 -13 -12v-206h-25v88q0 13 -13 13h-67q-12 0 -12 -13v-88h-21q-5 0 -9 -3.5t-4 -8.5q0 -13 13 -13h486q13 0 13 13q0 5 -4 8.5
t-9 3.5zM59 25v76h42v-76h-42zM176 25v193h42v-193h-42zM294 25v143h42v-143h-42zM411 25v294h42v-294h-42zM71 227q16 0 27 10.5t11 26.5q0 6 -2 14l72 63q8 -5 18 -5q18 0 29 13l60 -24q0 -1 -0.5 -1t-0.5 -1q0 -16 11 -27t27 -11t27 11t11 27q0 11 -5 19l80 97
q6 -3 13 -3q16 0 27 11t11 27t-11 27t-27 11t-27 -11t-11 -27q0 -10 6 -19l-81 -97q-6 3 -13 3q-17 0 -28 -13l-60 24v2q0 15 -11 26t-27 11t-27 -11t-11 -26q0 -2 3 -14l-72 -63q-10 5 -19 5q-15 0 -26 -11t-11 -27t10.5 -26.5t26.5 -10.5zM449 487q13 0 13 -13
q0 -12 -13 -12t-13 12q0 13 13 13zM323 336q13 0 13 -13q0 -12 -13 -12q-12 0 -12 12q0 13 12 13zM197 386q5 0 9 -3.5t4 -8.5q0 -13 -13 -13q-12 0 -12 13q0 12 12 12zM71 277q13 0 13 -13q0 -5 -4 -8.5t-9 -3.5t-8.5 4t-3.5 8q0 5 3.5 9t8.5 4z" />
    <glyph glyph-name="english-tutors" unicode="&#xe019;" 
d="M457 512h-402q-13 0 -13 -13v-67q0 -12 13 -12q12 0 12 12v55h176v-461h-62q-13 0 -13 -13q0 -12 13 -12h150q13 0 13 12q0 13 -13 13h-62v461h176v-55q0 -12 12 -12q13 0 13 12v67q0 13 -13 13z" />
    <glyph glyph-name="live-band" unicode="&#xe01a;" 
d="M439 324q-13 0 -13 -13v-46q0 -6 -1 -10h-26v123q0 52 -42.5 91.5t-98.5 41.5q-1 1 -2 1l-1 -1h-1q-59 0 -100 -38.5t-41 -94.5v-122h-27v9v46q0 14 -13 14t-13 -14v-45q-2 -81 53 -139q53 -55 130 -58v-69h26v69q78 5 130.5 61t52.5 135v46q0 13 -13 13zM139 275h69
q9 0 9 9q0 8 -9 8h-69v38h69q9 0 9 9q0 8 -9 8h-69v31q0 4 1 7h69q8 0 8 8q0 9 -8 9h-67q10 43 51 67v-12q0 -8 9 -8q8 0 8 8v19v1q20 7 38 8v-28q0 -8 9 -8q8 0 8 8v28q17 -1 38 -10v-1v-17q0 -8 8 -8q9 0 9 8v9q38 -23 50 -64h-70q-8 0 -8 -9q0 -8 8 -8h73v-7v-31h-73
q-8 0 -8 -8q0 -9 8 -9h73v-38h-73q-8 0 -8 -8q0 -9 8 -9h73v-19h-234v19zM371 238q-7 -38 -40.5 -65t-74.5 -27t-74.5 27t-40.5 65h230zM254 94q-73 0 -122 51q-38 38 -44 93h26q8 -49 49 -84t93 -35t93.5 35t48.5 84h25q-9 -62 -56.5 -103t-112.5 -41z" />
    <glyph glyph-name="math-tutor" unicode="&#xe01b;" 
d="M146 136l34 34q9 9 0 18t-18 0l-34 -33l-34 33q-9 9 -18 0t0 -18l34 -34l-34 -33q-9 -9 0 -18q4 -4 9 -4q6 0 9 4l34 34l34 -34q3 -4 8 -4q6 0 9 4q11 9 0 18zM77 371h38v-38q0 -13 13 -13t13 13v38h38q13 0 13 13t-13 13h-38v38q0 13 -13 13t-13 -13v-38h-38
q-13 0 -13 -13t13 -13zM316 371h110q13 0 13 13t-13 13h-110q-13 0 -13 -13t13 -13zM427 124h-103q-12 0 -12 -13t12 -13h103q13 0 13 13t-13 13zM427 175h-103q-12 0 -12 -13t12 -13h103q13 0 13 13t-13 13zM439 512h-366q-30 0 -51.5 -21.5t-21.5 -51.5v-366
q0 -30 21.5 -51.5t51.5 -21.5h366q30 0 51.5 21.5t21.5 51.5v366q0 30 -21.5 51.5t-51.5 21.5zM495 439v-166h-239v222h183q23 0 39.5 -16.5t16.5 -39.5zM73 495h166v-222h-222v166q0 23 16.5 39.5t39.5 16.5zM17 73v183h222v-239h-166q-23 0 -39.5 16.5t-16.5 39.5zM439 17
h-183v239h239v-183q0 -23 -16.5 -39.5t-39.5 -16.5z" />
    <glyph glyph-name="pan-card" unicode="&#xe01c;" 
d="M465 78h-418q-19 0 -32.5 13.5t-13.5 32.5v264q0 19 13.5 32.5t32.5 13.5h418q19 0 32.5 -13.5t13.5 -32.5v-264q0 -19 -13.5 -32.5t-32.5 -13.5zM47 409q-9 0 -15 -6.5t-6 -14.5v-264q0 -8 6 -14.5t15 -6.5h418q9 0 15 6.5t6 14.5v264q0 8 -6 14.5t-15 6.5h-418z
M449 132h-94q-8 0 -8 9v93q0 9 8 9h94q8 0 8 -9v-93q0 -9 -8 -9zM364 149h76v77h-76v-77zM217 311h-147q-8 0 -8 8q0 9 8 9h147q8 0 8 -9q0 -8 -8 -8zM167 244h-97q-8 0 -8 8q0 9 8 9h97q8 0 8 -9q0 -8 -8 -8zM267 177h-196q-9 0 -9 8q0 9 9 9h196q9 0 9 -9q0 -8 -9 -8z" />
    <glyph glyph-name="passport" unicode="&#xe01d;" 
d="M256 433h-4q-45 -1 -75 -32t-30 -75q0 -46 32 -78.5t77 -32.5t77 32t32 78q0 45 -32 76.5t-77 31.5zM237 264h38q-9 -19 -19 -32q-10 13 -19 32zM230 280q-7 18 -8 32h68q-1 -14 -8 -32h-52zM165 312h40q1 -12 7 -31h-37q-6 12 -10 31zM256 417h1q17 -23 25 -39h-51
q7 17 25 39zM287 361q4 -15 4 -32h-70q0 19 4 32h62zM204 329h-40q0 12 6 32h38q-4 -15 -4 -32zM307 312h41q-3 -17 -11 -31h-37q6 19 7 31zM308 329q0 17 -4 32h37q5 -13 7 -32h-40zM331 378h-32q-6 19 -18 35q32 -10 50 -35zM232 413q-14 -19 -19 -35h-33q19 28 52 35z
M187 264h31q10 -20 16 -29q-27 6 -47 29zM278 235q6 9 16 29h31q-20 -23 -47 -29zM396 512h-313q-13 0 -21.5 -8.5t-8.5 -20.5v-454q0 -12 8.5 -20.5t21.5 -8.5h313q26 0 44.5 18.5t18.5 44.5v386q0 26 -18.5 44.5t-44.5 18.5zM434 63q0 -16 -11 -27t-27 -11h-313q-5 0 -5 4
v453q0 4 5 4h313q16 0 27 -10.5t11 -26.5v-386zM163 137h187v-25h-187v25z" />
    <glyph glyph-name="science-tutor" unicode="&#xe01e;" 
d="M486 63l-167 208v85h13q13 0 13 12q0 13 -13 13h-152q-13 0 -13 -13q0 -12 13 -12h13v-85l-167 -208q-2 -4 -2 -8q-1 -22 15 -38.5t39 -16.5h356q23 0 39 16t16 39q0 5 -3 8zM215 259q3 3 3 7v89h76v-89q0 -4 3 -7l68 -86h-218zM434 25h-356q-11 0 -19 7.5t-10 18.5
l84 106h245l85 -106q-2 -11 -10 -18.5t-19 -7.5zM129 410q14 0 24 10t10 24t-10 24t-24 10t-24 -10t-10 -24t10 -24t24 -10zM129 461q7 0 12 -5t5 -12t-5 -11.5t-12 -4.5t-12 4.5t-5 11.5t5 12t12 5zM264 410q21 0 36 15t15 36t-14.5 36t-36.5 15q-21 0 -35.5 -15t-14.5 -36
t15 -36t35 -15zM264 495q14 0 24 -10t10 -24t-10 -23.5t-24 -9.5t-23.5 10t-9.5 23q0 14 9.5 24t23.5 10zM391 410q11 0 18.5 7.5t7.5 18.5t-7.5 18t-18.5 7t-18 -7.5t-7 -17.5q0 -11 7.5 -18.5t17.5 -7.5zM391 444q9 0 9 -8t-9 -8q-8 0 -8 8t8 8z" />
    <glyph glyph-name="wedding-cards-at-home" unicode="&#xe01f;" 
d="M488 344q-2 6 -5 8l-32 24v32q0 12 -12 12h-47l-108 83q-12 9 -27.5 9t-27.5 -9l-113 -82h-43q-13 0 -13 -13v-29q-1 -1 -2 -1l-24 -18q-7 -4 -9 -14q-2 -4 -2 -6v-302q0 -16 11 -27t27 -11h390q16 0 26.5 11t10.5 27v302v4zM463 40l-180 132l180 142v-274zM48 314
l181 -142l-181 -132v274zM256 161l185 -136h-370zM456 341l-4 -4v7zM244 483q12 8 25 0l82 -63h-192zM426 395v-78l-162 -128q-1 -1 -3 -1q-5 2 -10 0q-2 0 -3 1l-162 128v78h340zM60 348v-11l-7 6q1 0 1 1zM257 224q-5 0 -6 3l-58 58q-14 12 -14 31q0 18 12.5 30.5
t29.5 12.5q21 0 35 -17q12 17 34 17q18 0 30.5 -13t12.5 -30q0 -18 -15 -31l-55 -58q-3 -3 -6 -3zM222 342q-11 0 -18.5 -7.5t-7.5 -18.5t8 -19l53 -52l50 52q9 7 9 19q0 10 -8 18t-18 8q-11 0 -18.5 -7.5t-7.5 -18.5q0 -9 -8 -9t-8 9q0 10 -8 18t-18 8z" />
    <glyph glyph-name="web-development" unicode="&#xe020;" 
d="M466 486h-420q-19 0 -32.5 -13.5t-13.5 -32.5v-318q0 -19 13.5 -32.5t32.5 -13.5h197v-25h-129q-13 0 -13 -13q0 -12 13 -12h301q13 0 13 12q0 13 -13 13h-146v25h196q19 0 32.5 13.5t13.5 32.5v318q1 19 -12.5 32.5t-32.5 13.5zM46 461h420q8 0 14.5 -6t6.5 -15v-255
h-462v255q0 9 6.5 15t14.5 6zM466 101h-420q-8 0 -14.5 6t-6.5 15v38h461v-38q1 -9 -5.5 -15t-14.5 -6zM256 147q-7 0 -12 -5t-5 -12t5 -12t12 -5t12 5t5 12t-5 12t-12 5zM194 256q2 -2 4 -2q5 0 7 4q5 6 -3 12l-74 46l75 52q7 4 2 11t-12 2l-85 -58q-4 -4 -4 -8t4 -6z
M307 258q1 -3 7 -3q3 0 4 1l85 53q4 3 4 7t-3 7l-85 59q-8 4 -12 -2q-5 -7 2 -12l75 -52l-75 -46q-6 -6 -2 -12zM218 221h3q5 0 8 5l70 178q2 8 -5 11q-8 2 -11 -5l-70 -178q-2 -8 5 -11z" />
    <glyph glyph-name="chat" unicode="&#xe021;" 
d="M189 239h-25q-6 0 -9 -3l-63 -63v54q0 12 -12 12h-55v227h378v-125q0 -13 12 -13q13 0 13 13v137q0 13 -13 13h-402q-13 0 -13 -13v-251q0 -13 13 -13h54v-71q0 -9 8 -12l2 -1h3q3 0 9 4l80 80h20q12 0 12 13q0 12 -12 12zM499 307h-268q-13 0 -13 -13v-168q0 -12 13 -12
h129l80 -89q4 -4 9 -4q3 0 5 1q8 4 8 12v79h37q13 0 13 13v168q0 13 -13 13zM487 139h-38q-13 0 -13 -13v-60l-61 69q-6 4 -10 4h-122v142h244v-142z" />
    <glyph glyph-name="double-tick-ios" unicode="&#xe022;" 
d="M407 346l29 29l42 -41l-217 -215l-29 29l165 164l22 22zM334 375l-175 -173l-83 82l-42 -41l125 -124v1v-1l216 215z" />
    <glyph glyph-name="cross-thick" unicode="&#xe023;" 
d="M512 447l-65 65l-191 -191l-191 191l-65 -65l191 -191l-191 -191l65 -65l191 191l191 -191l65 65l-191 191z" />
    <glyph glyph-name="star" unicode="&#xe024;" 
d="M256 128l-150 -79l28 167l-121 119l168 25l75 152l75 -152l168 -25l-121 -119l28 -167z" />
    <glyph glyph-name="wallet" unicode="&#xe025;" 
d="M362 237q-8 0 -13.5 -5.5t-5.5 -13.5q0 -19 19 -19q8 0 13 5.5t5 13.5q1 7 -4.5 13t-13.5 6zM466 285h-21v72q0 22 -14.5 39t-36.5 22v22q0 20 -18 33t-45 13h-268q-26 0 -44.5 -18.5t-18.5 -43.5v-336q0 -26 18.5 -44.5t44.5 -18.5h322q27 0 44 19q19 19 17 45l-1 54h20
q19 0 32.5 13.5t13.5 32.5v50q1 19 -12.5 32.5t-32.5 13.5zM422 88q0 -15 -11 -26q-10 -11 -26 -11h-322q-15 0 -26.5 11t-11.5 26v336q0 15 11 26t27 11h268q16 0 27 -6.5t11 -14.5v-21h-297q-13 0 -13 -12q0 -13 13 -13h310q15 0 26.5 -11t11.5 -26v-72h-72
q-19 0 -32.5 -13.5t-13.5 -32.5v-50q0 -19 13.5 -32.5t32.5 -13.5h72zM487 189q0 -9 -6.5 -15t-14.5 -6h-118q-8 0 -14.5 6t-6.5 15v50q0 9 6.5 15t14.5 6h118q8 0 14.5 -6t6.5 -15v-50z" />
    <glyph glyph-name="filter-line" unicode="&#xe026;" 
d="M283 0q-6 0 -12 3l-54 32q-12 7 -12 20v176l-184 224q-15 18 -5 37q10 20 32 20h416q22 0 32 -20q10 -19 -5 -37l-184 -224v-207q0 -12 -12 -21q-6 -3 -12 -3zM48 487q-6 0 -9 -6q-3 -3 1 -10l191 -231v-185l50 -29v214l191 231q5 6 1 10q-3 6 -9 6h-416z" />
    <glyph glyph-name="arrow-down-stemless" unicode="&#xe027;" 
d="M511 354l-59 59l-196 -195l-196 195l-59 -59l255 -255z" />
    <glyph glyph-name="arrow-left-stemless" unicode="&#xe028;" 
d="M354 1l59 59l-195 196l195 196l-59 59l-255 -255z" />
    <glyph glyph-name="arrow-right-stemless" unicode="&#xe029;" 
d="M158 511l-59 -59l195 -196l-195 -196l59 -59l255 255z" />
    <glyph glyph-name="arrow-up-stemless" unicode="&#xe02a;" 
d="M1 158l59 -59l196 195l196 -195l59 59l-255 255z" />
    <glyph glyph-name="chat-1" unicode="&#xe02b;" 
d="M410 358h-308v52h308v-52zM307 205h-205v51h205v-51zM102 333h308v-51h-308v51zM461 512h-410q-21 0 -36 -15t-15 -36v-461l102 102h359q21 0 36 15t15 37v307q0 21 -15 36t-36 15z" />
    <glyph glyph-name="chat-line" unicode="&#xe02c;" 
d="M499 470h-486q-13 0 -13 -13v-318q0 -13 13 -13h121v-71q0 -9 8 -12q1 -1 5 -1q5 0 8 3l95 81h249q13 0 13 12v319q0 13 -13 13zM487 151h-241q-4 0 -9 -3l-77 -66v56q0 13 -13 13h-122v294h461v-294h1zM119 361h190q12 0 12 12q0 13 -12 13h-190q-13 0 -13 -13
q0 -12 13 -12zM119 292h275q5 0 8.5 4t3.5 9q0 12 -12 12h-275q-13 0 -13 -12q0 -13 13 -13zM119 227h275q12 0 12 12q0 5 -3.5 9t-8.5 4h-275q-13 0 -13 -13q0 -12 13 -12z" />
    <glyph glyph-name="filter-applied" unicode="&#xe02d;" 
d="M227 148v109l-179 217q-2 2 -2 9q2 5 9 5h390q7 0 9 -5q0 -7 -2 -9l-178 -217v-134l23 26v100l174 210q13 14 4 34q-8 19 -29 19h-391q-22 0 -30 -19q-9 -20 4 -34l174 -210v-83q12 -6 16 -11zM268 0q-10 0 -16 6l-91 86q-17 16 -2 33q16 17 34 1l73 -69l183 199
q17 17 33 1q8 -6 8.5 -16t-6.5 -17l-199 -216q-6 -8 -16 -8h-1z" />
    <glyph glyph-name="filter-applied-fill" unicode="&#xe02e;" 
d="M266 115l31 34v100l174 210q13 14 4 34q-8 19 -29 19h-391q-22 0 -30 -19q-9 -20 4 -34l174 -210v-83zM268 0q-10 0 -16 6l-91 86q-17 16 -2 33q16 17 34 1l73 -69l183 199q17 17 33 1q8 -6 8.5 -16t-6.5 -17l-199 -216q-6 -8 -16 -8h-1z" />
    <glyph glyph-name="filter-fill" unicode="&#xe02f;" 
d="M475 512h-438q-15 0 -21.5 -13.5t3.5 -24.5l197 -240v-190q0 -6 6 -10l56 -33q6 -3 12 0t6 10v223l197 240q10 11 3.5 24.5t-21.5 13.5z" />
    <glyph glyph-name="location-fill" unicode="&#xe030;" 
d="M256 512q-75 0 -127 -52t-52 -127q0 -37 18.5 -85t44.5 -90t52.5 -78.5t45.5 -57.5l18 -22q7 8 19 22.5t43 56t54.5 80.5t43 88t19.5 86q0 75 -52 127t-127 52zM256 269q-27 0 -45.5 18.5t-18.5 45.5t18.5 45.5t45.5 18.5t45.5 -18.5t18.5 -45.5t-18.5 -45.5t-45.5 -18.5
z" />
    <glyph glyph-name="price-rupees" unicode="&#xe031;" 
d="M402 414h-70q-9 31 -27 50h101q10 0 17 7t7 17t-7 17t-17 7h-300q-10 0 -17 -7t-7 -17t7 -17t17 -7h119q40 -16 56 -50h-169q-10 0 -17 -7t-7 -17t7 -17t17 -7h175q-6 -45 -54 -66t-112 -21q-15 0 -22 -14q-6 -12 4 -26l196 -231q8 -8 18 -8q9 0 16 6t8 16t-5 17
l-166 195q73 9 117 44t49 88h66q10 0 17 7t7 17t-7 17t-17 7z" />
    <glyph glyph-name="pro" unicode="&#xe032;" 
d="M256 192q-49 0 -105.5 -13t-103.5 -44t-47 -71v-64h512v64q0 40 -47 71t-103.5 44t-105.5 13zM256 256q52 0 90 38t38 90t-38 90t-90 38t-90 -38t-38 -90t38 -90t90 -38z" />
    <glyph glyph-name="pro-line" unicode="&#xe033;" 
d="M506 0h-500v72q0 43 46.5 74.5t101 44t102.5 12.5t102.5 -12.5t101 -44t46.5 -74.5v-72zM31 25h449v47q0 32 -41 57.5t-91 37t-92 11.5t-92 -11.5t-91.5 -37t-41.5 -57.5v-47zM256 250q-54 0 -92.5 38t-38.5 93q0 54 38.5 92.5t92.5 38.5t92.5 -38.5t38.5 -92.5
q0 -55 -38.5 -93t-92.5 -38zM256 487q-44 0 -75 -31.5t-31 -74.5q0 -44 31 -75t75 -31t75 31t31 75q0 43 -31 74.5t-75 31.5z" />
    <glyph glyph-name="reply" unicode="&#xe034;" 
d="M199 356v113l-199 -199l199 -199v117q209 0 313 -145q-11 57 -33 105.5t-58.5 92.5t-93 74.5t-128.5 40.5z" />
    <glyph glyph-name="reply-line" unicode="&#xe035;" 
d="M499 41q-7 0 -10 5q-92 129 -274 133v-98q0 -9 -8 -12q-7 -3 -14 3l-189 188q-9 9 0 18l189 189q5 7 14 3q7 -4 7 -11v-97q119 -20 195.5 -99t101.5 -207q1 -9 -7 -14q-2 -1 -5 -1zM202 204q174 0 271 -100q-65 204 -273 234q-10 2 -10 13v77l-159 -159l158 -158v80
q0 13 13 13z" />
    <glyph glyph-name="bartenders" unicode="&#xe036;" 
d="M392 222l13 90q0 6 -3 10t-9 4h-5q3 16 -5 33q7 16 8 28q0 9 9 24q3 3 9 13l1 1v1l16 28q3 5 2 9q-2 7 -6 8l-38 23q-11 6 -18 -5l-16 -27q0 -1 -2 -3q-3 -5 -7 -13q-8 -15 -16 -20q-13 -8 -21 -20q-29 -2 -41 -21l-1 -1l-12 -19l-10 22q0 1 -0.5 1t-0.5 1q-11 20 -38 25
q-9 15 -19 22q-7 6 -13 22q-2 4 -6 14q-1 0 -1 1t-1 2l-13 30q-3 4 -8 6q-3 2 -9 0l-41 -18q-11 -5 -6 -17l13 -29q0 -2 1 -3l7 -14q8 -16 7 -24q-1 -12 4 -29q-14 -24 -7 -45l1 -2l1 -3h-27q-6 0 -9 -5q-4 -6 -3 -10l44 -301q2 -11 12 -11h221q10 0 12 11l11 73
q12 -6 24 -6q10 0 18 4q20 9 25 29q10 40 -47 111zM282 370l1 1q7 12 26 10q9 -2 12 7q8 12 16 17q13 7 26 30q1 3 5 9l1 1q1 1 1 2l11 19l17 -10l-12 -19v-1l-1 -2l-6 -9q-14 -22 -14 -37q-1 -12 -8 -22q-5 -7 0 -14q8 -13 5 -26h-95l-4 11zM134 339h-1q-5 13 7 28
q5 7 2 14q-6 10 -5 22q1 17 -10 39l-3 6q-1 3 -2 4q0 2 -1 3l-9 20l17 8l10 -20q0 -1 1 -3q2 -4 4 -10q9 -23 22 -33q7 -5 14 -19q3 -8 11 -8q20 0 25 -13l23 -50h-100zM338 25h-199l-40 276h31h1h128h119l-27 -187q-58 42 -114 125q-5 7 -12 2q-3 -1 -3.5 -5t1.5 -6
q66 -96 125 -135zM423 114q-3 -11 -16 -17q-12 -6 -33 3l14 99q41 -57 35 -85z" />
    <glyph glyph-name="chimmney-repair" unicode="&#xe037;" 
d="M506 303l-154 95q-7 4 -7 11v75q0 13 -12 13h-154q-12 0 -12 -13v-75q0 -7 -6 -11l-155 -95q-6 -4 -6 -11v-64q0 -16 11.5 -27t26.5 -11h435q16 0 27 11t11 27v64q1 7 -5 11zM174 376q18 11 18 33v63h128v-63q0 -22 18 -32l149 -92v-28h-462v28zM474 215h-436
q-13 0 -13 13v13h461v-13q1 -5 -3 -9t-9 -4zM175 152q0 8 -8 8q-9 0 -9 -8q0 -14 -11 -27q-14 -18 -14 -38q0 -19 14 -37q11 -15 11 -27q0 -8 9 -8q8 0 8 8q0 19 -15 38q-11 13 -11 26q0 14 11 27q15 19 15 38zM239 152q0 8 -9 8q-8 0 -8 -8q0 -14 -11 -27q-15 -19 -15 -38
q0 -18 15 -37q11 -15 11 -27q0 -8 8 -8q9 0 9 8q0 19 -15 38q-11 13 -11 26q0 14 11 27q15 19 15 38zM303 152q0 8 -9 8q-8 0 -8 -8q0 -14 -11 -27q-15 -19 -15 -38q0 -18 15 -37q11 -15 11 -27q0 -8 8 -8q9 0 9 8q0 19 -15 38q-11 13 -11 26q0 14 11 27q15 19 15 38z
M367 152q0 8 -9 8q-8 0 -8 -8q0 -14 -11 -27q-15 -19 -15 -38q0 -18 15 -37q11 -15 11 -27q0 -8 8 -8q9 0 9 8q0 19 -15 38q-11 13 -11 26q0 14 11 27q15 19 15 38z" />
    <glyph glyph-name="construction-renovation" unicode="&#xe038;" 
d="M508 142l-133 133l-87 88l-146 145q-8 8 -18 0q-8 -6 0 -18l50 -49l-103 -103l-49 50q-9 7 -18 0q-9 -9 0 -18l366 -366q3 -4 9 -4q5 0 9 4q7 7 0 18l-38 37l103 103l37 -38q4 -3 9 -3q6 0 9 3q9 9 0 18zM176 233l103 103l69 -69l-102 -103zM192 423l69 -69l-103 -103
l-69 69zM333 76l-70 70l103 103l69 -70z" />
    <glyph glyph-name="consumer-lawyer" unicode="&#xe039;" 
d="M457 62l-29 312q0 25 -17.5 43t-42.5 18h-16q-13 35 -38.5 56t-57.5 21q-31 0 -57 -21.5t-38 -55.5h-17q-25 0 -42.5 -17.5t-17.5 -42.5l-29 -315q0 -25 18 -42.5t43 -17.5h280q25 0 42.5 17.5t17.5 42.5q1 1 1 2zM256 487q46 0 68 -52h-136q22 52 68 52zM396 25h-280
q-15 0 -25 10t-10 24l28 315q0 15 10.5 25.5t24.5 10.5h10q-2 -18 -2 -27q0 -5 3.5 -9t8.5 -4q13 0 13 13t3 27h152q3 -14 3 -27t13 -13q12 0 12 13q0 18 -2 27h10q14 0 24.5 -10.5t10.5 -26.5l28 -313q0 -14 -10.5 -24.5t-24.5 -10.5z" />
    <glyph glyph-name="corporate-lawyer" unicode="&#xe03a;" 
d="M477 429h-142v19q0 15 -10.5 25.5t-25.5 10.5h-86q-15 0 -25.5 -10.5t-10.5 -25.5v-19h-142q-14 0 -24 -10.5t-10 -24.5v-110q0 -10 9 -12l2 -1v-184q0 -24 17 -41.5t42 -17.5h370q25 0 42 17.5t17 41.5v184l2 1q9 2 9 12v110q0 14 -10 24.5t-24 10.5zM202 448
q0 11 11 11h86q11 0 11 -11v-19h-108v19zM475 87q0 -14 -10 -24t-24 -10h-370q-14 0 -24 10t-10 24v177l192 -52q12 -4 27 -4q14 0 26 4l193 52v-177zM486 293l-210 -57q-20 -6 -40 0l-210 57v101q0 9 9 9h442q9 0 9 -9v-101zM278 317q0 -9 -6.5 -15.5t-15.5 -6.5t-15.5 6.5
t-6.5 15.5t6.5 15.5t15.5 6.5t15.5 -6.5t6.5 -15.5z" />
    <glyph glyph-name="criminal-lawyer" unicode="&#xe03b;" 
d="M474 232v1v26q0 20 -13 35.5t-33 19.5q2 3 2 9v35q0 18 -18 25q16 16 1 35l-22 27q-7 8 -17.5 9.5t-18.5 -4.5q0 1 -1 2l-2 5q-4 10 -14 15q-10 3 -21 0l-32 -14q-17 -6 -17 -26q-4 2 -7 2q-11 0 -19 -8l-25 -25q-5 -7 -5 -8q-16 7 -29 7q-23 0 -40 -17l-17 -17
q-4 1 -12 1q-47 0 -80.5 -33.5t-33.5 -80.5t33.5 -80.5t80.5 -33.5t80.5 33.5t33.5 80.5q0 6 -1 9l2 1l18 18q16 16 16 40q0 19 -11 33q5 2 8 5l24 25q8 8 8 18h6q7 0 10 2l32 13h1q2 -6 4 -9l22 -27q6 -6 9 -7q-5 -8 -5 -16v-35q0 -5 2 -9q-19 -5 -31 -20t-12 -35v-25
q-40 -33 -40 -84q0 -46 32.5 -78.5t78.5 -32.5t78.5 32.5t32.5 78.5q0 49 -38 82zM413 323q0 -4 -4 -8h-18q-4 4 -4 8v35q0 10 10 10h6q10 0 10 -10v-35zM114 164q-37 0 -62.5 26t-25.5 63t25.5 62.5t62.5 25.5t63 -25.5t26 -62.5t-26 -63t-63 -26zM229 299l-8 -8
q-17 49 -66 68l6 7q9 9 22 9h1q13 0 22 -9l23 -23q9 -9 9 -22t-9 -22zM272 396l-24 -25q-4 -3 -9 -3l-12 12q-1 4 2 9l25 25q1 1 7 3q4 0 7 -3l4 -4q3 -3 3 -7q0 -5 -3 -7zM333 432l-32 -13q-9 -4 -13 5l-2 6q-4 9 5 13l32 13q1 0 2 0.5t2 0.5t2 -0.5t2 -0.5q3 -2 5 -5l3 -6
q4 -9 -6 -13zM358 419q-6 7 1 14l5 3q4 4 8 2q4 0 6 -3l22 -27q6 -9 -2 -14l-4 -4q-6 -3 -8 -2q-4 0 -6 4zM354 259q0 13 9.5 22t22.5 9h32q13 0 22 -9t9 -22v-10q-22 11 -48 11t-47 -10v9zM401 64q-36 0 -61 25t-25 61q0 35 25 60t61 25q35 0 60.5 -25t25.5 -60
q0 -36 -25.5 -61t-60.5 -25zM401 217q-28 0 -48 -19.5t-20 -47.5t19.5 -48t48.5 -20q28 0 47.5 20t19.5 48t-19.5 47.5t-47.5 19.5zM401 99q-21 0 -36 14.5t-15 35.5t15 36t36 15q20 0 35 -15t15 -36t-15 -35.5t-35 -14.5zM114 322q-28 0 -48.5 -20t-20.5 -49t20.5 -49
t48.5 -20t48.5 20t20.5 49t-20.5 49t-48.5 20zM114 201q-22 0 -37 15t-15 37t15.5 37t36.5 15q22 0 37 -15.5t15 -36.5q0 -22 -15 -37t-37 -15z" />
    <glyph glyph-name="debt-lawyer" unicode="&#xe03c;" 
d="M491 169h-105v131q0 13 -12 13h-118q-12 0 -12 -13v-56h-93v156q0 12 -13 12h-117q-13 0 -13 -12v-387q0 -13 13 -13h117h1h352q13 0 13 13v143q0 13 -13 13zM126 25h-93v362h93v-362zM151 219h93v-194h-93v194zM269 231v56h92v-262h-92v206zM479 25h-93v119h93v-119z
M69 489l154 -100q6 -5 14 0l77 55l134 -105h-34q-13 0 -13 -13q0 -12 13 -12h68q6 0 9 4q4 6 3 10l-9 65q-2 12 -14 10q-13 -2 -11 -14l4 -31l-141 111q-8 6 -15 1l-79 -55l-146 95q-11 7 -18 -4q-5 -11 4 -17z" />
    <glyph glyph-name="doorstep-car-repair" unicode="&#xe03d;" 
d="M498 297h-37l-67 100q-2 10 -12 10h-204q-6 0 -11 -6l-69 -104h-84q-13 0 -13 -12v-111q0 -12 13 -12h20q1 -24 17.5 -40.5t39.5 -16.5q24 0 41 16.5t17 40.5h212h1h2l2 1l1 1h1q2 0 2 2l1 1q2 2 2 4q5 19 24 24v-1v-64h-31q-13 0 -13 -13q0 -5 4 -8.5t9 -3.5h78
q13 0 13 12q0 13 -13 13h-31v64v1q19 -5 24 -24q0 -2 2 -4q1 -1 2 -1q0 -1 1 -2q1 0 2 -1h1q2 -1 4 -1h49q13 0 13 13v110q0 12 -13 12zM293 382h81l57 -85h-139v1l1 2v82zM185 382h82v-82l1 -1v-2h-140zM91 130q-13 0 -22.5 9.5t-9.5 23.5q0 5 1 8q5 25 31 25q27 0 32 -25
q1 -3 1 -8q0 -14 -9.5 -23.5t-23.5 -9.5zM486 187h-28q-1 4 -4 8l-2 2q-1 2 -4 5l-2 2l-4 4q-2 2 -3 2t-2.5 1t-2.5 2q0 1 -1 1t-2 1t-2.5 1t-2.5 1t-3 1q-4 2 -6 2h-1l-2 1q-2 0 -5 0.5t-4 0.5t-4 -0.5t-5 -0.5l-1 -1h-2q-2 0 -6 -2q-2 0 -3 -1q-1 0 -2.5 -0.5t-2.5 -1.5
l-1 -1q-2 0 -2 -1q-1 -1 -2.5 -2t-2.5 -1t-1 -1l-2 -1l-4 -4l-2 -2q-3 -3 -4 -5q0 -1 -0.5 -1t-0.5 -1q-5 -7 -5 -8h-207q-1 2 -2.5 4t-2.5 4q0 1 -0.5 1t-0.5 1q-3 3 -4 5l-2 2q-1 0 -2.5 2t-2.5 2l-2 2q-1 0 -2.5 1t-2.5 2l-1 1q-2 0 -2 1q-1 1 -2.5 1t-2.5 1t-3 1
q-4 2 -6 2h-1q-1 1 -2 1t-4 0.5t-5 0.5t-5 -0.5t-4 -0.5l-3 -1q-2 0 -6 -2q-2 0 -3 -1t-3 -1t-3 -1l-1 -1q-2 0 -2 -1q-1 -1 -4 -3l-1 -1q-1 -1 -2 -1l-4 -4l-2 -2q-3 -3 -4 -5l-2 -2q0 -1 -1.5 -4t-2.5 -4h-13v85h460v-85zM417 258h-30q-9 0 -9 -9q0 -8 9 -8h30q9 0 9 8
q0 9 -9 9zM255 258h-31q-8 0 -8 -9q0 -8 8 -8h31q8 0 8 8q0 9 -8 9z" />
    <glyph glyph-name="doorstep-two-wheeler-repair" unicode="&#xe03e;" 
d="M499 322h-189l-60 43q0 1 -2 1q-26 14 -56 4l20 46h48q13 0 13 13q0 12 -12 12h-57q-9 0 -12 -8l-32 -75q-19 24 -52 24q-13 0 -19 -2q-10 -3 -10 -12v-75q0 -9 10 -12q12 -2 19 -2q10 0 19 3l-14 -32q-12 3 -23 3q-37 0 -63.5 -26t-26.5 -63q0 -38 26 -64t64 -26
q37 0 63 26.5t26 63.5q0 50 -43 76l15 34q10 -12 23 -13l15 -4l96 -106q2 -2 4 -2v-1q2 -1 5 -1h88q8 -28 39 -31v-19h-31q-12 0 -12 -13t12 -13h77q13 0 13 13t-13 13h-30v21q14 4 23 15.5t9 26.5q0 18 -13 31t-32 13q-32 0 -42 -31h-73l8 55h182q13 0 13 13v68
q0 13 -13 13zM154 163q0 -26 -19 -45t-45 -19q-27 0 -46 19t-19 45q0 27 19 46t46 19q5 0 13 -2l-8 -19q-1 0 -3 1h-2q-19 0 -32 -13t-13 -32q0 -18 13 -31t32 -13q18 0 31 13t13 31q0 20 -16 34l8 19q28 -18 28 -53zM117 163q0 -11 -8 -19t-19 -8q-12 0 -20 8t-8 19t7.5 19
t18.5 9l-10 -23q-5 -10 6 -16q2 -1 5 -1q9 0 12 7l10 23q6 -7 6 -18zM104 304v53q16 1 28 -7t12 -19q0 -12 -12 -20t-28 -7zM167 293q-4 6 -2 15l8 17q7 12 23 20q12 4 20 4q9 0 21 -5l57 -42v-45l-115 28q-7 1 -12 8zM292 231l-7 -44l-53 59zM400 147h21v-15q-15 3 -21 15z
M424 187q12 0 20 -8t8 -20q0 -15 -14 -24v24v3l-1 1q-4 9 -12 9h-25q8 15 24 15zM487 253h-168v43h168v-43z" />
    <glyph glyph-name="family-lawyer" unicode="&#xe03f;" 
d="M88 357q-32 0 -54.5 22.5t-22.5 54.5t22.5 55t54.5 23t55 -23t23 -55t-23 -54.5t-55 -22.5zM88 487q-21 0 -36.5 -15.5t-15.5 -37.5q0 -21 15.5 -36.5t36.5 -15.5q22 0 37.5 15.5t15.5 36.5q0 22 -15.5 37.5t-37.5 15.5zM424 357q-32 0 -55 22.5t-23 54.5t23 55t55 23
t54.5 -23t22.5 -55t-22.5 -54.5t-54.5 -22.5zM424 487q-22 0 -37 -15.5t-15 -36.5q0 -22 15 -37.5t37 -15.5q21 0 36.5 15.5t15.5 37.5q0 21 -15.5 36.5t-36.5 15.5zM256 270q-32 0 -54.5 23t-22.5 55t22.5 54.5t54.5 22.5t55 -22.5t23 -54.5t-23 -55t-55 -23zM256 400
q-22 0 -37 -15t-15 -37t15 -37t37 -15t37 15t15 37t-15 37t-37 15zM299 0h-86q-10 0 -16.5 6.5t-6.5 16.5v152q0 28 19.5 47.5t46.5 19.5q28 0 47.5 -19.5t19.5 -47.5v-152q0 -10 -7 -16.5t-17 -6.5zM215 25h83v150q0 17 -12.5 29t-29.5 12t-29 -12t-12 -29v-150zM467 0h-86
q-10 0 -17 6.5t-7 16.5v238q0 28 19.5 47.5t47.5 19.5t47.5 -19.5t19.5 -47.5v-238q-2 -23 -24 -23zM382 25h83v236q0 17 -12 29.5t-29 12.5t-29.5 -12.5t-12.5 -29.5v-236zM132 0h-87q-10 0 -16.5 6.5t-6.5 16.5v238q0 28 19.5 47.5t46.5 19.5q28 0 47.5 -19.5t19.5 -47.5
v-238q0 -10 -6.5 -16.5t-16.5 -6.5zM47 25h83v236q0 17 -12.5 29.5t-29.5 12.5t-29 -12.5t-12 -29.5v-236z" />
    <glyph glyph-name="property-lawyer" unicode="&#xe040;" 
d="M505 313l-118 53v48l21 -11q11 -7 17 5q7 11 -5 17l-158 85q-6 4 -12 0l-158 -85q-11 -8 -5 -17q3 -7 11 -7q4 0 6 1l21 12v-48l-118 -53q-12 -6 -6 -17q3 -7 12 -7q3 0 5 1l15 6v-283q0 -13 12 -13h421q13 0 13 13v284l15 -7q2 -1 5 -1q7 0 12 7q6 11 -6 17zM204 30v150
q0 8 8 8h88q8 0 8 -8v-150q0 -1 -2 -5h-100q-2 4 -2 5zM454 25h-130q0 1 0.5 2.5t0.5 2.5v150q0 10 -7.5 17.5t-17.5 7.5h-88q-10 0 -17.5 -7.5t-7.5 -17.5v-150q0 -1 0.5 -2.5t0.5 -2.5h-130v283l85 39q8 4 8 11v70l105 57l106 -57v-70q0 -8 7 -11l85 -39v-283zM256 351
q-22 0 -37.5 -15.5t-15.5 -37.5t15.5 -37.5t37.5 -15.5t37.5 15.5t15.5 37.5t-15.5 37.5t-37.5 15.5zM256 262q-15 0 -25.5 10.5t-10.5 25.5t10.5 25.5t25.5 10.5t25.5 -10.5t10.5 -25.5t-10.5 -25.5t-25.5 -10.5z" />
    <glyph glyph-name="traffic-lawyer" unicode="&#xe041;" 
d="M330 512h-148q-11 0 -19.5 -8.5t-8.5 -19.5v-396q0 -11 8.5 -19.5t19.5 -8.5h39v-48q0 -12 12 -12q13 0 13 12v48h20v-48q0 -12 13 -12t13 12v48h38q12 0 20.5 8.5t8.5 19.5v396q-1 11 -9.5 19.5t-19.5 8.5zM333 89q0 -3 -3 -3h-148q-3 0 -3 3v395q0 3 3 3h148q3 0 3 -3
v-395zM256 474q-27 0 -44 -20q-15 -16 -15 -39q0 -17 10 -32q18 -26 49 -26t49 26q10 15 10 32q0 23 -15 39q-17 20 -44 20zM282 449q-11 -9 -26 -9t-26 9q26 19 52 0zM256 374q-22 0 -35 18q-7 12 -7 24q0 10 5 20l1 -1q2 -2 4 -2q3 -3 5 -4q4 -2 7 -3h1q9 -3 19 -3t19 3
q1 0 1 1q3 1 7 3q1 0 2.5 1t2.5 2l4 2l1 1q5 -10 5 -20q0 -11 -7 -23q-13 -19 -35 -19zM256 345q-26 0 -44 -21q-15 -15 -15 -38q0 -16 10 -33q18 -26 49 -26t49 26q10 17 10 33q0 22 -15 38q-18 21 -44 21zM282 319q-26 -19 -52 0q11 9 26 9t26 -9zM256 244q-22 0 -35 19
q-7 12 -7 23q0 10 5 20q1 0 1 -1l4 -2q1 -1 2.5 -2t2.5 -1q4 -2 7 -3q1 0 1 -1q9 -3 19 -3q11 0 19 4h1q3 1 7 3q2 1 5 4q2 0 4 2q1 0 1 1q5 -10 5 -20q0 -12 -7 -24q-13 -19 -35 -19zM256 215q-27 0 -44 -20q-15 -17 -15 -39q0 -24 17.5 -41t41.5 -17q25 0 42 17t17 41
q0 22 -14 39q-18 20 -45 20zM282 189q-26 -19 -52 0q11 9 26 9t26 -9zM256 114q-17 0 -29.5 12.5t-12.5 29.5q0 10 5 20h1q2 -2 4 -3q1 -1 2.5 -2t2.5 -1q4 -2 7 -3h1q12 -4 19 -4t19 4h1q3 1 7 3q2 1 5 4q2 0 4 2q1 0 1 1q5 -12 5 -20q0 -18 -12.5 -30.5t-29.5 -12.5z" />
    <glyph glyph-name="ups-inverter-repair" unicode="&#xe042;" 
d="M110 399q-8 0 -13 -5.5t-5 -12.5t5 -12.5t13 -5.5q7 0 12.5 5.5t5.5 12.5t-5 12.5t-13 5.5zM207 394q-13 0 -13 -13t13 -13t13 13t-13 13zM305 394q-13 0 -13 -13t13 -13t13 13t-13 13zM402 399q-8 0 -13 -5.5t-5 -12.5t5 -12.5t13 -5.5q7 0 12.5 5.5t5.5 12.5t-5 12.5
t-13 5.5zM511 326v1l-32 109q-1 9 -12 9h-422q-11 0 -12 -9l-32 -109v-1v-2v-245q0 -12 12 -12h486q12 0 12 12v245v2zM54 420h404l24 -83h-452zM486 92h-460v219h460v-219zM102 189h52q8 0 8 9q0 8 -8 8h-52q-8 0 -8 -8q0 -9 8 -9zM337 189h18v-17q0 -9 8 -9t8 9v17h18
q8 0 8 9q0 8 -8 8h-18v17q0 9 -8 9t-8 -9v-17h-18q-8 0 -8 -8q0 -9 8 -9z" />
    <glyph glyph-name="arrow-right-stemless-circle" unicode="&#xe043;" 
d="M256 0q106 0 181 75t75 181t-75 181t-181 75t-181 -75t-75 -181t75 -181t181 -75zM205 333l24 24l102 -103l-102 -102l-24 24l78 78z" />
    <glyph glyph-name="arrow-left-stemless-circle" unicode="&#xe044;" 
d="M256 512q-106 0 -181 -75t-75 -181t75 -181t181 -75t181 75t75 181t-75 181t-181 75zM307 179l-24 -24l-102 103l102 102l24 -24l-78 -78z" />
    <glyph glyph-name="video" unicode="&#xe045;" 
d="M461 451q-32 10 -205 10t-205 -10q-51 -16 -51 -195t51 -195q32 -10 205 -10t205 10q51 16 51 195t-51 195zM205 141v230l153 -115z" />
    <glyph glyph-name="chat-2" unicode="&#xe046;" 
d="M512 201q0 61 -67 94q0 -3 0.5 -9t0.5 -10q0 -75 -70 -128q-44 -33 -102 -44q38 -19 83 -19q25 0 53 7q27 -15 40 -13q5 0 6.5 1t0.5 3.5t-3 5t-5 7.5t-4 9q67 37 67 96zM213 435q-88 0 -150.5 -46.5t-62.5 -112.5q0 -43 29 -79t77 -57q0 -6 -2 -13t-3.5 -10t-6.5 -11
t-5 -9q-13 -19 0 -20h2q24 0 86 43q24 -2 36 -2q88 0 150.5 46.5t62.5 111.5q0 66 -62.5 112.5t-150.5 46.5zM276 217h-180q-10 0 -10 10t10 10h180q10 0 10 -10t-10 -10zM325 301h-229q-10 0 -10 10t10 10h229q10 0 10 -10t-10 -10z" />
    <glyph glyph-name="current-location-crosshair-android" unicode="&#xe047;" 
d="M255 372q-47 0 -81 -34t-34 -82t33.5 -81.5t81.5 -33.5t82 33.5t34 81.5t-34 82t-82 34zM495 274h-39q-5 73 -57.5 125.5t-127.5 58.5v37q0 16 -16 16q-7 0 -12 -4.5t-5 -11.5v-37q-73 -6 -125.5 -58.5t-58.5 -125.5h-37q-17 0 -17 -17q0 -16 17 -16h37
q6 -75 58.5 -127.5t125.5 -58.5v-38q0 -7 5 -11.5t12 -4.5q16 0 16 16v38q75 6 127.5 58.5t58.5 127.5h39q16 0 16 16q0 17 -17 17zM255 87q-70 0 -119.5 49.5t-49.5 119.5t49.5 119.5t119.5 49.5t119.5 -49.5t49.5 -119.5t-49.5 -119.5t-119.5 -49.5z" />
    <glyph glyph-name="menu-circles-android" unicode="&#xe048;" 
d="M317 61q0 -25 -17.5 -43t-43.5 -18t-43.5 18t-17.5 43t18 43t43 18t43 -18t18 -43zM317 256q0 -26 -17.5 -43.5t-43.5 -17.5t-43.5 17.5t-17.5 43.5t17.5 43.5t43.5 17.5t43.5 -17.5t17.5 -43.5zM317 451q0 -25 -18 -43t-43 -18t-43 18t-18 43t17.5 43t43.5 18t43.5 -18
t17.5 -43z" />
    <glyph glyph-name="back-arrow-stem-new" unicode="&#xe049;" 
d="M512 289h-389l173 176l-46 46l-250 -255l250 -255l46 46l-173 176h389v66z" />
    <glyph glyph-name="arrow-forward-stem" unicode="&#xe04a;" 
d="M1 228h403l-103 -103l40 -39l170 170l-170 170l-40 -40l103 -102h-403v-56z" />
    <glyph glyph-name="share-fill" unicode="&#xe04b;" 
d="M100 180q31 0 52 21l182 -106q-2 -5 -2 -18q0 -32 22 -54.5t55 -22.5t55.5 22.5t22.5 54.5q0 33 -22.5 55.5t-55.5 22.5q-30 0 -51 -21l-183 106q3 5 3 18q0 12 -3 17l183 108q22 -20 51 -20q31 0 53 22t22 53q0 30 -22 52t-53 22t-53 -22t-22 -52q0 -11 3 -18l-183 -109
q-19 21 -51 21q-33 0 -55 -22.5t-22 -54.5q0 -33 21 -54t53 -21z" />
    <glyph glyph-name="timeout" unicode="&#xe04c;" 
d="M256 512q-106 0 -181 -75t-75 -181t75 -181t181 -75t181 75t75 181t-75 181t-181 75zM256 51q-85 0 -145 60t-60 145t60 145t145 60t145 -60t60 -145t-60 -145t-145 -60zM269 384h-39v-154l134 -82l20 34l-115 69v133z" />
    <glyph glyph-name="holidays" unicode="&#xe04d;" 
d="M359 230h-128v-128h128v128zM333 512v-51h-204v51h-51v-51h-26q-21 0 -36 -15t-15 -36v-359q0 -21 15 -36t36 -15h358q21 0 36 15t15 36v359q0 21 -15 36t-36 15h-26v51h-51zM410 51h-358v282h358v-282z" />
    <glyph glyph-name="call-phone-droid2x" unicode="&#xe04e;" 
d="M102 290q59 -119 188 -188l63 63q14 14 28 5q48 -17 102 -17q13 0 21 -7.5t8 -20.5v-97q0 -13 -8 -20.5t-21 -7.5q-200 0 -341.5 141.5t-141.5 342.5q0 28 28 28h100q28 0 28 -28q0 -52 18 -103q4 -15 -6 -28z" />
    <glyph glyph-name="message" unicode="&#xe04f;" 
d="M461 461h-410q-21 0 -36 -15t-15 -36v-308q0 -21 15 -36t36 -15h410q21 0 36 15t15 36v308q0 21 -15 36t-36 15zM461 358l-205 -128l-205 128v52l205 -128l205 128v-52z" />
    <glyph glyph-name="lock" unicode="&#xe050;" 
d="M398 341v29q0 59 -41 100.5t-101 41.5t-101.5 -41t-41.5 -101v-29q-25 0 -40.5 -15.5t-15.5 -41.5v-227q0 -26 15.5 -41.5t40.5 -15.5h285q26 0 41.5 16t15.5 41v227q0 26 -15.5 41.5t-41.5 15.5zM353 341h-194v29q0 38 29.5 67t67.5 29t67.5 -29t29.5 -67v-29z" />
    <glyph glyph-name="referral" unicode="&#xe051;" 
d="M393 423q-13 21 -43 21h-295q-23 0 -38.5 -16t-15.5 -38v-269q0 -22 16 -37.5t38 -15.5h295q30 0 43 21l118 167z" />
    <glyph glyph-name="all-tutors" unicode="&#xe052;" 
d="M499 451h-39v40q0 5 -4 8.5t-9 3.5h-121q-46 0 -70 -38q-24 38 -70 38h-121q-5 0 -9 -3.5t-4 -8.5v-41h-39q-13 0 -13 -12v-347q0 -12 13 -12h130q27 0 46 -14.5t19 -42.5q0 -13 13 -13h70q5 0 8.5 4t3.5 9q0 28 19.5 42.5t46.5 14.5h130q12 0 12 12v347q1 5 -3 9t-9 4z
M326 478h109v-322h-109q-32 0 -57 -27v292q0 26 17 41.5t40 15.5zM77 478h109q23 0 40 -15.5t17 -41.5v-293q-25 28 -65 28h-101v322zM487 104h-118q-37 0 -61 -19t-29 -51h-46q-5 31 -29.5 50.5t-60.5 19.5h-117v321h26v-282q0 -12 13 -12h113q28 0 46.5 -19t18.5 -47
q0 -12 13 -12q12 0 12 12q0 27 18 46.5t39 19.5h122q12 0 12 12v283h27v-322h1z" />
    <glyph glyph-name="more-ios" unicode="&#xe053;" 
d="M59 314q-24 0 -41 -17t-17 -41t17 -41t41 -17t40.5 17t16.5 41t-16.5 41t-40.5 17zM453 314q-24 0 -40.5 -17t-16.5 -41t16.5 -41t40.5 -17t41 17t17 41t-17 41t-41 17zM256 314q-24 0 -41 -17t-17 -41t17 -41t41 -17t41 17t17 41t-17 41t-41 17z" />
    <glyph glyph-name="mehendi-henna" unicode="&#xe054;" 
d="M258 285q5 -11 17 -11q6 0 9 1q18 9 9 27q-7 18 -25 9q-19 -8 -10 -26zM274 297q3 2 5 -2q2 -3 -2 -5q-3 -2 -5 2l-3 -2l3 2q-2 3 2 5zM338 233q-5 10 -16 14.5t-21 -0.5q-24 -12 -14 -38q8 -16 26 -16q3 0 11 2q11 5 15 15.5t-1 21.5v1zM299 214l3 2q-5 10 6 16
q10 5 16 -6q2 -4 0 -9q-2 -6 -7 -7q-11 -6 -15 6zM291 210zM214 216q8 -18 29 -18q4 0 14 2q12 6 17 18.5t-1 25.5v1q-6 12 -18.5 16.5t-24.5 -1.5q-12 -5 -17 -18t1 -25v-1zM236 246q14 6 23 -9q6 -15 -9 -22q-14 -7 -22 8l-3 -2l3 2q-7 16 8 23zM217 217zM371 301
q-1 1 -2 3.5t-2 4.5q-23 44 -58.5 86t-54.5 59.5t-26 21.5l-33 26q-10 10 -23 10t-22 -9t-9 -22t9 -22.5t22 -9.5q22 0 29 21l4 -10q8 -18 8.5 -36.5t-7.5 -41t-15 -37t-22 -43.5l-3 -7l-9 -18q-22 -42 -35 -80q-23 -63 5 -121q17 -36 49 -56t69 -20q21 0 41 7q72 25 99 92
q18 43 14.5 97t-28.5 105zM368 106q-24 -60 -88 -82q-40 -14 -78.5 2.5t-58.5 56.5q-24 50 -4 108q10 25 41 87q13 23 20 37t15.5 34.5t11.5 35.5t3.5 33.5t-4.5 35.5q83 -72 125 -154q1 -1 4 -7q50 -101 13 -187zM354 261l-2 6q-36 82 -98 144q-4 4 -9 1q-5 -1 -5 -8
q2 -23 -5.5 -50t-16.5 -45t-29 -52q-31 -57 -35 -64q-20 -49 -3 -96q13 -31 38.5 -48.5t56.5 -17.5q12 0 25 3q55 15 83 66q36 74 0 161zM338 108q-22 -45 -72 -57q-31 -8 -58.5 6.5t-40.5 46.5q-16 39 3 82q3 7 34 63q50 86 53 134q51 -58 79 -123l3 -6q32 -82 -1 -146z
M283 132q7 6 8 14t-4 17q-4 4 -13 6q-9 0 -16 -6q-4 -4 -6 -7q-3 11 -12 17q-11 7 -20 -2q-7 -6 -7 -16q0 -5 3 -13q-16 3 -25 -6q-8 -10 -2 -21q5 -11 21 -12q-9 -11 -8 -22q3 -10 12 -13q11 -5 21 5l6 6q3 -10 12 -16q5 -3 9 -3q7 0 12 5q7 6 6 16q0 7 -3 12q16 -3 25 7
q9 9 2 21q-7 10 -21 11zM259 74q-10 10 -8 31q17 -14 17 -25q0 -4 -3 -6q-2 -2 -6 0zM266 153q4 3 7 3q2 0 4 -2q6 -6 -7 -17q-6 -5 -16 -10q5 19 12 26zM292 108q-7 -10 -32 7q26 10 33 -1q2 -4 -1 -6zM227 82q-5 -3 -9 -2l-3 3q-2 13 24 24q-5 -18 -12 -25zM234 161
q10 -5 8 -31q-16 13 -16 25q0 5 2 6q1 1 3 1t3 -1zM201 127q3 3 8 3q9 0 25 -10q-26 -9 -34 1q-2 4 1 6z" />
    </font>
</defs>
</svg>
